<?xml version="1.0" encoding="iso-8859-1"?>
<!-- Generator: Adobe Illustrator 16.0.0, SVG Export Plug-In . SVG Version: 6.00 Build 0)  -->
<!DOCTYPE svg PUBLIC "-//W3C//DTD SVG 1.1//EN" "http://www.w3.org/Graphics/SVG/1.1/DTD/svg11.dtd">
<svg version="1.1" xmlns="http://www.w3.org/2000/svg" xmlns:xlink="http://www.w3.org/1999/xlink" x="0px" y="0px" width="612px"
	 height="201.6px" viewBox="0 0 612 201.6" style="enable-background:new 0 0 612 201.6;" xml:space="preserve">
<g id="Layer_2" style="display:none;">
	<rect x="6" y="-43.6" style="display:inline;" width="335.732" height="122"/>
</g>
<g id="Layer_4">
	<linearGradient id="SVGID_1_" gradientUnits="userSpaceOnUse" x1="0" y1="-5.8569" x2="612" y2="-5.8569">
		<stop  offset="0" style="stop-color:#FFFFFF"/>
		<stop  offset="0" style="stop-color:#FFFFFF;stop-opacity:0.3"/>
		<stop  offset="0.4276" style="stop-color:#FFFFFF"/>
		<stop  offset="1" style="stop-color:#FFFFFF;stop-opacity:0.4"/>
	</linearGradient>
	<rect y="-107.119" style="display:none;opacity:0.3;fill:url(#SVGID_1_);" width="612" height="202.523"/>
	<g>
		<path d="M381.736,119.989h-2.67v5.712h2.67c1.918,0,2.938-0.968,2.938-2.904C384.675,120.504,383.336,119.989,381.736,119.989z"/>
		<path d="M84.785,119.794c-2.936,0-3.343,4.196-3.343,6.682c0,2.453,0.407,6.649,3.343,6.649c2.935,0,3.341-4.196,3.341-6.649
			C88.126,123.99,87.72,119.794,84.785,119.794z"/>
		<path d="M244.724,122.538c0-2.001-1.279-2.549-2.645-2.549h-2.062v5.261h2.18C243.881,125.25,244.724,124.055,244.724,122.538z"/>
		<path d="M70.607,122.635c0-1.517-0.812-2.646-2.557-2.646h-3.139v5.745h2.558C69.357,125.734,70.607,124.54,70.607,122.635z"/>
		<path d="M279.792,161.373c0-1.517-0.814-2.646-2.558-2.646h-3.14v5.745h2.559C278.541,164.472,279.792,163.278,279.792,161.373z"
			/>
		<path d="M242.747,127.186h-2.731v5.745h2.267c1.715,0,3.313-0.419,3.313-2.71C245.596,128.542,244.607,127.186,242.747,127.186z"
			/>
		<path d="M276.856,115.276h-2.063v17.655h1.597c2.354,0,4.156-0.678,4.156-8.812C280.546,115.922,278.57,115.276,276.856,115.276z"
			/>
		<path d="M363.695,119.794c-2.935,0-3.34,4.196-3.34,6.682c0,2.453,0.405,6.649,3.34,6.649c2.937,0,3.343-4.196,3.343-6.649
			C367.038,123.99,366.632,119.794,363.695,119.794z"/>
		<path d="M479.348,77.746c-0.636,0.773-0.957,1.907-0.972,3.403v1.075c0,2.63,1.289,3.942,3.865,3.942
			c1.331,0,2.335-0.307,3.011-0.924c0.672-0.615,1.007-1.621,1.007-3.018v-7.654l-3.469,1.167
			C481.13,76.303,479.981,76.971,479.348,77.746z"/>
		<path d="M125.978,56.67c-1.232,0-2.129,0.297-2.695,0.886c-0.566,0.592-0.851,1.554-0.851,2.886v22.913
			c0,2.516,1.182,3.772,3.545,3.772c1.247,0,2.149-0.295,2.707-0.886c0.561-0.591,0.838-1.551,0.838-2.886V60.442
			C129.523,57.927,128.342,56.67,125.978,56.67z"/>
		<polygon points="291.816,167.086 296.118,167.086 293.969,159.308 		"/>
		<path d="M0-0.462v202.523h612V-0.462H0z M289.812,118.051h9.444v1.938h-7.498v5.035h6.19v1.937h-6.19v5.971h7.498v1.937h-9.444
			V118.051z M49.833,173.605h-5.172v-1.936h1.569v-17.655h-1.569v-1.937h5.114c3.895,0,6.19,1.904,6.19,10.78
			C55.965,167.604,55.733,173.605,49.833,173.605z M54.628,122.376v1.937h-6.364v10.554h-1.947v-21.528h9.532v1.937h-7.585v7.101
			H54.628z M72.642,158.727h-7.498v5.034h6.19v1.937h-6.19v5.971h7.498v1.936h-9.446V156.79h9.446V158.727z M71.596,135.287
			l-3.865-7.617h-2.82v7.197h-1.947v-16.816h5.144c2.529,0,4.534,1.324,4.534,4.583c0,2.065-1.249,4.099-3.08,4.712l3.72,6.811
			L71.596,135.287z M84.929,173.896c-2.818,0-4.591-2-5.057-5.002l1.744-0.614c0.378,2.066,1.279,3.583,3.312,3.583
			c1.6,0,2.849-0.968,2.849-2.841c0-2.066-1.57-2.582-3.052-3.26c-2.209-1.032-4.302-1.678-4.302-4.841
			c0-2.841,2.063-4.422,4.447-4.422c2.528,0,4.009,1.614,4.621,4.229l-1.861,0.612c-0.349-1.646-1.133-2.808-2.79-2.808
			c-1.25,0-2.47,0.71-2.47,2.227c0,1.583,0.872,2.035,2.034,2.615l3.226,1.581c1.366,0.84,2.094,2.195,2.094,3.938
			C89.726,172.089,87.72,173.896,84.929,173.896z M84.785,135.157c-2.443,0-5.377-1.936-5.377-8.681
			c0-6.713,2.878-8.715,5.377-8.715c2.411,0,5.376,1.938,5.376,8.715C90.162,127.832,90.074,135.157,84.785,135.157z M92.844,81.941
			c0,5.607-1.182,9.522-3.545,11.74c-2.364,2.22-6.619,3.328-12.767,3.328H51.168c-2.866,0-5.296-0.27-7.29-0.81
			c-1.992-0.541-3.608-1.417-4.846-2.631c-1.239-1.212-2.137-2.771-2.697-4.677c-0.559-1.905-0.839-4.22-0.839-6.949V70.117h25.027
			l0.017,8.108c-0.013,1.599,0.243,2.744,0.764,3.443c0.523,0.697,1.341,1.046,2.462,1.046c1.193,0,2.051-0.35,2.575-1.046
			c0.521-0.7,0.788-1.845,0.8-3.443l-0.02-44.412h25.724V81.941z M105.327,158.727h-2.151v12.942h2.151v1.936h-6.22v-1.936h2.121
			v-12.942h-2.121v-1.938h6.22V158.727z M107.274,134.867h-2.413l-5.871-14.169l-0.058,0.065l0.174,4.389v9.715H97.16v-16.816h2.412
			l5.871,14.168l0.059-0.063l-0.174-4.358v-9.747h1.947V134.867z M119.997,171.863c0.989,0,1.977-0.291,2.82-0.872v-4.421h-3.634
			v-1.937h5.581v7.423c-1.25,1.099-3.11,1.839-4.65,1.839c-4.447,0-5.725-4.582-5.725-8.714c0-4.067,1.337-8.683,5.666-8.683
			c2.035,0,3.809,1.324,4.854,3.228l-1.657,1.194c-0.725-1.356-1.831-2.389-3.312-2.389c-2.993,0-3.517,4.164-3.517,6.713
			C116.423,167.86,116.946,171.863,119.997,171.863z M114.534,119.989v-1.938h10.23v1.938h-4.098v14.878h-1.948v-14.878H114.534z
			 M142.138,173.605h-2.412l-5.871-14.169l-0.059,0.065l0.176,4.389v9.715h-1.948V156.79h2.413l5.87,14.169l0.059-0.064
			l-0.174-4.357v-9.749h1.947V173.605z M142.37,119.989h-7.498v5.035h6.19v1.937h-6.19v5.971h7.498v1.937h-9.444v-16.816h9.444
			V119.989z M138.482,96.613h-24.987c-3.132,0-5.777-0.192-7.941-0.575c-2.162-0.385-3.897-1.014-5.205-1.886
			c-1.308-0.874-2.258-2.031-2.847-3.47c-0.594-1.44-0.888-3.215-0.888-5.327V58.367c0-2.112,0.294-3.888,0.888-5.327
			c0.589-1.44,1.539-2.598,2.847-3.47c1.308-0.874,3.043-1.503,5.205-1.886c2.164-0.384,4.809-0.575,7.941-0.575h24.987
			c3.131,0,5.775,0.191,7.93,0.575c2.157,0.383,3.905,1.028,5.243,1.933c1.34,0.906,2.305,2.079,2.896,3.517
			c0.591,1.44,0.887,3.184,0.887,5.233v26.988c0,2.112-0.295,3.874-0.887,5.29c-0.591,1.413-1.555,2.57-2.896,3.47
			c-1.337,0.898-3.085,1.539-5.243,1.924C144.257,96.421,141.614,96.613,138.482,96.613z M159.569,134.867h-2.412l-5.871-14.169
			l-0.058,0.065l0.175,4.389v9.715h-1.948v-16.816h2.413l5.871,14.168l0.058-0.063l-0.174-4.358v-9.747h1.947V134.867z
			 M175.548,154.014h-2.646v17.655h2.646v1.936h-7.207v-1.936h2.614v-17.655h-2.614v-1.937h7.207V154.014z M171.742,134.867h-5.057
			v-1.937h1.567v-12.942h-1.567v-1.938h5.057c4.301,0,6.248,1.969,6.248,8.198C177.989,131.51,177.175,134.867,171.742,134.867z
			 M195.479,173.605h-9.882V156.79h1.948v14.88h7.934V173.605z M200.763,113.339l1.947-0.42l0.931,16.17h0.059l2.818-11.329h0.582
			l2.818,11.329h0.059l0.929-16.17l1.948,0.42l-1.948,21.947h-0.843l-3.225-13.007h-0.058l-3.226,13.007h-0.844L200.763,113.339z
			 M212.912,173.605h-9.881V156.79h1.947v14.88h7.935V173.605z M217.446,96.538h-25.556v-34.38c0-2.513-1.187-3.772-3.563-3.772
			c-1.232,0-2.13,0.296-2.698,0.888c-0.564,0.591-0.847,1.553-0.847,2.884v34.38h-25.573V33.813h25.573v13.202l14.898,0.094
			c5.871,0,10.3,1.223,13.285,3.667c2.987,2.444,4.48,6.006,4.48,10.684V96.538z M229.006,169.282c0,2.227-1.423,4.614-4.765,4.614
			c-3.284,0-4.738-2.292-4.738-4.744V156.79h1.949v11.458c0,2.453,0.638,3.615,2.644,3.615c2.441,0,2.964-1.195,2.964-3.615V156.79
			h1.947V169.282z M229.529,119.989h-7.497v5.035h6.189v1.937h-6.189v5.971h7.497v1.937h-9.444v-16.816h9.444V119.989z
			 M241.817,173.896c-2.819,0-4.591-2-5.057-5.002l1.744-0.614c0.379,2.066,1.28,3.583,3.313,3.583c1.599,0,2.849-0.968,2.849-2.841
			c0-2.066-1.569-2.582-3.052-3.26c-2.208-1.032-4.301-1.678-4.301-4.841c0-2.841,2.062-4.422,4.446-4.422
			c2.528,0,4.011,1.614,4.621,4.229l-1.859,0.612c-0.351-1.646-1.134-2.808-2.79-2.808c-1.25,0-2.471,0.71-2.471,2.227
			c0,1.583,0.872,2.035,2.034,2.615l3.227,1.581c1.366,0.84,2.092,2.195,2.092,3.938
			C246.613,172.089,244.607,173.896,241.817,173.896z M242.66,134.867h-6.161v-1.937h1.569v-12.942h-1.569v-1.938h4.767
			c3.836,0,5.492,1.613,5.492,4.487c0,1.452-0.551,2.744-1.714,3.454c1.657,0.58,2.587,2.163,2.587,4.067
			C247.63,133.093,245.828,134.867,242.66,134.867z M250.317,58.179c-1.234,0-2.131,0.296-2.697,0.886
			c-0.565,0.592-0.848,1.554-0.848,2.886v34.587h-25.555V47.052h40.603c5.758-0.202,10.131,0.921,13.117,3.366
			c2.987,2.446,4.479,6.006,4.479,10.683v35.437h-25.554V61.951C253.862,59.436,252.679,58.179,250.317,58.179z M264.219,158.727
			h-4.098v14.878h-1.948v-14.878h-4.185v-1.938h10.23V158.727z M280.779,174.025l-3.866-7.617h-2.819v7.197h-1.946V156.79h5.144
			c2.528,0,4.533,1.324,4.533,4.583c0,2.065-1.249,4.099-3.081,4.712l3.72,6.812L280.779,174.025z M276.449,134.867h-5.172v-1.937
			h1.569v-17.655h-1.569v-1.937h5.114c3.895,0,6.19,1.904,6.19,10.78C282.58,128.864,282.349,134.867,276.449,134.867z
			 M298.066,174.025l-1.395-5.003h-5.377l-1.425,5.003l-1.917-0.774l4.767-16.461h2.499l4.766,16.461L298.066,174.025z
			 M316.516,158.727h-4.099v14.878h-1.947v-14.878h-4.184v-1.938h10.23V158.727z M311.574,135.287h-0.349l-5.812-16.88l1.859-0.774
			l4.126,12.33l4.128-12.33l1.859,0.774L311.574,135.287z M331.941,158.727h-2.15v12.942h2.15v1.936h-6.219v-1.936h2.121v-12.942
			h-2.121v-1.938h6.219V158.727z M334.121,119.989h-7.499v5.035h6.191v1.937h-6.191v5.971h7.499v1.937h-9.445v-16.816h9.445V119.989
			z M323.508,62.006v34.531h-25.479V33.813h36.19l7.921,26.025l7.881-26.025h36.303v62.724h-25.532V62.006l-10.58,34.531h-16.068
			L323.508,62.006z M346.264,173.896c-2.44,0-5.376-1.936-5.376-8.681c0-6.713,2.876-8.715,5.376-8.715
			c2.411,0,5.376,1.938,5.376,8.715C351.64,166.57,351.552,173.896,346.264,173.896z M352.367,134.867h-9.883v-16.816h1.948v14.879
			h7.935V134.867z M368.753,173.605h-2.413l-5.87-14.169l-0.058,0.065l0.174,4.389v9.715h-1.945V156.79h2.411l5.868,14.169
			l0.061-0.064l-0.175-4.357v-9.749h1.947V173.605z M363.695,135.157c-2.441,0-5.376-1.936-5.376-8.681
			c0-6.713,2.876-8.715,5.376-8.715c2.413,0,5.376,1.938,5.376,8.715C369.071,127.832,368.985,135.157,363.695,135.157z
			 M382.317,127.638h-3.251v7.229h-1.95v-16.816h4.707c3.52,0,4.884,2.131,4.884,4.583
			C386.707,126.186,384.444,127.638,382.317,127.638z M402.397,134.867l-0.379-13.621h-0.059l-3.404,8.875l-3.396-8.875h-0.062
			l-0.379,13.621h-2.061l0.61-16.816h2.559l2.728,7.294l2.736-7.294h2.557l0.609,16.816H402.397z M421.282,119.989h-7.501v5.035
			h6.193v1.937h-6.193v5.971h7.501v1.937h-9.446v-16.816h9.446V119.989z M438.481,134.867h-2.412l-5.869-14.169l-0.061,0.065
			l0.177,4.389v9.715h-1.949v-16.816h2.41l5.874,14.168l0.058-0.063l-0.174-4.358v-9.747h1.946V134.867z M439.997,96.114
			c-2.162,0.382-4.814,0.575-7.959,0.575h-25.025c-3.144,0-5.796-0.192-7.958-0.575c-2.162-0.384-3.897-1.013-5.215-1.886
			c-1.312-0.875-2.268-2.03-2.855-3.471c-0.593-1.44-0.889-3.215-0.889-5.326V58.443c0-2.113,0.296-3.889,0.889-5.327
			c0.588-1.44,1.544-2.598,2.855-3.47c1.317-0.875,3.053-1.503,5.215-1.886c2.162-0.385,4.814-0.575,7.958-0.575h25.025
			c3.145,0,5.797,0.19,7.959,0.575c2.161,0.382,3.916,1.023,5.252,1.923c1.339,0.898,2.306,2.067,2.895,3.508
			c0.593,1.438,0.887,3.19,0.887,5.252v14.878h-33.058V83.43c0,2.517,1.188,3.772,3.562,3.772c1.23,0,2.133-0.294,2.695-0.885
			c0.567-0.591,0.849-1.552,0.849-2.887v-6.336h25.951v8.338c0,2.111-0.294,3.874-0.887,5.289c-0.589,1.415-1.556,2.571-2.895,3.471
			C443.913,95.088,442.158,95.73,439.997,96.114z M455.973,119.989h-4.097v14.878h-1.95v-14.878h-4.186v-1.938h10.232V119.989z
			 M511.436,96.538h-40.564c-5.76,0.101-10.117-1.047-13.08-3.441c-2.96-2.396-4.623-6.869-4.989-13.419
			c0.856-9.769,6.806-14.797,17.843-15.086h15.426l0.021-4.338c0.009-1.497-0.295-2.527-0.914-3.093
			c-0.624-0.566-1.604-0.848-2.936-0.848c-1.346,0-2.31,0.308-2.894,0.923c-0.585,0.617-0.882,1.622-0.896,3.018v1.621h-24.8
			l0.022-3.545c0-2.124,0.292-3.907,0.883-5.347c0.593-1.439,1.554-2.598,2.888-3.479c1.332-0.88,3.079-1.512,5.241-1.895
			c2.161-0.385,4.815-0.575,7.959-0.575h23.8c3.145,0,5.799,0.19,7.96,0.575c2.162,0.383,3.912,1.027,5.259,1.933
			c1.346,0.906,2.314,2.082,2.895,3.527c0.589,1.446,0.885,3.199,0.898,5.261L511.436,96.538z M544.928,56.746
			c-1.029,0-1.881,0.258-2.545,0.774c-0.668,0.515-1,1.181-1,1.996c0.014,0.518,0.094,0.98,0.246,1.386
			c0.15,0.41,0.468,0.796,0.952,1.16c0.483,0.365,1.188,0.713,2.112,1.048c0.923,0.332,2.156,0.675,3.705,1.026l11.128,2.792
			c5.769,1.483,9.636,3.101,11.598,4.848c2.012,1.695,3.018,4.268,3.018,7.712v5.942c-0.015,2.111-0.317,3.874-0.906,5.289
			c-0.591,1.415-1.555,2.571-2.895,3.471c-1.339,0.897-3.089,1.54-5.252,1.924c-2.165,0.382-4.813,0.575-7.958,0.575h-25.024
			c-3.145,0-5.797-0.192-7.959-0.575c-2.162-0.384-3.901-1.013-5.217-1.886c-1.313-0.875-2.265-2.03-2.858-3.471
			c-0.588-1.44-0.876-3.215-0.865-5.326l-0.019-6.092h25.876v4.091c0,2.517,1.188,3.772,3.564,3.772
			c1.229,0,2.132-0.294,2.705-0.885c0.57-0.591,0.853-1.552,0.839-2.887v-1.318c0-2.212-1.976-3.829-5.921-4.847l-14.863-3.64
			c-4.623-1.181-7.739-2.492-9.334-3.932c-1.599-1.439-2.389-3.648-2.378-6.629l-0.02-4.619c0-2.113,0.301-3.889,0.899-5.327
			c0.596-1.44,1.561-2.598,2.891-3.47c1.336-0.875,3.084-1.503,5.245-1.886c2.162-0.385,4.814-0.575,7.959-0.575h24.479
			c3.145,0,5.793,0.19,7.958,0.575c2.163,0.382,3.913,1.023,5.252,1.923c1.34,0.898,2.304,2.067,2.895,3.508
			c0.589,1.438,0.889,3.19,0.889,5.252l0.018,3.319h-25.647v-1.245C548.479,58.003,547.292,56.746,544.928,56.746z"/>
		<path d="M172.205,119.989h-2.004v12.942h2.063c2.558,0,3.69-1.614,3.69-6.455C175.955,121.311,174.619,119.989,172.205,119.989z"
			/>
		<path d="M423.382,60.518c0-2.779-1.28-4.168-3.847-4.168c-1.347,0-2.314,0.324-2.902,0.972c-0.592,0.648-0.888,1.712-0.888,3.197
			l0.018,3.943h7.638L423.382,60.518z"/>
		<path d="M50.241,154.014h-2.063v17.655h1.598c2.354,0,4.157-0.678,4.157-8.812C53.932,154.66,51.955,154.014,50.241,154.014z"/>
		<path d="M346.264,158.533c-2.935,0-3.342,4.196-3.342,6.682c0,2.453,0.407,6.649,3.342,6.649s3.343-4.196,3.343-6.649
			C349.606,162.729,349.198,158.533,346.264,158.533z"/>
	</g>
</g>
<g id="Layer_3" style="display:none;">
	<rect x="6" y="-165.6" style="display:inline;fill:#FBF394;" width="358.334" height="122"/>
</g>
<g id="Layer_1" style="display:none;">
	<g style="display:inline;opacity:0.7;">
		<path style="fill:#8AC9EE;" d="M57.802-139.82v26.042c0,3.034-0.64,5.152-1.918,6.353c-1.279,1.201-3.582,1.801-6.908,1.801H35.25
			c-1.551,0-2.866-0.146-3.945-0.438c-1.078-0.292-1.952-0.767-2.622-1.424c-0.67-0.656-1.156-1.5-1.459-2.531
			c-0.302-1.03-0.454-2.284-0.454-3.76v-6.398h13.542l0.009,4.387c-0.007,0.865,0.131,1.485,0.413,1.863
			c0.283,0.377,0.726,0.566,1.333,0.566c0.646,0,1.11-0.189,1.393-0.566c0.282-0.378,0.426-0.998,0.433-1.863l-0.011-24.032H57.802z
			"/>
		<path style="fill:#8AC9EE;" d="M59.843-126.533c0-1.143,0.159-2.104,0.48-2.883c0.319-0.779,0.833-1.405,1.541-1.877
			c0.708-0.473,1.646-0.813,2.816-1.021c1.17-0.208,2.602-0.311,4.297-0.311h13.521c1.694,0,3.125,0.103,4.291,0.311
			c1.167,0.207,2.113,0.556,2.837,1.046c0.725,0.49,1.247,1.125,1.567,1.903c0.32,0.779,0.48,1.723,0.48,2.832v14.604
			c0,1.143-0.16,2.096-0.48,2.862c-0.32,0.765-0.842,1.391-1.567,1.877c-0.724,0.486-1.669,0.833-2.837,1.041
			c-1.166,0.207-2.597,0.311-4.291,0.311H68.977c-1.695,0-3.126-0.104-4.297-0.311c-1.17-0.208-2.109-0.548-2.816-1.021
			c-0.708-0.473-1.222-1.099-1.541-1.877c-0.321-0.78-0.48-1.74-0.48-2.883V-126.533z M73.812-125.411v12.398
			c0,1.361,0.64,2.041,1.918,2.041c0.675,0,1.163-0.16,1.465-0.479c0.303-0.32,0.454-0.839,0.454-1.562v-12.398
			c0-1.361-0.639-2.041-1.918-2.041c-0.667,0-1.152,0.161-1.458,0.479C73.966-126.652,73.812-126.132,73.812-125.411z"/>
		<path style="fill:#8AC9EE;" d="M93.713-105.879v-33.941h13.838v7.144l8.062,0.051c3.177,0,5.574,0.661,7.189,1.984
			c1.617,1.323,2.424,3.25,2.424,5.781v18.98h-13.828v-18.604c0-1.36-0.643-2.041-1.928-2.041c-0.667,0-1.153,0.16-1.46,0.48
			c-0.305,0.32-0.458,0.841-0.458,1.561v18.604H93.713z"/>
		<path style="fill:#8AC9EE;" d="M127.266-105.879v-26.777h21.971c3.116-0.109,5.482,0.499,7.098,1.821
			c1.616,1.324,2.424,3.25,2.424,5.781v19.175h-13.827v-18.715c0-1.361-0.64-2.041-1.918-2.041c-0.667,0-1.153,0.16-1.459,0.479
			c-0.306,0.321-0.459,0.841-0.459,1.562v18.715H127.266z"/>
		<path style="fill:#8AC9EE;" d="M188.373-105.879l-5.755-18.685v18.685H168.83v-33.941h19.583l4.286,14.083l4.265-14.083h19.645
			v33.941h-13.817v-18.685l-5.725,18.685H188.373z"/>
		<path style="fill:#8AC9EE;" d="M250.539-111.889c0,1.143-0.159,2.096-0.479,2.862c-0.32,0.765-0.842,1.391-1.567,1.878
			c-0.724,0.486-1.671,0.833-2.842,1.041c-1.17,0.207-2.605,0.311-4.306,0.311h-13.542c-1.701,0-3.136-0.104-4.305-0.311
			c-1.171-0.208-2.111-0.548-2.822-1.021c-0.71-0.474-1.227-1.099-1.545-1.878c-0.321-0.779-0.48-1.74-0.48-2.882v-14.604
			c0-1.143,0.159-2.104,0.48-2.883c0.319-0.779,0.835-1.405,1.545-1.877c0.711-0.474,1.651-0.813,2.822-1.021
			c1.169-0.208,2.604-0.311,4.305-0.311h13.542c1.701,0,3.136,0.103,4.306,0.311c1.17,0.207,2.118,0.554,2.842,1.041
			c0.725,0.486,1.247,1.119,1.567,1.898c0.32,0.778,0.479,1.726,0.479,2.842v8.051h-17.888v5.47c0,1.362,0.643,2.041,1.928,2.041
			c0.667,0,1.153-0.159,1.459-0.479s0.459-0.84,0.459-1.562v-3.429h14.042V-111.889z M232.528-125.37l0.01,2.133h4.133l-0.011-2.133
			c0-1.504-0.694-2.256-2.082-2.256c-0.728,0-1.252,0.176-1.571,0.526C232.688-126.749,232.528-126.173,232.528-125.37z"/>
		<path style="fill:#8AC9EE;" d="M270.582-123.166l0.01-2.347c0.007-0.81-0.157-1.368-0.494-1.674s-0.866-0.458-1.587-0.458
			c-0.729,0-1.25,0.166-1.566,0.5s-0.478,0.877-0.484,1.633v0.877h-13.42l0.011-1.918c0-1.149,0.159-2.114,0.479-2.893
			c0.32-0.779,0.84-1.406,1.562-1.883c0.721-0.476,1.667-0.818,2.837-1.025c1.17-0.208,2.605-0.311,4.306-0.311h12.878
			c1.701,0,3.137,0.103,4.307,0.311c1.17,0.207,2.118,0.556,2.847,1.046c0.728,0.49,1.251,1.126,1.566,1.909
			c0.317,0.783,0.479,1.731,0.485,2.847l-0.011,20.675h-21.95c-3.116,0.055-5.475-0.566-7.077-1.862
			c-1.602-1.296-2.502-3.717-2.699-7.261c0.463-5.286,3.681-8.007,9.654-8.164H270.582z M270.685-113.625v-4.142l-1.878,0.631
			c-0.897,0.307-1.519,0.669-1.862,1.088c-0.344,0.418-0.519,1.032-0.525,1.841v0.582c0,1.423,0.696,2.133,2.092,2.133
			c0.721,0,1.264-0.167,1.628-0.5C270.503-112.324,270.685-112.869,270.685-113.625z"/>
		<path style="fill:#8AC9EE;" d="M318.238-111.889c-0.007,1.143-0.171,2.096-0.49,2.862c-0.32,0.765-0.842,1.391-1.565,1.878
			c-0.726,0.486-1.673,0.833-2.843,1.041c-1.171,0.207-2.605,0.311-4.306,0.311h-13.542c-1.701,0-3.137-0.104-4.307-0.311
			c-1.17-0.208-2.111-0.548-2.821-1.021c-0.712-0.474-1.227-1.099-1.547-1.878c-0.319-0.779-0.476-1.74-0.469-2.882l-0.01-3.297
			h14.001v2.214c0,1.362,0.643,2.041,1.928,2.041c0.667,0,1.154-0.159,1.465-0.479c0.309-0.32,0.461-0.84,0.454-1.562v-0.713
			c0-1.197-1.068-2.072-3.204-2.623l-8.042-1.97c-2.503-0.639-4.188-1.348-5.051-2.127c-0.865-0.779-1.294-1.974-1.287-3.587
			l-0.01-2.5c0-1.143,0.162-2.104,0.485-2.883c0.322-0.779,0.845-1.405,1.565-1.877c0.722-0.474,1.667-0.813,2.838-1.021
			c1.17-0.208,2.605-0.311,4.306-0.311h13.247c1.7,0,3.135,0.103,4.306,0.311c1.17,0.207,2.117,0.554,2.843,1.041
			c0.724,0.486,1.245,1.119,1.565,1.898c0.319,0.778,0.48,1.726,0.48,2.842l0.01,1.796h-13.879v-0.673
			c-0.007-1.361-0.649-2.041-1.929-2.041c-0.558,0-1.018,0.14-1.378,0.419c-0.36,0.279-0.54,0.639-0.54,1.081
			c0.007,0.28,0.051,0.53,0.132,0.75c0.082,0.222,0.254,0.431,0.517,0.628c0.261,0.197,0.642,0.386,1.143,0.567
			c0.5,0.18,1.168,0.365,2.005,0.556l6.021,1.51c3.122,0.803,5.214,1.678,6.275,2.623c1.088,0.917,1.633,2.31,1.633,4.173V-111.889z
			"/>
		<g>
			<path style="fill:#8AC9EE;" d="M32.625-96.787h5.158v1.048h-4.104v3.842h3.444v1.048h-3.444v5.711h-1.053V-96.787z"/>
			<path style="fill:#8AC9EE;" d="M41.633-94.237h2.783c1.369,0,2.453,0.716,2.453,2.48c0,1.118-0.676,2.218-1.667,2.55l2.013,3.686
				l-0.912,0.611l-2.092-4.122h-1.525v3.895h-1.054V-94.237z M44.071-90.081c1.021,0,1.698-0.646,1.698-1.677
				c0-0.821-0.44-1.432-1.384-1.432h-1.698v3.108H44.071z"/>
			<path style="fill:#8AC9EE;" d="M56.35-89.679c0,0.733-0.047,4.698-2.909,4.698c-1.322,0-2.91-1.048-2.91-4.698
				c0-3.633,1.557-4.716,2.91-4.716C54.746-94.395,56.35-93.346,56.35-89.679z M51.632-89.679c0,1.327,0.22,3.598,1.809,3.598
				c1.588,0,1.808-2.271,1.808-3.598c0-1.345-0.22-3.616-1.808-3.616C51.852-93.294,51.632-91.024,51.632-89.679z"/>
			<path style="fill:#8AC9EE;" d="M60.137-94.237h1.305l3.177,7.667l0.032-0.035l-0.094-2.358v-5.274h1.054v9.099h-1.306
				l-3.177-7.667l-0.031,0.035l0.094,2.375v5.257h-1.054V-94.237z"/>
			<path style="fill:#8AC9EE;" d="M71.803-93.189h-2.265v-1.048h5.536v1.048h-2.217v8.051h-1.054V-93.189z"/>
			<path style="fill:#8AC9EE;" d="M79.49-94.237h5.11v1.048h-4.057v2.724h3.35v1.048h-3.35v3.231h4.057v1.048h-5.11V-94.237z"/>
			<path style="fill:#8AC9EE;" d="M88.435-94.237h1.305l3.177,7.667l0.031-0.035l-0.094-2.358v-5.274h1.054v9.099h-1.305
				l-3.177-7.667l-0.032,0.035l0.095,2.375v5.257h-1.054V-94.237z"/>
			<path style="fill:#8AC9EE;" d="M97.758-94.237h2.736c2.327,0,3.381,1.065,3.381,4.436c0,2.847-0.44,4.663-3.381,4.663h-2.736
				v-1.048h0.849v-7.003h-0.849V-94.237z M99.661-86.186h1.117c1.384,0,1.997-0.873,1.997-3.493c0-2.795-0.723-3.51-2.029-3.51
				h-1.084V-86.186z"/>
			<path style="fill:#8AC9EE;" d="M122.74-96.787l-1.054,11.876h-0.456l-1.746-7.038h-0.031l-1.746,7.038h-0.457l-1.053-11.876
				l1.053-0.227l0.504,8.75h0.031l1.525-6.13h0.315l1.525,6.13h0.032l0.503-8.75L122.74-96.787z"/>
			<path style="fill:#8AC9EE;" d="M126.653-94.237h5.11v1.048h-4.057v2.724h3.349v1.048h-3.349v3.231h4.057v1.048h-5.11V-94.237z"/>
			<path style="fill:#8AC9EE;" d="M135.536-85.138v-1.048h0.849v-7.003h-0.849v-1.048h2.579c2.076,0,2.972,0.873,2.972,2.428
				c0,0.786-0.298,1.484-0.928,1.869c0.896,0.314,1.4,1.17,1.4,2.201c0,1.642-0.975,2.602-2.689,2.602H135.536z M138.618-90.342
				c0.912,0,1.368-0.646,1.368-1.467c0-1.083-0.692-1.379-1.431-1.379h-1.116v2.847H138.618z M138.665-86.186
				c0.928,0,1.793-0.227,1.793-1.467c0-0.908-0.535-1.642-1.542-1.642h-1.478v3.109H138.665z"/>
			<path style="fill:#8AC9EE;" d="M154.354-95.739v-1.048h2.767c2.107,0,3.35,1.03,3.35,5.833c0,2.568-0.125,5.816-3.318,5.816
				h-2.799v-1.048h0.849v-9.553H154.354z M156.257-86.186h0.864c1.274,0,2.249-0.367,2.249-4.768c0-4.436-1.069-4.785-1.997-4.785
				h-1.117V-86.186z"/>
			<path style="fill:#8AC9EE;" d="M164.384-94.237h5.111v1.048h-4.057v2.724h3.35v1.048h-3.35v3.231h4.057v1.048h-5.111V-94.237z"/>
			<path style="fill:#8AC9EE;" d="M178.299-94.464l1.006,0.419l-3.145,9.134h-0.189l-3.145-9.134l1.006-0.419l2.233,6.672
				L178.299-94.464z"/>
			<path style="fill:#8AC9EE;" d="M183.25-94.237h5.11v1.048h-4.057v2.724h3.35v1.048h-3.35v3.231h4.057v1.048h-5.11V-94.237z"/>
			<path style="fill:#8AC9EE;" d="M192.886-94.237h1.053v8.051h4.294v1.048h-5.347V-94.237z"/>
			<path style="fill:#8AC9EE;" d="M207.273-89.679c0,0.733-0.048,4.698-2.91,4.698c-1.321,0-2.909-1.048-2.909-4.698
				c0-3.633,1.557-4.716,2.909-4.716C205.668-94.395,207.273-93.346,207.273-89.679z M202.555-89.679
				c0,1.327,0.22,3.598,1.808,3.598c1.588,0,1.809-2.271,1.809-3.598c0-1.345-0.22-3.616-1.809-3.616
				C202.775-93.294,202.555-91.024,202.555-89.679z"/>
			<path style="fill:#8AC9EE;" d="M212.68-85.138h-1.054v-9.099h2.547c1.905,0,2.644,1.153,2.644,2.48
				c0,1.921-1.226,2.707-2.375,2.707h-1.761V-85.138z M214.125-90.098c1.038,0,1.589-0.524,1.589-1.572
				c0-1.24-0.724-1.519-1.589-1.519h-1.446v3.091H214.125z"/>
			<path style="fill:#8AC9EE;" d="M221.39-92.508h-0.033l-0.205,7.37h-1.115l0.329-9.099h1.385l1.478,3.947l1.479-3.947h1.384
				l0.33,9.099h-1.116l-0.205-7.37h-0.031l-1.841,4.803L221.39-92.508z"/>
			<path style="fill:#8AC9EE;" d="M230.413-94.237h5.111v1.048h-4.059v2.724h3.352v1.048h-3.352v3.231h4.059v1.048h-5.111V-94.237z"
				/>
			<path style="fill:#8AC9EE;" d="M239.358-94.237h1.305l3.178,7.667l0.031-0.035l-0.094-2.358v-5.274h1.053v9.099h-1.305
				l-3.176-7.667l-0.033,0.035l0.096,2.375v5.257h-1.055V-94.237z"/>
			<path style="fill:#8AC9EE;" d="M251.024-93.189h-2.266v-1.048h5.537v1.048h-2.217v8.051h-1.055V-93.189z"/>
			<path style="fill:#8AC9EE;" d="M31.729-74.777v-1.048h2.768c2.107,0,3.35,1.03,3.35,5.833c0,2.568-0.126,5.816-3.318,5.816
				h-2.799v-1.047h0.849v-9.554H31.729z M33.632-65.224h0.865c1.273,0,2.249-0.367,2.249-4.769c0-4.436-1.07-4.785-1.997-4.785
				h-1.117V-65.224z"/>
			<path style="fill:#8AC9EE;" d="M41.759-73.275h5.111v1.048h-4.057v2.724h3.35v1.048h-3.35v3.231h4.057v1.047h-5.111V-73.275z"/>
			<path style="fill:#8AC9EE;" d="M51.727-67.058c0.205,1.118,0.692,1.939,1.792,1.939c0.865,0,1.542-0.524,1.542-1.537
				c0-1.118-0.85-1.397-1.651-1.764c-1.195-0.559-2.328-0.908-2.328-2.62c0-1.537,1.117-2.393,2.406-2.393
				c1.368,0,2.17,0.874,2.5,2.288l-1.007,0.332c-0.188-0.891-0.613-1.52-1.51-1.52c-0.676,0-1.336,0.384-1.336,1.205
				c0,0.856,0.472,1.101,1.101,1.415l1.746,0.855c0.739,0.455,1.133,1.188,1.133,2.131c0,1.729-1.085,2.707-2.595,2.707
				c-1.525,0-2.484-1.083-2.736-2.707L51.727-67.058z"/>
			<path style="fill:#8AC9EE;" d="M61.19-65.224h1.148v-7.003H61.19v-1.048h3.366v1.048h-1.164v7.003h1.164v1.047H61.19V-65.224z"/>
			<path style="fill:#8AC9EE;" d="M75.074-65.015c-0.676,0.594-1.683,0.996-2.516,0.996c-2.406,0-3.098-2.48-3.098-4.715
				c0-2.201,0.724-4.698,3.066-4.698c1.101,0,2.061,0.716,2.626,1.747l-0.896,0.646c-0.393-0.733-0.991-1.292-1.792-1.292
				c-1.62,0-1.903,2.253-1.903,3.633c0,1.415,0.283,3.581,1.934,3.581c0.535,0,1.069-0.157,1.525-0.472v-2.393h-1.966v-1.048h3.02
				V-65.015z"/>
			<path style="fill:#8AC9EE;" d="M79.002-73.275h1.305l3.176,7.667l0.032-0.035L83.421-68v-5.275h1.054v9.099H83.17l-3.177-7.667
				l-0.032,0.035l0.095,2.375v5.257h-1.054V-73.275z"/>
			<path style="fill:#8AC9EE;" d="M100.069-74.777h-1.415v-1.048h3.9v1.048h-1.432v9.554h1.432v1.047h-3.9v-1.047h1.415V-74.777z"/>
			<path style="fill:#8AC9EE;" d="M107.992-73.275h1.054v8.052h4.293v1.047h-5.347V-73.275z"/>
			<path style="fill:#8AC9EE;" d="M117.425-73.275h1.054v8.052h4.293v1.047h-5.347V-73.275z"/>
			<path style="fill:#8AC9EE;" d="M127.393-73.275v6.2c0,1.327,0.346,1.956,1.431,1.956c1.321,0,1.604-0.646,1.604-1.956v-6.2h1.054
				v6.759c0,1.205-0.771,2.497-2.579,2.497c-1.777,0-2.564-1.24-2.564-2.567v-6.689H127.393z"/>
			<path style="fill:#8AC9EE;" d="M136.62-67.058c0.205,1.118,0.692,1.939,1.793,1.939c0.865,0,1.542-0.524,1.542-1.537
				c0-1.118-0.849-1.397-1.651-1.764c-1.195-0.559-2.327-0.908-2.327-2.62c0-1.537,1.116-2.393,2.406-2.393
				c1.368,0,2.17,0.874,2.5,2.288l-1.006,0.332c-0.189-0.891-0.613-1.52-1.51-1.52c-0.676,0-1.337,0.384-1.337,1.205
				c0,0.856,0.472,1.101,1.101,1.415l1.746,0.855c0.739,0.455,1.132,1.188,1.132,2.131c0,1.729-1.085,2.707-2.595,2.707
				c-1.525,0-2.484-1.083-2.736-2.707L136.62-67.058z"/>
			<path style="fill:#8AC9EE;" d="M147.264-72.227H145v-1.048h5.536v1.048h-2.217v8.051h-1.054V-72.227z"/>
			<path style="fill:#8AC9EE;" d="M154.826-73.275h2.783c1.368,0,2.453,0.716,2.453,2.48c0,1.118-0.676,2.218-1.667,2.55
				l2.013,3.686l-0.912,0.611l-2.092-4.122h-1.525v3.895h-1.053V-73.275z M157.263-69.119c1.022,0,1.698-0.646,1.698-1.677
				c0-0.821-0.44-1.432-1.384-1.432h-1.699v3.108H157.263z"/>
			<path style="fill:#8AC9EE;" d="M165.186-66.656l-0.771,2.707l-1.038-0.419l2.579-8.907h1.353l2.579,8.907l-1.038,0.419
				l-0.755-2.707H165.186z M166.633-71.913l-1.164,4.209h2.328L166.633-71.913z"/>
			<path style="fill:#8AC9EE;" d="M175.562-72.227h-2.264v-1.048h5.535v1.048h-2.217v8.051h-1.054V-72.227z"/>
			<path style="fill:#8AC9EE;" d="M183.815-65.224h1.148v-7.003h-1.148v-1.048h3.365v1.048h-1.164v7.003h1.164v1.047h-3.365V-65.224
				z"/>
			<path style="fill:#8AC9EE;" d="M197.84-68.717c0,0.733-0.047,4.698-2.909,4.698c-1.321,0-2.909-1.048-2.909-4.698
				c0-3.633,1.557-4.716,2.909-4.716C196.236-73.433,197.84-72.384,197.84-68.717z M193.122-68.717c0,1.327,0.22,3.598,1.809,3.598
				s1.809-2.271,1.809-3.598c0-1.345-0.22-3.616-1.809-3.616S193.122-70.062,193.122-68.717z"/>
			<path style="fill:#8AC9EE;" d="M201.627-73.275h1.305l3.176,7.667l0.032-0.035L206.046-68v-5.275h1.053v9.099h-1.305
				l-3.176-7.667l-0.032,0.035l0.095,2.375v5.257h-1.053V-73.275z"/>
		</g>
	</g>
	<g style="display:inline;">
		<path style="fill:#1E60AD;" d="M60.418-143.78v26.042c0,3.034-0.64,5.152-1.918,6.353c-1.279,1.201-3.582,1.801-6.908,1.801
			H37.866c-1.551,0-2.866-0.146-3.945-0.438c-1.078-0.292-1.952-0.767-2.622-1.424c-0.67-0.656-1.156-1.5-1.459-2.531
			c-0.302-1.03-0.454-2.284-0.454-3.76v-6.398h13.542l0.009,4.387c-0.007,0.865,0.131,1.485,0.413,1.863
			c0.283,0.377,0.726,0.566,1.333,0.566c0.646,0,1.11-0.189,1.393-0.566c0.282-0.378,0.426-0.998,0.433-1.863l-0.011-24.032H60.418z
			"/>
		<path style="fill:#1E60AD;" d="M62.459-130.494c0-1.143,0.159-2.104,0.48-2.883c0.319-0.779,0.833-1.405,1.541-1.877
			c0.708-0.473,1.646-0.813,2.816-1.021c1.17-0.208,2.602-0.311,4.297-0.311h13.521c1.694,0,3.125,0.103,4.291,0.311
			c1.167,0.207,2.113,0.556,2.837,1.046c0.725,0.49,1.247,1.125,1.567,1.903c0.32,0.779,0.48,1.723,0.48,2.832v14.604
			c0,1.143-0.16,2.096-0.48,2.862c-0.32,0.765-0.842,1.391-1.567,1.877c-0.724,0.486-1.669,0.833-2.837,1.041
			c-1.166,0.207-2.597,0.311-4.291,0.311H71.593c-1.695,0-3.126-0.104-4.297-0.311c-1.17-0.208-2.109-0.548-2.816-1.021
			c-0.708-0.473-1.222-1.099-1.541-1.877c-0.321-0.78-0.48-1.74-0.48-2.883V-130.494z M76.429-129.371v12.398
			c0,1.361,0.64,2.041,1.918,2.041c0.675,0,1.163-0.16,1.465-0.479c0.303-0.32,0.454-0.839,0.454-1.562v-12.398
			c0-1.361-0.639-2.041-1.918-2.041c-0.667,0-1.152,0.161-1.458,0.479C76.583-130.612,76.429-130.092,76.429-129.371z"/>
		<path style="fill:#1E60AD;" d="M96.329-109.839v-33.941h13.838v7.144l8.062,0.051c3.177,0,5.574,0.661,7.189,1.984
			c1.617,1.323,2.424,3.25,2.424,5.781v18.98h-13.828v-18.604c0-1.36-0.643-2.041-1.928-2.041c-0.667,0-1.153,0.16-1.46,0.48
			c-0.305,0.32-0.458,0.841-0.458,1.561v18.604H96.329z"/>
		<path style="fill:#1E60AD;" d="M129.882-109.839v-26.777h21.971c3.116-0.109,5.482,0.499,7.098,1.821
			c1.616,1.324,2.424,3.25,2.424,5.781v19.175h-13.827v-18.715c0-1.361-0.64-2.041-1.918-2.041c-0.667,0-1.153,0.16-1.459,0.479
			c-0.306,0.321-0.459,0.841-0.459,1.562v18.715H129.882z"/>
		<path style="fill:#1E60AD;" d="M190.989-109.839l-5.755-18.685v18.685h-13.787v-33.941h19.583l4.286,14.083l4.265-14.083h19.645
			v33.941h-13.817v-18.685l-5.725,18.685H190.989z"/>
		<path style="fill:#1E60AD;" d="M253.155-115.849c0,1.143-0.159,2.096-0.479,2.862c-0.32,0.765-0.842,1.391-1.567,1.878
			c-0.724,0.486-1.671,0.833-2.842,1.041c-1.17,0.207-2.605,0.311-4.306,0.311h-13.542c-1.701,0-3.136-0.104-4.305-0.311
			c-1.171-0.208-2.111-0.548-2.822-1.021c-0.71-0.474-1.227-1.099-1.545-1.878c-0.321-0.779-0.48-1.74-0.48-2.882v-14.604
			c0-1.143,0.159-2.104,0.48-2.883c0.319-0.779,0.835-1.405,1.545-1.877c0.711-0.474,1.651-0.813,2.822-1.021
			c1.169-0.208,2.604-0.311,4.305-0.311h13.542c1.701,0,3.136,0.103,4.306,0.311c1.17,0.207,2.118,0.554,2.842,1.041
			c0.725,0.486,1.247,1.119,1.567,1.898c0.32,0.778,0.479,1.726,0.479,2.842v8.051h-17.888v5.47c0,1.362,0.643,2.041,1.928,2.041
			c0.667,0,1.153-0.159,1.459-0.479s0.459-0.84,0.459-1.562v-3.429h14.042V-115.849z M235.145-129.33l0.01,2.133h4.133l-0.011-2.133
			c0-1.504-0.694-2.256-2.082-2.256c-0.728,0-1.252,0.176-1.571,0.526C235.304-130.709,235.145-130.133,235.145-129.33z"/>
		<path style="fill:#1E60AD;" d="M273.198-127.126l0.01-2.347c0.007-0.81-0.157-1.368-0.494-1.674s-0.866-0.458-1.587-0.458
			c-0.729,0-1.25,0.166-1.566,0.5s-0.478,0.877-0.484,1.633v0.877h-13.42l0.011-1.918c0-1.149,0.159-2.114,0.479-2.893
			c0.32-0.779,0.84-1.406,1.562-1.883c0.721-0.476,1.667-0.818,2.837-1.025c1.17-0.208,2.605-0.311,4.306-0.311h12.878
			c1.701,0,3.137,0.103,4.307,0.311c1.17,0.207,2.118,0.556,2.847,1.046c0.728,0.49,1.251,1.126,1.566,1.909
			c0.317,0.783,0.479,1.731,0.485,2.847l-0.011,20.675h-21.95c-3.116,0.055-5.475-0.566-7.077-1.862
			c-1.602-1.296-2.502-3.717-2.699-7.261c0.463-5.286,3.681-8.007,9.654-8.164H273.198z M273.301-117.585v-4.142l-1.878,0.631
			c-0.897,0.307-1.519,0.669-1.862,1.088c-0.344,0.418-0.519,1.032-0.525,1.841v0.582c0,1.423,0.696,2.133,2.092,2.133
			c0.721,0,1.264-0.167,1.628-0.5C273.119-116.285,273.301-116.829,273.301-117.585z"/>
		<path style="fill:#1E60AD;" d="M320.854-115.849c-0.007,1.143-0.171,2.096-0.49,2.862c-0.32,0.765-0.842,1.391-1.565,1.878
			c-0.726,0.486-1.673,0.833-2.843,1.041c-1.171,0.207-2.605,0.311-4.306,0.311h-13.542c-1.701,0-3.137-0.104-4.307-0.311
			c-1.17-0.208-2.111-0.548-2.821-1.021c-0.712-0.474-1.227-1.099-1.547-1.878c-0.319-0.779-0.476-1.74-0.469-2.882l-0.01-3.297
			h14.001v2.214c0,1.362,0.643,2.041,1.928,2.041c0.667,0,1.154-0.159,1.465-0.479c0.309-0.32,0.461-0.84,0.454-1.562v-0.713
			c0-1.197-1.068-2.072-3.204-2.623l-8.042-1.97c-2.503-0.639-4.188-1.348-5.051-2.127c-0.865-0.779-1.294-1.974-1.287-3.587
			l-0.01-2.5c0-1.143,0.162-2.104,0.485-2.883c0.322-0.779,0.845-1.405,1.565-1.877c0.722-0.474,1.667-0.813,2.838-1.021
			c1.17-0.208,2.605-0.311,4.306-0.311h13.247c1.7,0,3.135,0.103,4.306,0.311c1.17,0.207,2.117,0.554,2.843,1.041
			c0.724,0.486,1.245,1.119,1.565,1.898c0.319,0.778,0.48,1.726,0.48,2.842l0.01,1.796h-13.879v-0.673
			c-0.007-1.361-0.649-2.041-1.929-2.041c-0.558,0-1.018,0.14-1.378,0.419c-0.36,0.279-0.54,0.639-0.54,1.081
			c0.007,0.28,0.051,0.53,0.132,0.75c0.082,0.222,0.254,0.431,0.517,0.628c0.261,0.197,0.642,0.386,1.143,0.567
			c0.5,0.18,1.168,0.365,2.005,0.556l6.021,1.51c3.122,0.803,5.214,1.678,6.275,2.623c1.088,0.917,1.633,2.31,1.633,4.173V-115.849z
			"/>
		<g>
			<path style="fill:#1E60AD;" d="M35.242-100.748h5.158v1.048h-4.104v3.842h3.444v1.048h-3.444v5.711h-1.053V-100.748z"/>
			<path style="fill:#1E60AD;" d="M44.25-98.198h2.783c1.369,0,2.453,0.716,2.453,2.48c0,1.118-0.676,2.218-1.667,2.55l2.013,3.686
				l-0.912,0.611l-2.092-4.122h-1.525v3.895H44.25V-98.198z M46.688-94.041c1.021,0,1.698-0.646,1.698-1.677
				c0-0.821-0.44-1.432-1.384-1.432h-1.698v3.108H46.688z"/>
			<path style="fill:#1E60AD;" d="M58.966-93.639c0,0.733-0.047,4.698-2.909,4.698c-1.322,0-2.91-1.048-2.91-4.698
				c0-3.633,1.557-4.716,2.91-4.716C57.362-98.355,58.966-97.307,58.966-93.639z M54.249-93.639c0,1.327,0.22,3.598,1.809,3.598
				c1.588,0,1.808-2.271,1.808-3.598c0-1.345-0.22-3.616-1.808-3.616C54.468-97.255,54.249-94.984,54.249-93.639z"/>
			<path style="fill:#1E60AD;" d="M62.753-98.198h1.305l3.177,7.667l0.032-0.035l-0.094-2.358v-5.274h1.054v9.099H66.92
				l-3.177-7.667l-0.031,0.035l0.094,2.375v5.257h-1.054V-98.198z"/>
			<path style="fill:#1E60AD;" d="M74.419-97.149h-2.265v-1.048h5.536v1.048h-2.217v8.051h-1.054V-97.149z"/>
			<path style="fill:#1E60AD;" d="M82.106-98.198h5.11v1.048H83.16v2.724h3.35v1.048h-3.35v3.231h4.057v1.048h-5.11V-98.198z"/>
			<path style="fill:#1E60AD;" d="M91.051-98.198h1.305l3.177,7.667l0.031-0.035l-0.094-2.358v-5.274h1.054v9.099h-1.305
				l-3.177-7.667L92.01-96.73l0.095,2.375v5.257h-1.054V-98.198z"/>
			<path style="fill:#1E60AD;" d="M100.374-98.198h2.736c2.327,0,3.381,1.065,3.381,4.436c0,2.847-0.44,4.663-3.381,4.663h-2.736
				v-1.048h0.849v-7.003h-0.849V-98.198z M102.277-90.146h1.117c1.384,0,1.997-0.873,1.997-3.493c0-2.795-0.723-3.51-2.029-3.51
				h-1.084V-90.146z"/>
			<path style="fill:#1E60AD;" d="M125.356-100.748l-1.054,11.876h-0.456l-1.746-7.038h-0.031l-1.746,7.038h-0.457l-1.053-11.876
				l1.053-0.227l0.504,8.75h0.031l1.525-6.13h0.315l1.525,6.13h0.032l0.503-8.75L125.356-100.748z"/>
			<path style="fill:#1E60AD;" d="M129.27-98.198h5.11v1.048h-4.057v2.724h3.349v1.048h-3.349v3.231h4.057v1.048h-5.11V-98.198z"/>
			<path style="fill:#1E60AD;" d="M138.152-89.099v-1.048h0.849v-7.003h-0.849v-1.048h2.579c2.076,0,2.972,0.873,2.972,2.428
				c0,0.786-0.298,1.484-0.928,1.869c0.896,0.314,1.4,1.17,1.4,2.201c0,1.642-0.975,2.602-2.689,2.602H138.152z M141.234-94.303
				c0.912,0,1.368-0.646,1.368-1.467c0-1.083-0.692-1.379-1.431-1.379h-1.116v2.847H141.234z M141.281-90.146
				c0.928,0,1.793-0.227,1.793-1.467c0-0.908-0.535-1.642-1.542-1.642h-1.478v3.109H141.281z"/>
			<path style="fill:#1E60AD;" d="M156.97-99.7v-1.048h2.767c2.107,0,3.35,1.03,3.35,5.833c0,2.568-0.125,5.816-3.318,5.816h-2.799
				v-1.048h0.849V-99.7H156.97z M158.873-90.146h0.864c1.274,0,2.249-0.367,2.249-4.768c0-4.436-1.069-4.785-1.997-4.785h-1.117
				V-90.146z"/>
			<path style="fill:#1E60AD;" d="M167-98.198h5.111v1.048h-4.057v2.724h3.35v1.048h-3.35v3.231h4.057v1.048H167V-98.198z"/>
			<path style="fill:#1E60AD;" d="M180.915-98.425l1.006,0.419l-3.145,9.134h-0.189l-3.145-9.134l1.006-0.419l2.233,6.672
				L180.915-98.425z"/>
			<path style="fill:#1E60AD;" d="M185.866-98.198h5.11v1.048h-4.057v2.724h3.35v1.048h-3.35v3.231h4.057v1.048h-5.11V-98.198z"/>
			<path style="fill:#1E60AD;" d="M195.502-98.198h1.053v8.051h4.294v1.048h-5.347V-98.198z"/>
			<path style="fill:#1E60AD;" d="M209.889-93.639c0,0.733-0.048,4.698-2.91,4.698c-1.321,0-2.909-1.048-2.909-4.698
				c0-3.633,1.557-4.716,2.909-4.716C208.285-98.355,209.889-97.307,209.889-93.639z M205.171-93.639
				c0,1.327,0.22,3.598,1.808,3.598c1.588,0,1.809-2.271,1.809-3.598c0-1.345-0.22-3.616-1.809-3.616
				C205.392-97.255,205.171-94.984,205.171-93.639z"/>
			<path style="fill:#1E60AD;" d="M215.296-89.099h-1.054v-9.099h2.547c1.905,0,2.644,1.153,2.644,2.48
				c0,1.921-1.226,2.707-2.375,2.707h-1.761V-89.099z M216.742-94.059c1.038,0,1.589-0.524,1.589-1.572
				c0-1.24-0.724-1.519-1.589-1.519h-1.446v3.091H216.742z"/>
			<path style="fill:#1E60AD;" d="M224.006-96.469h-0.033l-0.205,7.37h-1.115l0.329-9.099h1.385l1.478,3.947l1.479-3.947h1.384
				l0.33,9.099h-1.116l-0.205-7.37h-0.031l-1.841,4.803L224.006-96.469z"/>
			<path style="fill:#1E60AD;" d="M233.029-98.198h5.111v1.048h-4.059v2.724h3.352v1.048h-3.352v3.231h4.059v1.048h-5.111V-98.198z"
				/>
			<path style="fill:#1E60AD;" d="M241.974-98.198h1.305l3.178,7.667l0.031-0.035l-0.094-2.358v-5.274h1.053v9.099h-1.305
				l-3.176-7.667l-0.033,0.035l0.096,2.375v5.257h-1.055V-98.198z"/>
			<path style="fill:#1E60AD;" d="M253.64-97.149h-2.266v-1.048h5.537v1.048h-2.217v8.051h-1.055V-97.149z"/>
			<path style="fill:#1E60AD;" d="M34.345-78.738v-1.048h2.768c2.107,0,3.35,1.03,3.35,5.833c0,2.568-0.126,5.816-3.318,5.816
				h-2.799v-1.047h0.849v-9.554H34.345z M36.248-69.184h0.865c1.273,0,2.249-0.367,2.249-4.769c0-4.436-1.07-4.785-1.997-4.785
				h-1.117V-69.184z"/>
			<path style="fill:#1E60AD;" d="M44.375-77.236h5.111v1.048h-4.057v2.724h3.35v1.048h-3.35v3.231h4.057v1.047h-5.111V-77.236z"/>
			<path style="fill:#1E60AD;" d="M54.343-71.019c0.205,1.118,0.692,1.939,1.792,1.939c0.865,0,1.542-0.524,1.542-1.537
				c0-1.118-0.85-1.397-1.651-1.764c-1.195-0.559-2.328-0.908-2.328-2.62c0-1.537,1.117-2.393,2.406-2.393
				c1.368,0,2.17,0.874,2.5,2.288l-1.007,0.332c-0.188-0.891-0.613-1.52-1.51-1.52c-0.676,0-1.336,0.384-1.336,1.205
				c0,0.856,0.472,1.101,1.101,1.415l1.746,0.855c0.739,0.455,1.133,1.188,1.133,2.131c0,1.729-1.085,2.707-2.595,2.707
				c-1.525,0-2.484-1.083-2.736-2.707L54.343-71.019z"/>
			<path style="fill:#1E60AD;" d="M63.807-69.184h1.148v-7.003h-1.148v-1.048h3.366v1.048h-1.164v7.003h1.164v1.047h-3.366V-69.184z
				"/>
			<path style="fill:#1E60AD;" d="M77.69-68.975c-0.676,0.594-1.683,0.996-2.516,0.996c-2.406,0-3.098-2.48-3.098-4.715
				c0-2.201,0.724-4.698,3.066-4.698c1.101,0,2.061,0.716,2.626,1.747L76.872-75c-0.393-0.733-0.991-1.292-1.792-1.292
				c-1.62,0-1.903,2.253-1.903,3.633c0,1.415,0.283,3.581,1.934,3.581c0.535,0,1.069-0.157,1.525-0.472v-2.393H74.67v-1.048h3.02
				V-68.975z"/>
			<path style="fill:#1E60AD;" d="M81.619-77.236h1.305l3.176,7.667l0.032-0.035l-0.094-2.357v-5.275h1.054v9.099h-1.305
				l-3.177-7.667l-0.032,0.035l0.095,2.375v5.257h-1.054V-77.236z"/>
			<path style="fill:#1E60AD;" d="M102.685-78.738h-1.415v-1.048h3.9v1.048h-1.432v9.554h1.432v1.047h-3.9v-1.047h1.415V-78.738z"/>
			<path style="fill:#1E60AD;" d="M110.608-77.236h1.054v8.052h4.293v1.047h-5.347V-77.236z"/>
			<path style="fill:#1E60AD;" d="M120.041-77.236h1.054v8.052h4.293v1.047h-5.347V-77.236z"/>
			<path style="fill:#1E60AD;" d="M130.009-77.236v6.2c0,1.327,0.346,1.956,1.431,1.956c1.321,0,1.604-0.646,1.604-1.956v-6.2h1.054
				v6.759c0,1.205-0.771,2.497-2.579,2.497c-1.777,0-2.564-1.24-2.564-2.567v-6.689H130.009z"/>
			<path style="fill:#1E60AD;" d="M139.236-71.019c0.205,1.118,0.692,1.939,1.793,1.939c0.865,0,1.542-0.524,1.542-1.537
				c0-1.118-0.849-1.397-1.651-1.764c-1.195-0.559-2.327-0.908-2.327-2.62c0-1.537,1.116-2.393,2.406-2.393
				c1.368,0,2.17,0.874,2.5,2.288l-1.006,0.332c-0.189-0.891-0.613-1.52-1.51-1.52c-0.676,0-1.337,0.384-1.337,1.205
				c0,0.856,0.472,1.101,1.101,1.415l1.746,0.855c0.739,0.455,1.132,1.188,1.132,2.131c0,1.729-1.085,2.707-2.595,2.707
				c-1.525,0-2.484-1.083-2.736-2.707L139.236-71.019z"/>
			<path style="fill:#1E60AD;" d="M149.88-76.188h-2.265v-1.048h5.536v1.048h-2.217v8.051h-1.054V-76.188z"/>
			<path style="fill:#1E60AD;" d="M157.442-77.236h2.783c1.368,0,2.453,0.716,2.453,2.48c0,1.118-0.676,2.218-1.667,2.55
				l2.013,3.686l-0.912,0.611l-2.092-4.122h-1.525v3.895h-1.053V-77.236z M159.879-73.079c1.022,0,1.698-0.646,1.698-1.677
				c0-0.821-0.44-1.432-1.384-1.432h-1.699v3.108H159.879z"/>
			<path style="fill:#1E60AD;" d="M167.802-70.617l-0.771,2.707l-1.038-0.419l2.579-8.907h1.353l2.579,8.907l-1.038,0.419
				l-0.755-2.707H167.802z M169.249-75.874l-1.164,4.209h2.328L169.249-75.874z"/>
			<path style="fill:#1E60AD;" d="M178.178-76.188h-2.264v-1.048h5.535v1.048h-2.217v8.051h-1.054V-76.188z"/>
			<path style="fill:#1E60AD;" d="M186.432-69.184h1.148v-7.003h-1.148v-1.048h3.365v1.048h-1.164v7.003h1.164v1.047h-3.365V-69.184
				z"/>
			<path style="fill:#1E60AD;" d="M200.456-72.677c0,0.733-0.047,4.698-2.909,4.698c-1.321,0-2.909-1.048-2.909-4.698
				c0-3.633,1.557-4.716,2.909-4.716C198.852-77.393,200.456-76.345,200.456-72.677z M195.738-72.677
				c0,1.327,0.22,3.598,1.809,3.598s1.809-2.271,1.809-3.598c0-1.345-0.22-3.616-1.809-3.616S195.738-74.022,195.738-72.677z"/>
			<path style="fill:#1E60AD;" d="M204.244-77.236h1.305l3.176,7.667l0.032-0.035l-0.094-2.357v-5.275h1.053v9.099h-1.305
				l-3.176-7.667l-0.032,0.035l0.095,2.375v5.257h-1.053V-77.236z"/>
		</g>
	</g>
	<g style="display:inline;">
		<path d="M83.326,210.025l0.011-24.032c-0.007-0.865-0.151-1.485-0.433-1.863c-0.283-0.377-0.748-0.566-1.393-0.566
			c-0.606,0-1.049,0.189-1.333,0.566c-0.282,0.378-0.42,0.998-0.413,1.863l-0.009,4.387H66.213v-6.398
			c0-1.477,0.152-2.73,0.454-3.76c0.303-1.031,0.789-1.875,1.459-2.531c0.67-0.657,1.544-1.131,2.622-1.424
			c1.079-0.292,2.394-0.438,3.945-0.438h13.725c3.327,0,5.629,0.6,6.908,1.801c1.279,1.2,1.918,3.318,1.918,6.353v26.042H83.326z"/>
		<path d="M99.286,182.135c0-1.143,0.159-2.103,0.48-2.883c0.319-0.778,0.833-1.404,1.541-1.877
			c0.708-0.472,1.646-0.812,2.816-1.021c1.17-0.207,2.602-0.311,4.297-0.311h13.521c1.694,0,3.125,0.104,4.291,0.311
			c1.167,0.208,2.113,0.555,2.837,1.041c0.725,0.487,1.247,1.113,1.567,1.877c0.32,0.766,0.48,1.719,0.48,2.862v14.604
			c0,1.109-0.16,2.053-0.48,2.832c-0.32,0.778-0.842,1.413-1.567,1.903c-0.724,0.49-1.669,0.839-2.837,1.046
			c-1.166,0.208-2.597,0.311-4.291,0.311H108.42c-1.695,0-3.126-0.103-4.297-0.311c-1.17-0.207-2.109-0.547-2.816-1.021
			c-0.708-0.472-1.222-1.098-1.541-1.877c-0.321-0.779-0.48-1.74-0.48-2.883V182.135z M113.716,197.178
			c0.306,0.318,0.792,0.479,1.458,0.479c1.279,0,1.918-0.68,1.918-2.041v-12.398c0-0.722-0.15-1.242-0.454-1.562
			c-0.302-0.32-0.79-0.479-1.465-0.479c-1.279,0-1.918,0.68-1.918,2.041v12.398C113.256,196.337,113.41,196.857,113.716,197.178z"/>
		<path d="M146.994,176.084v18.604c0,0.72,0.153,1.241,0.458,1.561c0.307,0.32,0.793,0.48,1.46,0.48
			c1.286,0,1.928-0.681,1.928-2.041v-18.604h13.828v18.98c0,2.531-0.808,4.458-2.424,5.781c-1.615,1.323-4.012,1.984-7.189,1.984
			l-8.062,0.051v7.144h-13.838v-33.941H146.994z"/>
		<path d="M180.538,176.084V194.8c0,0.721,0.153,1.241,0.459,1.562c0.306,0.319,0.792,0.479,1.459,0.479
			c1.278,0,1.918-0.68,1.918-2.041v-18.715h13.827v19.175c0,2.531-0.808,4.457-2.424,5.781c-1.615,1.323-3.982,1.93-7.098,1.821
			h-21.971v-26.777H180.538z"/>
		<path d="M236.51,176.084l5.725,18.685v-18.685h13.817v33.941h-19.645l-4.265-14.083l-4.286,14.083h-19.583v-33.941h13.787v18.685
			l5.755-18.685H236.51z"/>
		<path d="M289.982,186.606h-14.042v-3.429c0-0.722-0.153-1.242-0.459-1.562s-0.793-0.479-1.459-0.479
			c-1.285,0-1.928,0.679-1.928,2.041v5.47h17.888v8.051c0,1.116-0.159,2.063-0.479,2.842c-0.32,0.78-0.842,1.412-1.567,1.898
			c-0.724,0.487-1.671,0.833-2.842,1.041c-1.17,0.208-2.605,0.311-4.306,0.311h-13.542c-1.701,0-3.136-0.103-4.305-0.311
			c-1.171-0.207-2.111-0.547-2.822-1.021c-0.71-0.472-1.227-1.098-1.545-1.877c-0.321-0.778-0.48-1.74-0.48-2.883v-14.604
			c0-1.143,0.159-2.103,0.48-2.882c0.319-0.779,0.835-1.404,1.545-1.878c0.711-0.472,1.651-0.812,2.822-1.021
			c1.169-0.207,2.604-0.311,4.305-0.311h13.542c1.701,0,3.136,0.104,4.306,0.311c1.17,0.208,2.118,0.555,2.842,1.041
			c0.725,0.487,1.247,1.113,1.567,1.878c0.32,0.766,0.479,1.719,0.479,2.862V186.606z M272.452,197.305
			c0.319,0.35,0.843,0.526,1.571,0.526c1.388,0,2.082-0.752,2.082-2.256l0.011-2.133h-4.133l-0.01,2.133
			C271.972,196.378,272.131,196.955,272.452,197.305z"/>
		<path d="M301.678,193.371c-5.973-0.156-9.191-2.877-9.654-8.164c0.197-3.544,1.097-5.965,2.699-7.261
			c1.603-1.295,3.961-1.917,7.077-1.862h21.95l0.011,20.675c-0.007,1.116-0.168,2.064-0.485,2.847
			c-0.315,0.782-0.839,1.419-1.566,1.909c-0.729,0.49-1.677,0.839-2.847,1.046c-1.17,0.208-2.605,0.311-4.307,0.311h-12.878
			c-1.701,0-3.136-0.103-4.306-0.311c-1.17-0.207-2.116-0.549-2.837-1.025c-0.722-0.477-1.242-1.104-1.562-1.883
			c-0.32-0.779-0.479-1.744-0.479-2.893l-0.011-1.918h13.42v0.877c0.007,0.755,0.168,1.299,0.484,1.633s0.838,0.5,1.566,0.5
			c0.721,0,1.25-0.152,1.587-0.458s0.501-0.864,0.494-1.674l-0.01-2.347H301.678z M309.582,182.197
			c-0.364-0.334-0.907-0.5-1.628-0.5c-1.396,0-2.092,0.71-2.092,2.133v0.582c0.007,0.81,0.182,1.423,0.525,1.841
			c0.344,0.419,0.965,0.781,1.862,1.088l1.878,0.631v-4.142C310.128,183.074,309.946,182.53,309.582,182.197z"/>
		<path d="M357.682,185.31c0,1.864-0.545,3.256-1.633,4.173c-1.062,0.945-3.153,1.82-6.275,2.623l-6.021,1.51
			c-0.837,0.19-1.505,0.376-2.005,0.556c-0.501,0.181-0.882,0.37-1.143,0.567c-0.263,0.197-0.435,0.406-0.517,0.628
			c-0.081,0.22-0.125,0.47-0.132,0.75c0,0.441,0.18,0.802,0.54,1.081c0.36,0.279,0.82,0.419,1.378,0.419
			c1.279,0,1.922-0.68,1.929-2.041v-0.673h13.879l-0.01,1.796c0,1.116-0.161,2.063-0.48,2.842c-0.32,0.78-0.842,1.412-1.565,1.898
			c-0.726,0.487-1.673,0.833-2.843,1.041c-1.171,0.208-2.605,0.311-4.306,0.311H335.23c-1.7,0-3.136-0.103-4.306-0.311
			c-1.171-0.207-2.116-0.547-2.838-1.021c-0.721-0.472-1.243-1.098-1.565-1.877c-0.323-0.778-0.485-1.74-0.485-2.883l0.01-2.5
			c-0.007-1.613,0.422-2.809,1.287-3.587c0.863-0.779,2.548-1.489,5.051-2.127l8.042-1.97c2.136-0.551,3.204-1.426,3.204-2.623
			v-0.713c0.007-0.722-0.146-1.242-0.454-1.562c-0.311-0.32-0.798-0.479-1.465-0.479c-1.285,0-1.928,0.679-1.928,2.041v2.214
			h-14.001l0.01-3.297c-0.007-1.143,0.149-2.103,0.469-2.882c0.32-0.779,0.835-1.404,1.547-1.878
			c0.71-0.472,1.651-0.812,2.821-1.021c1.17-0.207,2.605-0.311,4.307-0.311h13.542c1.7,0,3.135,0.104,4.306,0.311
			c1.17,0.208,2.117,0.555,2.843,1.041c0.724,0.487,1.245,1.113,1.565,1.878c0.319,0.766,0.483,1.719,0.49,2.862V185.31z"/>
		<g>
			<path d="M72.069,155.344h1.053v5.711h3.444v1.048h-3.444v3.842h4.104v1.048h-5.158V155.344z"/>
			<path d="M81.077,155.344h1.054v3.895h1.525l2.092-4.122l0.912,0.611l-2.013,3.686c0.991,0.332,1.667,1.432,1.667,2.55
				c0,1.764-1.084,2.48-2.453,2.48h-2.783V155.344z M82.13,160.286v3.108h1.698c0.944,0,1.384-0.611,1.384-1.432
				c0-1.031-0.676-1.677-1.698-1.677H82.13z"/>
			<path d="M92.884,164.6c-1.353,0-2.91-1.083-2.91-4.716c0-3.65,1.588-4.698,2.91-4.698c2.862,0,2.909,3.964,2.909,4.698
				C95.793,163.552,94.189,164.6,92.884,164.6z M92.884,163.5c1.588,0,1.808-2.271,1.808-3.616c0-1.327-0.22-3.598-1.808-3.598
				c-1.589,0-1.809,2.271-1.809,3.598C91.076,161.229,91.295,163.5,92.884,163.5z"/>
			<path d="M99.58,155.344h1.054v5.257l-0.094,2.375l0.031,0.035l3.177-7.667h1.306v9.099H104v-5.274l0.094-2.358l-0.032-0.035
				l-3.177,7.667H99.58V155.344z"/>
			<path d="M111.246,155.344h1.054v8.051h2.217v1.048h-5.536v-1.048h2.265V155.344z"/>
			<path d="M118.934,155.344h5.11v1.048h-4.057v3.231h3.35v1.048h-3.35v2.724h4.057v1.048h-5.11V155.344z"/>
			<path d="M127.878,155.344h1.054v5.257l-0.095,2.375l0.032,0.035l3.177-7.667h1.305v9.099h-1.054v-5.274l0.094-2.358l-0.031-0.035
				l-3.177,7.667h-1.305V155.344z"/>
			<path d="M137.201,163.395h0.849v-7.003h-0.849v-1.048h2.736c2.94,0,3.381,1.816,3.381,4.663c0,3.371-1.054,4.436-3.381,4.436
				h-2.736V163.395z M139.104,163.395h1.084c1.306,0,2.029-0.715,2.029-3.51c0-2.62-0.613-3.493-1.997-3.493h-1.117V163.395z"/>
			<path d="M161.13,167.22l-0.503-8.75h-0.032l-1.525,6.13h-0.315l-1.525-6.13h-0.031l-0.504,8.75l-1.053-0.227l1.053-11.876h0.457
				l1.746,7.038h0.031l1.746-7.038h0.456l1.054,11.876L161.13,167.22z"/>
			<path d="M166.097,155.344h5.11v1.048h-4.057v3.231h3.349v1.048h-3.349v2.724h4.057v1.048h-5.11V155.344z"/>
			<path d="M178.312,155.344c1.714,0,2.689,0.96,2.689,2.602c0,1.03-0.503,1.887-1.4,2.201c0.629,0.384,0.928,1.083,0.928,1.869
				c0,1.555-0.896,2.428-2.972,2.428h-2.579v-1.048h0.849v-7.003h-0.849v-1.048H178.312z M176.882,160.548v2.847h1.116
				c0.739,0,1.431-0.296,1.431-1.379c0-0.821-0.456-1.467-1.368-1.467H176.882z M176.882,156.392v3.109h1.478
				c1.006,0,1.542-0.734,1.542-1.642c0-1.24-0.865-1.467-1.793-1.467H176.882z"/>
			<path d="M194.646,165.945v-9.553h-0.849v-1.048h2.799c3.192,0,3.318,3.248,3.318,5.816c0,4.803-1.242,5.833-3.35,5.833h-2.767
				v-1.048H194.646z M195.7,165.945h1.117c0.927,0,1.997-0.35,1.997-4.785c0-4.401-0.975-4.768-2.249-4.768H195.7V165.945z"/>
			<path d="M203.827,155.344h5.111v1.048h-4.057v3.231h3.35v1.048h-3.35v2.724h4.057v1.048h-5.111V155.344z"/>
			<path d="M215.509,157.998l-2.233,6.672l-1.006-0.419l3.145-9.134h0.189l3.145,9.134l-1.006,0.419L215.509,157.998z"/>
			<path d="M222.693,155.344h5.11v1.048h-4.057v3.231h3.35v1.048h-3.35v2.724h4.057v1.048h-5.11V155.344z"/>
			<path d="M232.33,155.344h5.347v1.048h-4.294v8.051h-1.053V155.344z"/>
			<path d="M243.807,164.6c-1.353,0-2.909-1.083-2.909-4.716c0-3.65,1.588-4.698,2.909-4.698c2.862,0,2.91,3.964,2.91,4.698
				C246.716,163.552,245.112,164.6,243.807,164.6z M243.807,163.5c1.588,0,1.809-2.271,1.809-3.616c0-1.327-0.22-3.598-1.809-3.598
				c-1.588,0-1.808,2.271-1.808,3.598C241.999,161.229,242.219,163.5,243.807,163.5z"/>
			<path d="M252.123,159.256h1.761c1.149,0,2.375,0.786,2.375,2.707c0,1.327-0.739,2.48-2.644,2.48h-2.547v-9.099h1.054V159.256z
				 M252.123,160.304v3.091h1.446c0.866,0,1.589-0.279,1.589-1.519c0-1.048-0.551-1.572-1.589-1.572H252.123z"/>
			<path d="M262.671,157.911l1.841,4.803h0.031l0.205-7.37h1.116l-0.33,9.099h-1.384l-1.479-3.947l-1.478,3.947h-1.385l-0.329-9.099
				h1.115l0.205,7.37h0.033L262.671,157.911z"/>
			<path d="M269.856,155.344h5.111v1.048h-4.059v3.231h3.352v1.048h-3.352v2.724h4.059v1.048h-5.111V155.344z"/>
			<path d="M278.801,155.344h1.055v5.257l-0.096,2.375l0.033,0.035l3.176-7.667h1.305v9.099h-1.053v-5.274l0.094-2.358l-0.031-0.035
				l-3.178,7.667h-1.305V155.344z"/>
			<path d="M290.467,155.344h1.055v8.051h2.217v1.048h-5.537v-1.048h2.266V155.344z"/>
			<path d="M72.021,144.983v-9.554h-0.849v-1.047h2.799c3.192,0,3.318,3.248,3.318,5.816c0,4.803-1.243,5.833-3.35,5.833h-2.768
				v-1.048H72.021z M73.075,144.983h1.117c0.927,0,1.997-0.35,1.997-4.785c0-4.401-0.976-4.769-2.249-4.769h-0.865V144.983z"/>
			<path d="M81.202,134.382h5.111v1.047h-4.057v3.231h3.35v1.048h-3.35v2.724h4.057v1.048h-5.111V134.382z"/>
			<path d="M90.226,136.932c0.252-1.624,1.211-2.707,2.736-2.707c1.51,0,2.595,0.978,2.595,2.707c0,0.943-0.394,1.676-1.133,2.131
				l-1.746,0.855c-0.628,0.314-1.101,0.559-1.101,1.415c0,0.821,0.66,1.205,1.336,1.205c0.896,0,1.321-0.629,1.51-1.52l1.007,0.332
				c-0.331,1.415-1.132,2.288-2.5,2.288c-1.29,0-2.406-0.855-2.406-2.393c0-1.711,1.132-2.061,2.328-2.62
				c0.802-0.367,1.651-0.646,1.651-1.764c0-1.013-0.676-1.537-1.542-1.537c-1.101,0-1.588,0.821-1.792,1.939L90.226,136.932z"/>
			<path d="M100.634,134.382H104v1.047h-1.164v7.003H104v1.048h-3.366v-1.048h1.148v-7.003h-1.148V134.382z"/>
			<path d="M114.517,139.237h-3.02v-1.048h1.966v-2.393c-0.456-0.314-0.99-0.472-1.525-0.472c-1.651,0-1.934,2.166-1.934,3.581
				c0,1.379,0.283,3.633,1.903,3.633c0.802,0,1.4-0.559,1.792-1.292l0.896,0.646c-0.566,1.03-1.525,1.747-2.626,1.747
				c-2.343,0-3.066-2.498-3.066-4.698c0-2.235,0.692-4.715,3.098-4.715c0.833,0,1.84,0.401,2.516,0.996V139.237z"/>
			<path d="M118.446,134.382h1.054v5.257l-0.095,2.375l0.032,0.035l3.177-7.667h1.305v9.099h-1.054v-5.275l0.094-2.357l-0.032-0.035
				l-3.176,7.667h-1.305V134.382z"/>
			<path d="M139.512,135.429h-1.415v-1.047h3.9v1.047h-1.432v9.554h1.432v1.048h-3.9v-1.048h1.415V135.429z"/>
			<path d="M147.436,134.382h5.347v1.047h-4.293v8.052h-1.054V134.382z"/>
			<path d="M156.868,134.382h5.347v1.047h-4.293v8.052h-1.054V134.382z"/>
			<path d="M165.782,143.481v-6.689c0-1.327,0.787-2.567,2.564-2.567c1.808,0,2.579,1.292,2.579,2.497v6.759h-1.054v-6.2
				c0-1.31-0.283-1.956-1.604-1.956c-1.085,0-1.431,0.629-1.431,1.956v6.2H165.782z"/>
			<path d="M175.12,136.932c0.252-1.624,1.211-2.707,2.736-2.707c1.51,0,2.595,0.978,2.595,2.707c0,0.943-0.393,1.676-1.132,2.131
				l-1.746,0.855c-0.629,0.314-1.101,0.559-1.101,1.415c0,0.821,0.661,1.205,1.337,1.205c0.896,0,1.32-0.629,1.51-1.52l1.006,0.332
				c-0.33,1.415-1.132,2.288-2.5,2.288c-1.29,0-2.406-0.855-2.406-2.393c0-1.711,1.132-2.061,2.327-2.62
				c0.802-0.367,1.651-0.646,1.651-1.764c0-1.013-0.676-1.537-1.542-1.537c-1.101,0-1.588,0.821-1.793,1.939L175.12,136.932z"/>
			<path d="M186.708,134.382h1.054v8.051h2.217v1.048h-5.536v-1.048h2.265V134.382z"/>
			<path d="M194.269,134.382h1.053v3.895h1.525l2.092-4.122l0.912,0.611l-2.013,3.686c0.991,0.332,1.667,1.432,1.667,2.55
				c0,1.764-1.085,2.48-2.453,2.48h-2.783V134.382z M195.322,139.324v3.108h1.699c0.943,0,1.384-0.611,1.384-1.432
				c0-1.031-0.676-1.677-1.698-1.677H195.322z"/>
			<path d="M207.539,136.862l0.755-2.707l1.038,0.419l-2.579,8.907H205.4l-2.579-8.907l1.038-0.419l0.771,2.707H207.539z
				 M207.24,137.91h-2.328l1.164,4.209L207.24,137.91z"/>
			<path d="M215.005,134.382h1.054v8.051h2.217v1.048h-5.535v-1.048h2.264V134.382z"/>
			<path d="M223.259,134.382h3.365v1.047h-1.164v7.003h1.164v1.048h-3.365v-1.048h1.148v-7.003h-1.148V134.382z"/>
			<path d="M234.374,143.638c-1.353,0-2.909-1.083-2.909-4.716c0-3.65,1.588-4.698,2.909-4.698c2.862,0,2.909,3.964,2.909,4.698
				C237.283,142.59,235.679,143.638,234.374,143.638z M234.374,142.538c1.588,0,1.809-2.271,1.809-3.616
				c0-1.327-0.22-3.598-1.809-3.598s-1.809,2.271-1.809,3.598C232.565,140.268,232.786,142.538,234.374,142.538z"/>
			<path d="M241.071,134.382h1.053v5.257l-0.095,2.375l0.032,0.035l3.176-7.667h1.305v9.099h-1.053v-5.275l0.094-2.357l-0.032-0.035
				l-3.176,7.667h-1.305V134.382z"/>
		</g>
	</g>
	<g style="display:inline;">
		<path style="fill:#FFFFFF;" d="M56.504-23.75V2.292c0,3.034-0.64,5.152-1.918,6.353c-1.279,1.201-3.582,1.801-6.908,1.801H33.953
			c-1.551,0-2.866-0.146-3.945-0.438c-1.078-0.292-1.952-0.767-2.622-1.424c-0.67-0.656-1.156-1.5-1.459-2.531
			c-0.302-1.03-0.454-2.284-0.454-3.76v-6.398h13.542l0.009,4.387c-0.007,0.865,0.131,1.485,0.413,1.863
			c0.283,0.377,0.726,0.566,1.333,0.566c0.646,0,1.11-0.189,1.393-0.566c0.282-0.378,0.426-0.998,0.433-1.863L42.585-23.75H56.504z"
			/>
		<path style="fill:#FFFFFF;" d="M58.545-10.463c0-1.143,0.159-2.104,0.48-2.883c0.319-0.779,0.833-1.405,1.541-1.877
			c0.708-0.473,1.646-0.813,2.816-1.021c1.17-0.208,2.602-0.311,4.297-0.311H81.2c1.694,0,3.125,0.103,4.291,0.311
			c1.167,0.207,2.113,0.556,2.837,1.046c0.725,0.49,1.247,1.125,1.567,1.903c0.32,0.779,0.48,1.723,0.48,2.832V4.14
			c0,1.143-0.16,2.096-0.48,2.862c-0.32,0.765-0.842,1.391-1.567,1.877c-0.724,0.486-1.669,0.833-2.837,1.041
			c-1.166,0.207-2.597,0.311-4.291,0.311H67.679c-1.695,0-3.126-0.104-4.297-0.311c-1.17-0.208-2.109-0.548-2.816-1.021
			c-0.708-0.473-1.222-1.099-1.541-1.877c-0.321-0.78-0.48-1.74-0.48-2.883V-10.463z M72.515-9.341V3.058
			c0,1.361,0.64,2.041,1.918,2.041c0.675,0,1.163-0.16,1.465-0.479c0.303-0.32,0.454-0.839,0.454-1.562V-9.341
			c0-1.361-0.639-2.041-1.918-2.041c-0.667,0-1.152,0.161-1.458,0.479C72.669-10.582,72.515-10.062,72.515-9.341z"/>
		<path style="fill:#FFFFFF;" d="M92.416,10.191V-23.75h13.838v7.144l8.062,0.051c3.177,0,5.574,0.661,7.189,1.984
			c1.617,1.323,2.424,3.25,2.424,5.781v18.98H110.1V-8.413c0-1.36-0.643-2.041-1.928-2.041c-0.667,0-1.153,0.16-1.46,0.48
			c-0.305,0.32-0.458,0.841-0.458,1.561v18.604H92.416z"/>
		<path style="fill:#FFFFFF;" d="M125.969,10.191v-26.777h21.971c3.116-0.109,5.482,0.499,7.098,1.821
			c1.616,1.324,2.424,3.25,2.424,5.781v19.175h-13.827V-8.524c0-1.361-0.64-2.041-1.918-2.041c-0.667,0-1.153,0.16-1.459,0.479
			c-0.306,0.321-0.459,0.841-0.459,1.562v18.715H125.969z"/>
		<path style="fill:#FFFFFF;" d="M187.075,10.191L181.32-8.494v18.685h-13.787V-23.75h19.583l4.286,14.083l4.265-14.083h19.645
			v33.941h-13.816V-8.494l-5.725,18.685H187.075z"/>
		<path style="fill:#FFFFFF;" d="M249.242,4.181c0,1.143-0.159,2.096-0.479,2.862c-0.319,0.765-0.842,1.391-1.566,1.878
			c-0.724,0.486-1.672,0.833-2.842,1.041c-1.17,0.207-2.605,0.311-4.307,0.311h-13.542c-1.7,0-3.136-0.104-4.306-0.311
			c-1.171-0.208-2.11-0.548-2.822-1.021c-0.71-0.474-1.227-1.099-1.545-1.878c-0.32-0.779-0.48-1.74-0.48-2.882v-14.604
			c0-1.143,0.16-2.104,0.48-2.883c0.318-0.779,0.835-1.405,1.545-1.877c0.712-0.474,1.651-0.813,2.822-1.021
			c1.17-0.208,2.605-0.311,4.306-0.311h13.542c1.701,0,3.137,0.103,4.307,0.311c1.17,0.207,2.118,0.554,2.842,1.041
			c0.725,0.486,1.247,1.119,1.566,1.898c0.32,0.778,0.479,1.726,0.479,2.842v8.051h-17.888v5.47c0,1.362,0.643,2.041,1.928,2.041
			c0.666,0,1.153-0.159,1.459-0.479c0.307-0.32,0.459-0.84,0.459-1.562v-3.429h14.042V4.181z M231.231-9.3l0.01,2.133h4.133
			l-0.01-2.133c0-1.504-0.694-2.256-2.082-2.256c-0.729,0-1.252,0.176-1.57,0.526C231.39-10.679,231.231-10.103,231.231-9.3z"/>
		<path style="fill:#FFFFFF;" d="M269.285-7.096l0.01-2.347c0.007-0.81-0.157-1.368-0.494-1.674s-0.866-0.458-1.587-0.458
			c-0.729,0-1.25,0.166-1.566,0.5s-0.478,0.877-0.484,1.633v0.877h-13.42l0.011-1.918c0-1.149,0.159-2.114,0.479-2.893
			c0.319-0.779,0.84-1.406,1.562-1.883c0.721-0.476,1.667-0.818,2.837-1.025c1.17-0.208,2.605-0.311,4.307-0.311h12.878
			c1.701,0,3.137,0.103,4.307,0.311c1.17,0.207,2.118,0.556,2.847,1.046c0.728,0.49,1.251,1.126,1.566,1.909
			c0.317,0.783,0.479,1.731,0.485,2.847l-0.011,20.675h-21.95c-3.116,0.055-5.475-0.566-7.077-1.862
			c-1.602-1.296-2.502-3.717-2.699-7.261c0.463-5.286,3.681-8.007,9.654-8.164H269.285z M269.387,2.445v-4.142l-1.878,0.631
			c-0.897,0.307-1.519,0.669-1.862,1.088c-0.344,0.418-0.519,1.032-0.525,1.841v0.582c0,1.423,0.696,2.133,2.092,2.133
			c0.721,0,1.264-0.167,1.628-0.5C269.206,3.746,269.387,3.201,269.387,2.445z"/>
		<path style="fill:#FFFFFF;" d="M316.941,4.181c-0.008,1.143-0.172,2.096-0.49,2.862c-0.32,0.765-0.842,1.391-1.566,1.878
			c-0.725,0.486-1.672,0.833-2.842,1.041c-1.172,0.207-2.605,0.311-4.307,0.311h-13.542c-1.701,0-3.137-0.104-4.307-0.311
			c-1.17-0.208-2.111-0.548-2.821-1.021c-0.712-0.474-1.227-1.099-1.547-1.878c-0.319-0.779-0.476-1.74-0.469-2.882l-0.01-3.297
			h14.001v2.214c0,1.362,0.643,2.041,1.928,2.041c0.667,0,1.154-0.159,1.465-0.479c0.309-0.32,0.461-0.84,0.454-1.562V2.385
			c0-1.197-1.068-2.072-3.204-2.623l-8.042-1.97c-2.503-0.639-4.188-1.348-5.051-2.127c-0.865-0.779-1.294-1.974-1.287-3.587
			l-0.01-2.5c0-1.143,0.162-2.104,0.485-2.883c0.322-0.779,0.845-1.405,1.565-1.877c0.722-0.474,1.667-0.813,2.838-1.021
			c1.17-0.208,2.605-0.311,4.306-0.311h13.247c1.701,0,3.135,0.103,4.307,0.311c1.17,0.207,2.117,0.554,2.842,1.041
			c0.725,0.486,1.246,1.119,1.566,1.898c0.318,0.778,0.48,1.726,0.48,2.842l0.01,1.796h-13.879V-9.3
			c-0.007-1.361-0.649-2.041-1.929-2.041c-0.558,0-1.018,0.14-1.378,0.419c-0.36,0.279-0.54,0.639-0.54,1.081
			c0.007,0.28,0.051,0.53,0.132,0.75c0.082,0.222,0.254,0.431,0.517,0.628c0.261,0.197,0.642,0.386,1.143,0.567
			c0.5,0.18,1.168,0.365,2.005,0.556l6.022,1.51c3.121,0.803,5.213,1.678,6.275,2.623c1.088,0.917,1.633,2.31,1.633,4.173V4.181z"/>
		<g>
			<path style="fill:#FFFFFF;" d="M31.328,19.283h5.158v1.048h-4.104v3.842h3.444v1.048h-3.444v5.711h-1.053V19.283z"/>
			<path style="fill:#FFFFFF;" d="M40.336,21.833h2.783c1.369,0,2.453,0.716,2.453,2.48c0,1.118-0.676,2.218-1.667,2.55l2.013,3.686
				l-0.912,0.611l-2.092-4.122H41.39v3.895h-1.054V21.833z M42.774,25.989c1.021,0,1.698-0.646,1.698-1.677
				c0-0.821-0.44-1.432-1.384-1.432H41.39v3.108H42.774z"/>
			<path style="fill:#FFFFFF;" d="M55.053,26.391c0,0.733-0.047,4.698-2.909,4.698c-1.322,0-2.91-1.048-2.91-4.698
				c0-3.633,1.557-4.716,2.91-4.716C53.448,21.675,55.053,22.724,55.053,26.391z M50.335,26.391c0,1.327,0.22,3.598,1.809,3.598
				c1.588,0,1.808-2.271,1.808-3.598c0-1.345-0.22-3.616-1.808-3.616C50.555,22.775,50.335,25.046,50.335,26.391z"/>
			<path style="fill:#FFFFFF;" d="M58.839,21.833h1.305l3.177,7.667l0.032-0.035l-0.094-2.358v-5.274h1.054v9.099h-1.306
				l-3.177-7.667L59.799,23.3l0.094,2.375v5.257h-1.054V21.833z"/>
			<path style="fill:#FFFFFF;" d="M70.505,22.881h-2.265v-1.048h5.536v1.048h-2.217v8.051h-1.054V22.881z"/>
			<path style="fill:#FFFFFF;" d="M78.193,21.833h5.11v1.048h-4.057v2.724h3.35v1.048h-3.35v3.231h4.057v1.048h-5.11V21.833z"/>
			<path style="fill:#FFFFFF;" d="M87.138,21.833h1.305L91.62,29.5l0.031-0.035l-0.094-2.358v-5.274h1.054v9.099h-1.305
				l-3.177-7.667L88.097,23.3l0.095,2.375v5.257h-1.054V21.833z"/>
			<path style="fill:#FFFFFF;" d="M96.46,21.833h2.736c2.327,0,3.381,1.065,3.381,4.436c0,2.847-0.44,4.663-3.381,4.663H96.46
				v-1.048h0.849v-7.003H96.46V21.833z M98.363,29.884h1.117c1.384,0,1.997-0.873,1.997-3.493c0-2.795-0.723-3.51-2.029-3.51h-1.084
				V29.884z"/>
			<path style="fill:#FFFFFF;" d="M121.443,19.283l-1.054,11.876h-0.456l-1.746-7.038h-0.031l-1.746,7.038h-0.457l-1.053-11.876
				l1.053-0.227l0.504,8.75h0.031l1.525-6.13h0.315l1.525,6.13h0.032l0.503-8.75L121.443,19.283z"/>
			<path style="fill:#FFFFFF;" d="M125.356,21.833h5.11v1.048h-4.057v2.724h3.349v1.048h-3.349v3.231h4.057v1.048h-5.11V21.833z"/>
			<path style="fill:#FFFFFF;" d="M134.238,30.932v-1.048h0.849v-7.003h-0.849v-1.048h2.579c2.076,0,2.972,0.873,2.972,2.428
				c0,0.786-0.298,1.484-0.928,1.869c0.896,0.314,1.4,1.17,1.4,2.201c0,1.642-0.975,2.602-2.689,2.602H134.238z M137.321,25.728
				c0.912,0,1.368-0.646,1.368-1.467c0-1.083-0.692-1.379-1.431-1.379h-1.116v2.847H137.321z M137.368,29.884
				c0.928,0,1.793-0.227,1.793-1.467c0-0.908-0.535-1.642-1.542-1.642h-1.478v3.109H137.368z"/>
			<path style="fill:#FFFFFF;" d="M153.057,20.331v-1.048h2.767c2.107,0,3.35,1.03,3.35,5.833c0,2.568-0.125,5.816-3.318,5.816
				h-2.799v-1.048h0.849v-9.553H153.057z M154.959,29.884h0.864c1.274,0,2.249-0.367,2.249-4.768c0-4.436-1.069-4.785-1.997-4.785
				h-1.117V29.884z"/>
			<path style="fill:#FFFFFF;" d="M163.086,21.833h5.111v1.048h-4.057v2.724h3.35v1.048h-3.35v3.231h4.057v1.048h-5.111V21.833z"/>
			<path style="fill:#FFFFFF;" d="M177.001,21.605l1.006,0.419l-3.145,9.134h-0.189l-3.145-9.134l1.006-0.419l2.233,6.672
				L177.001,21.605z"/>
			<path style="fill:#FFFFFF;" d="M181.952,21.833h5.11v1.048h-4.057v2.724h3.35v1.048h-3.35v3.231h4.057v1.048h-5.11V21.833z"/>
			<path style="fill:#FFFFFF;" d="M191.588,21.833h1.054v8.051h4.294v1.048h-5.348V21.833z"/>
			<path style="fill:#FFFFFF;" d="M205.975,26.391c0,0.733-0.047,4.698-2.909,4.698c-1.321,0-2.909-1.048-2.909-4.698
				c0-3.633,1.557-4.716,2.909-4.716C204.372,21.675,205.975,22.724,205.975,26.391z M201.258,26.391
				c0,1.327,0.22,3.598,1.808,3.598c1.589,0,1.809-2.271,1.809-3.598c0-1.345-0.22-3.616-1.809-3.616
				C201.478,22.775,201.258,25.046,201.258,26.391z"/>
			<path style="fill:#FFFFFF;" d="M211.382,30.932h-1.054v-9.099h2.547c1.904,0,2.643,1.153,2.643,2.48
				c0,1.921-1.226,2.707-2.375,2.707h-1.761V30.932z M212.829,25.972c1.037,0,1.589-0.524,1.589-1.572
				c0-1.24-0.724-1.519-1.589-1.519h-1.446v3.091H212.829z"/>
			<path style="fill:#FFFFFF;" d="M220.092,23.562h-0.033l-0.205,7.37h-1.115l0.33-9.099h1.385l1.477,3.947l1.479-3.947h1.384
				l0.33,9.099h-1.116l-0.204-7.37h-0.031l-1.842,4.803L220.092,23.562z"/>
			<path style="fill:#FFFFFF;" d="M229.116,21.833h5.11v1.048h-4.059v2.724h3.352v1.048h-3.352v3.231h4.059v1.048h-5.11V21.833z"/>
			<path style="fill:#FFFFFF;" d="M238.061,21.833h1.305l3.178,7.667l0.031-0.035l-0.094-2.358v-5.274h1.053v9.099h-1.305
				l-3.176-7.667L239.02,23.3l0.096,2.375v5.257h-1.055V21.833z"/>
			<path style="fill:#FFFFFF;" d="M249.727,22.881h-2.266v-1.048h5.537v1.048h-2.217v8.051h-1.055V22.881z"/>
			<path style="fill:#FFFFFF;" d="M30.432,41.292v-1.048h2.768c2.107,0,3.35,1.03,3.35,5.833c0,2.568-0.126,5.816-3.318,5.816
				h-2.799v-1.047h0.849v-9.554H30.432z M32.334,50.846h0.865c1.273,0,2.249-0.367,2.249-4.769c0-4.436-1.07-4.785-1.997-4.785
				h-1.117V50.846z"/>
			<path style="fill:#FFFFFF;" d="M40.461,42.794h5.111v1.048h-4.057v2.724h3.35v1.048h-3.35v3.231h4.057v1.047h-5.111V42.794z"/>
			<path style="fill:#FFFFFF;" d="M50.429,49.012c0.205,1.118,0.692,1.939,1.792,1.939c0.865,0,1.542-0.524,1.542-1.537
				c0-1.118-0.85-1.397-1.651-1.764c-1.195-0.559-2.328-0.908-2.328-2.62c0-1.537,1.117-2.393,2.406-2.393
				c1.368,0,2.17,0.874,2.5,2.288l-1.007,0.332c-0.188-0.891-0.613-1.52-1.51-1.52c-0.676,0-1.336,0.384-1.336,1.205
				c0,0.856,0.472,1.101,1.101,1.415l1.746,0.855c0.739,0.455,1.133,1.188,1.133,2.131c0,1.729-1.085,2.707-2.595,2.707
				c-1.525,0-2.484-1.083-2.736-2.707L50.429,49.012z"/>
			<path style="fill:#FFFFFF;" d="M59.893,50.846h1.148v-7.003h-1.148v-1.048h3.366v1.048h-1.164v7.003h1.164v1.047h-3.366V50.846z"
				/>
			<path style="fill:#FFFFFF;" d="M73.776,51.055c-0.676,0.594-1.683,0.996-2.516,0.996c-2.406,0-3.098-2.48-3.098-4.715
				c0-2.201,0.724-4.698,3.066-4.698c1.101,0,2.061,0.716,2.626,1.747l-0.896,0.646c-0.393-0.733-0.991-1.292-1.792-1.292
				c-1.62,0-1.903,2.253-1.903,3.633c0,1.415,0.283,3.581,1.934,3.581c0.535,0,1.069-0.157,1.525-0.472v-2.393h-1.966v-1.048h3.02
				V51.055z"/>
			<path style="fill:#FFFFFF;" d="M77.705,42.794h1.305l3.176,7.667l0.032-0.035l-0.094-2.357v-5.275h1.054v9.099h-1.305
				l-3.177-7.667l-0.032,0.035l0.095,2.375v5.257h-1.054V42.794z"/>
			<path style="fill:#FFFFFF;" d="M98.771,41.292h-1.415v-1.048h3.9v1.048h-1.432v9.554h1.432v1.047h-3.9v-1.047h1.415V41.292z"/>
			<path style="fill:#FFFFFF;" d="M106.695,42.794h1.054v8.052h4.293v1.047h-5.347V42.794z"/>
			<path style="fill:#FFFFFF;" d="M116.127,42.794h1.054v8.052h4.293v1.047h-5.347V42.794z"/>
			<path style="fill:#FFFFFF;" d="M126.095,42.794v6.2c0,1.327,0.346,1.956,1.431,1.956c1.321,0,1.604-0.646,1.604-1.956v-6.2h1.054
				v6.759c0,1.205-0.771,2.497-2.579,2.497c-1.777,0-2.564-1.24-2.564-2.567v-6.689H126.095z"/>
			<path style="fill:#FFFFFF;" d="M135.323,49.012c0.205,1.118,0.692,1.939,1.793,1.939c0.865,0,1.542-0.524,1.542-1.537
				c0-1.118-0.849-1.397-1.651-1.764c-1.195-0.559-2.327-0.908-2.327-2.62c0-1.537,1.116-2.393,2.406-2.393
				c1.368,0,2.17,0.874,2.5,2.288l-1.006,0.332c-0.189-0.891-0.613-1.52-1.51-1.52c-0.676,0-1.337,0.384-1.337,1.205
				c0,0.856,0.472,1.101,1.101,1.415l1.746,0.855c0.739,0.455,1.132,1.188,1.132,2.131c0,1.729-1.085,2.707-2.595,2.707
				c-1.525,0-2.484-1.083-2.736-2.707L135.323,49.012z"/>
			<path style="fill:#FFFFFF;" d="M145.967,43.843h-2.265v-1.048h5.536v1.048h-2.217v8.051h-1.054V43.843z"/>
			<path style="fill:#FFFFFF;" d="M153.528,42.794h2.783c1.368,0,2.453,0.716,2.453,2.48c0,1.118-0.676,2.218-1.667,2.55
				l2.013,3.686l-0.912,0.611l-2.092-4.122h-1.525v3.895h-1.053V42.794z M155.966,46.951c1.022,0,1.698-0.646,1.698-1.677
				c0-0.821-0.44-1.432-1.384-1.432h-1.699v3.108H155.966z"/>
			<path style="fill:#FFFFFF;" d="M163.889,49.414l-0.771,2.707l-1.038-0.419l2.579-8.907h1.353l2.579,8.907l-1.038,0.419
				l-0.755-2.707H163.889z M165.335,44.157l-1.164,4.209h2.328L165.335,44.157z"/>
			<path style="fill:#FFFFFF;" d="M174.265,43.843H172v-1.048h5.535v1.048h-2.217v8.051h-1.054V43.843z"/>
			<path style="fill:#FFFFFF;" d="M182.518,50.846h1.148v-7.003h-1.148v-1.048h3.365v1.048h-1.164v7.003h1.164v1.047h-3.365V50.846z
				"/>
			<path style="fill:#FFFFFF;" d="M196.542,47.353c0,0.733-0.048,4.698-2.909,4.698c-1.32,0-2.909-1.048-2.909-4.698
				c0-3.633,1.557-4.716,2.909-4.716C194.938,42.637,196.542,43.686,196.542,47.353z M191.825,47.353
				c0,1.327,0.221,3.598,1.809,3.598s1.809-2.271,1.809-3.598c0-1.345-0.221-3.616-1.809-3.616S191.825,46.008,191.825,47.353z"/>
			<path style="fill:#FFFFFF;" d="M200.331,42.794h1.305l3.176,7.667l0.032-0.035l-0.095-2.357v-5.275h1.054v9.099h-1.306
				l-3.176-7.667l-0.032,0.035l0.095,2.375v5.257h-1.053V42.794z"/>
		</g>
	</g>
	<path style="display:inline;" d="M80.634,284.798v26.042c0,3.034-0.64,5.152-1.918,6.353c-1.279,1.201-3.582,1.801-6.908,1.801
		H58.082c-1.551,0-2.866-0.146-3.944-0.438s-1.953-0.767-2.623-1.424c-0.67-0.656-1.156-1.5-1.459-2.531
		c-0.303-1.03-0.454-2.284-0.454-3.76v-6.398h13.542l0.01,4.387c-0.007,0.865,0.131,1.485,0.413,1.863
		c0.283,0.377,0.726,0.566,1.333,0.566c0.645,0,1.109-0.189,1.393-0.566c0.281-0.378,0.426-0.998,0.434-1.863l-0.012-24.032H80.634z
		"/>
	<path style="display:inline;" d="M82.675,298.084c0-1.143,0.159-2.104,0.48-2.883c0.318-0.779,0.832-1.405,1.54-1.877
		c0.708-0.473,1.646-0.813,2.816-1.021c1.171-0.208,2.603-0.311,4.297-0.311h13.521c1.694,0,3.125,0.103,4.291,0.311
		c1.168,0.207,2.113,0.556,2.837,1.046c0.726,0.49,1.247,1.125,1.567,1.903c0.319,0.779,0.479,1.723,0.479,2.832v14.604
		c0,1.143-0.16,2.096-0.479,2.862c-0.32,0.765-0.842,1.391-1.567,1.877c-0.724,0.486-1.669,0.833-2.837,1.041
		c-1.166,0.207-2.597,0.311-4.291,0.311H91.809c-1.694,0-3.126-0.104-4.297-0.311c-1.17-0.208-2.108-0.548-2.816-1.021
		c-0.708-0.473-1.222-1.099-1.54-1.877c-0.321-0.78-0.48-1.74-0.48-2.883V298.084z M96.645,299.207v12.398
		c0,1.361,0.64,2.041,1.919,2.041c0.674,0,1.162-0.16,1.465-0.479s0.453-0.839,0.453-1.562v-12.398c0-1.361-0.639-2.041-1.918-2.041
		c-0.667,0-1.152,0.161-1.459,0.479C96.798,297.966,96.645,298.486,96.645,299.207z"/>
	<path style="display:inline;" d="M116.545,318.739v-33.941h13.838v7.144l8.062,0.051c3.178,0,5.574,0.661,7.189,1.984
		c1.616,1.323,2.424,3.25,2.424,5.781v18.98h-13.828v-18.604c0-1.36-0.643-2.041-1.928-2.041c-0.668,0-1.153,0.16-1.461,0.48
		c-0.305,0.32-0.458,0.841-0.458,1.561v18.604H116.545z"/>
	<path style="display:inline;" d="M150.099,318.739v-26.777h21.971c3.115-0.109,5.482,0.499,7.098,1.821
		c1.615,1.324,2.424,3.25,2.424,5.781v19.175h-13.828v-18.715c0-1.361-0.64-2.041-1.918-2.041c-0.668,0-1.153,0.16-1.459,0.479
		c-0.307,0.321-0.459,0.841-0.459,1.562v18.715H150.099z"/>
	<path style="display:inline;" d="M211.204,318.739l-5.755-18.685v18.685h-13.787v-33.941h19.583l4.286,14.083l4.265-14.083h19.645
		v33.941h-13.816v-18.685l-5.725,18.685H211.204z"/>
	<path style="display:inline;" d="M273.371,312.729c0,1.143-0.159,2.096-0.479,2.862c-0.319,0.765-0.842,1.391-1.566,1.878
		c-0.724,0.486-1.672,0.833-2.842,1.041c-1.17,0.207-2.605,0.311-4.307,0.311h-13.542c-1.7,0-3.136-0.104-4.306-0.311
		c-1.171-0.208-2.11-0.548-2.822-1.021c-0.71-0.474-1.227-1.099-1.545-1.878c-0.32-0.779-0.48-1.74-0.48-2.882v-14.604
		c0-1.143,0.16-2.104,0.48-2.883c0.318-0.779,0.835-1.405,1.545-1.877c0.712-0.474,1.651-0.813,2.822-1.021
		c1.17-0.208,2.605-0.311,4.306-0.311h13.542c1.701,0,3.137,0.103,4.307,0.311c1.17,0.207,2.118,0.554,2.842,1.041
		c0.725,0.486,1.247,1.119,1.566,1.898c0.32,0.778,0.479,1.726,0.479,2.842v8.051h-17.888v5.47c0,1.362,0.643,2.041,1.928,2.041
		c0.666,0,1.153-0.159,1.459-0.479c0.307-0.32,0.459-0.84,0.459-1.562v-3.429h14.042V312.729z M255.36,299.248l0.01,2.133h4.133
		l-0.01-2.133c0-1.504-0.694-2.256-2.082-2.256c-0.729,0-1.252,0.176-1.57,0.526C255.52,297.869,255.36,298.445,255.36,299.248z"/>
	<path style="display:inline;" d="M293.414,301.452l0.01-2.347c0.007-0.81-0.157-1.368-0.494-1.674s-0.866-0.458-1.587-0.458
		c-0.729,0-1.25,0.166-1.566,0.5s-0.478,0.877-0.484,1.633v0.877h-13.42l0.011-1.918c0-1.149,0.159-2.114,0.479-2.893
		c0.319-0.779,0.84-1.406,1.562-1.883c0.721-0.476,1.667-0.818,2.837-1.025c1.17-0.208,2.605-0.311,4.307-0.311h12.878
		c1.701,0,3.137,0.103,4.307,0.311c1.17,0.207,2.118,0.556,2.847,1.046c0.728,0.49,1.251,1.126,1.566,1.909
		c0.317,0.783,0.479,1.731,0.485,2.847l-0.011,20.675h-21.95c-3.116,0.055-5.475-0.566-7.077-1.862
		c-1.602-1.296-2.502-3.717-2.699-7.261c0.463-5.286,3.681-8.007,9.654-8.164H293.414z M293.517,310.993v-4.142l-1.878,0.631
		c-0.897,0.307-1.519,0.669-1.862,1.088c-0.344,0.418-0.519,1.032-0.525,1.841v0.582c0,1.423,0.696,2.133,2.092,2.133
		c0.721,0,1.264-0.167,1.628-0.5C293.335,312.293,293.517,311.749,293.517,310.993z"/>
	<path style="display:inline;" d="M341.07,312.729c-0.007,1.143-0.171,2.096-0.49,2.862c-0.32,0.765-0.842,1.391-1.565,1.878
		c-0.726,0.486-1.673,0.833-2.843,1.041c-1.171,0.207-2.605,0.311-4.306,0.311h-13.542c-1.701,0-3.137-0.104-4.307-0.311
		c-1.17-0.208-2.111-0.548-2.821-1.021c-0.712-0.474-1.227-1.099-1.547-1.878c-0.319-0.779-0.476-1.74-0.469-2.882l-0.01-3.297
		h14.001v2.214c0,1.362,0.643,2.041,1.928,2.041c0.667,0,1.154-0.159,1.465-0.479c0.309-0.32,0.461-0.84,0.454-1.562v-0.713
		c0-1.197-1.068-2.072-3.204-2.623l-8.042-1.97c-2.503-0.639-4.188-1.348-5.051-2.127c-0.865-0.779-1.294-1.974-1.287-3.587
		l-0.01-2.5c0-1.143,0.162-2.104,0.485-2.883c0.322-0.779,0.845-1.405,1.565-1.877c0.722-0.474,1.667-0.813,2.838-1.021
		c1.17-0.208,2.605-0.311,4.306-0.311h13.247c1.7,0,3.135,0.103,4.306,0.311c1.17,0.207,2.117,0.554,2.843,1.041
		c0.724,0.486,1.245,1.119,1.565,1.898c0.319,0.778,0.48,1.726,0.48,2.842l0.01,1.796h-13.879v-0.673
		c-0.007-1.361-0.649-2.041-1.929-2.041c-0.558,0-1.018,0.14-1.378,0.419c-0.36,0.279-0.54,0.639-0.54,1.081
		c0.007,0.28,0.051,0.53,0.132,0.75c0.082,0.222,0.254,0.431,0.517,0.628c0.261,0.197,0.642,0.386,1.143,0.567
		c0.5,0.18,1.168,0.365,2.005,0.556l6.021,1.51c3.122,0.803,5.214,1.678,6.275,2.623c1.088,0.917,1.633,2.31,1.633,4.173V312.729z"
		/>
	<g style="display:inline;">
		<path d="M83.47,333.054h5.157v1.048h-4.104v3.842h3.443v1.049h-3.443v5.711H83.47V333.054z"/>
		<path d="M92.478,335.604h2.783c1.368,0,2.453,0.716,2.453,2.48c0,1.117-0.676,2.217-1.667,2.549l2.013,3.686l-0.912,0.611
			l-2.092-4.121H93.53v3.895h-1.053V335.604z M94.915,339.76c1.021,0,1.697-0.646,1.697-1.676c0-0.821-0.439-1.432-1.383-1.432
			H93.53v3.108H94.915z"/>
		<path d="M107.194,340.163c0,0.733-0.048,4.697-2.91,4.697c-1.321,0-2.909-1.047-2.909-4.697c0-3.633,1.558-4.716,2.909-4.716
			C105.589,335.447,107.194,336.495,107.194,340.163z M102.476,340.163c0,1.327,0.221,3.598,1.809,3.598s1.809-2.271,1.809-3.598
			c0-1.346-0.221-3.616-1.809-3.616S102.476,338.817,102.476,340.163z"/>
		<path d="M110.98,335.604h1.306l3.176,7.667l0.032-0.034l-0.095-2.358v-5.274h1.055v9.1h-1.307l-3.176-7.668l-0.031,0.035
			l0.094,2.375v5.258h-1.054V335.604z"/>
		<path d="M122.646,336.652h-2.265v-1.048h5.535v1.048H123.7v8.051h-1.054V336.652z"/>
		<path d="M130.334,335.604h5.11v1.048h-4.057v2.724h3.35v1.048h-3.35v3.23h4.057v1.049h-5.11V335.604z"/>
		<path d="M139.278,335.604h1.306l3.177,7.667l0.031-0.034l-0.094-2.358v-5.274h1.053v9.1h-1.305l-3.177-7.668l-0.032,0.035
			l0.096,2.375v5.258h-1.055V335.604z"/>
		<path d="M148.602,335.604h2.736c2.327,0,3.381,1.065,3.381,4.436c0,2.848-0.44,4.664-3.381,4.664h-2.736v-1.049h0.849v-7.002
			h-0.849V335.604z M150.505,343.655h1.116c1.384,0,1.997-0.873,1.997-3.492c0-2.795-0.724-3.51-2.029-3.51h-1.084V343.655z"/>
		<path d="M173.584,333.054l-1.054,11.876h-0.456l-1.745-7.038h-0.031l-1.746,7.038h-0.457l-1.053-11.876l1.053-0.227l0.504,8.75
			h0.031l1.525-6.13h0.315l1.524,6.13h0.032l0.503-8.75L173.584,333.054z"/>
		<path d="M177.497,335.604h5.11v1.048h-4.057v2.724h3.349v1.048h-3.349v3.23h4.057v1.049h-5.11V335.604z"/>
		<path d="M186.38,344.704v-1.049h0.849v-7.002h-0.849v-1.048h2.578c2.076,0,2.973,0.873,2.973,2.428
			c0,0.785-0.299,1.484-0.928,1.869c0.896,0.313,1.399,1.17,1.399,2.2c0,1.642-0.976,2.603-2.689,2.603H186.38z M189.462,339.499
			c0.912,0,1.367-0.646,1.367-1.467c0-1.083-0.691-1.379-1.431-1.379h-1.116v2.846H189.462z M189.509,343.655
			c0.928,0,1.793-0.227,1.793-1.467c0-0.908-0.535-1.642-1.541-1.642h-1.479v3.108H189.509z"/>
		<path d="M205.198,334.102v-1.048h2.767c2.107,0,3.35,1.03,3.35,5.833c0,2.568-0.126,5.816-3.317,5.816h-2.799v-1.049h0.848v-9.553
			H205.198z M207.101,343.655h0.864c1.274,0,2.249-0.366,2.249-4.768c0-4.436-1.069-4.785-1.996-4.785h-1.117V343.655z"/>
		<path d="M215.228,335.604h5.111v1.048h-4.058v2.724h3.35v1.048h-3.35v3.23h4.058v1.049h-5.111V335.604z"/>
		<path d="M229.143,335.377l1.006,0.419l-3.146,9.134h-0.188l-3.145-9.134l1.007-0.419l2.232,6.672L229.143,335.377z"/>
		<path d="M234.093,335.604h5.111v1.048h-4.058v2.724h3.35v1.048h-3.35v3.23h4.058v1.049h-5.111V335.604z"/>
		<path d="M243.729,335.604h1.054v8.051h4.294v1.049h-5.348V335.604z"/>
		<path d="M258.116,340.163c0,0.733-0.047,4.697-2.909,4.697c-1.321,0-2.909-1.047-2.909-4.697c0-3.633,1.557-4.716,2.909-4.716
			C256.513,335.447,258.116,336.495,258.116,340.163z M253.399,340.163c0,1.327,0.22,3.598,1.808,3.598
			c1.589,0,1.809-2.271,1.809-3.598c0-1.346-0.22-3.616-1.809-3.616C253.619,336.547,253.399,338.817,253.399,340.163z"/>
		<path d="M263.523,344.704h-1.054v-9.1h2.547c1.904,0,2.643,1.153,2.643,2.48c0,1.921-1.226,2.707-2.375,2.707h-1.761V344.704z
			 M264.97,339.743c1.037,0,1.589-0.523,1.589-1.571c0-1.24-0.724-1.519-1.589-1.519h-1.446v3.09H264.97z"/>
		<path d="M272.233,337.333H272.2l-0.205,7.371h-1.115l0.33-9.1h1.385l1.477,3.947l1.479-3.947h1.384l0.33,9.1h-1.116l-0.204-7.371
			h-0.031l-1.842,4.803L272.233,337.333z"/>
		<path d="M281.257,335.604h5.11v1.048h-4.059v2.724h3.352v1.048h-3.352v3.23h4.059v1.049h-5.11V335.604z"/>
		<path d="M290.202,335.604h1.305l3.178,7.667l0.031-0.034l-0.094-2.358v-5.274h1.053v9.1h-1.305l-3.176-7.668l-0.033,0.035
			l0.096,2.375v5.258h-1.055V335.604z"/>
		<path d="M301.868,336.652h-2.265v-1.048h5.536v1.048h-2.216v8.051h-1.054V336.652z"/>
		<path d="M82.573,355.065v-1.049h2.768c2.106,0,3.35,1.031,3.35,5.834c0,2.566-0.127,5.814-3.318,5.814h-2.799v-1.047h0.849v-9.553
			H82.573z M84.476,364.618h0.865c1.273,0,2.248-0.367,2.248-4.768c0-4.436-1.069-4.785-1.996-4.785h-1.117V364.618z"/>
		<path d="M92.603,356.567h5.111v1.047h-4.058v2.725h3.351v1.049h-3.351v3.23h4.058v1.047h-5.111V356.567z"/>
		<path d="M102.57,362.784c0.204,1.117,0.692,1.939,1.792,1.939c0.865,0,1.542-0.525,1.542-1.537c0-1.119-0.85-1.398-1.651-1.766
			c-1.195-0.559-2.328-0.908-2.328-2.619c0-1.537,1.117-2.393,2.406-2.393c1.369,0,2.17,0.873,2.501,2.289l-1.007,0.33
			c-0.188-0.891-0.613-1.52-1.51-1.52c-0.676,0-1.336,0.385-1.336,1.205c0,0.857,0.472,1.102,1.1,1.416l1.746,0.855
			c0.739,0.455,1.133,1.188,1.133,2.131c0,1.729-1.086,2.707-2.596,2.707c-1.525,0-2.484-1.084-2.736-2.707L102.57,362.784z"/>
		<path d="M112.034,364.618h1.148v-7.004h-1.148v-1.047h3.365v1.047h-1.164v7.004h1.164v1.047h-3.365V364.618z"/>
		<path d="M125.917,364.827c-0.676,0.594-1.682,0.996-2.516,0.996c-2.406,0-3.098-2.48-3.098-4.715c0-2.201,0.723-4.699,3.066-4.699
			c1.101,0,2.061,0.717,2.626,1.746l-0.896,0.646c-0.393-0.732-0.991-1.293-1.792-1.293c-1.62,0-1.903,2.254-1.903,3.633
			c0,1.416,0.283,3.582,1.935,3.582c0.535,0,1.068-0.158,1.525-0.473v-2.393h-1.967v-1.047h3.02V364.827z"/>
		<path d="M129.847,356.567h1.305l3.176,7.666l0.032-0.035l-0.095-2.357v-5.273h1.055v9.098h-1.306l-3.177-7.666l-0.031,0.035
			l0.094,2.375v5.256h-1.053V356.567z"/>
		<path d="M150.913,355.065h-1.415v-1.049h3.899v1.049h-1.432v9.553h1.432v1.047h-3.899v-1.047h1.415V355.065z"/>
		<path d="M158.836,356.567h1.054v8.051h4.293v1.047h-5.347V356.567z"/>
		<path d="M168.269,356.567h1.054v8.051h4.294v1.047h-5.348V356.567z"/>
		<path d="M178.236,356.567v6.199c0,1.328,0.346,1.957,1.431,1.957c1.321,0,1.604-0.646,1.604-1.957v-6.199h1.055v6.758
			c0,1.205-0.771,2.498-2.579,2.498c-1.777,0-2.563-1.24-2.563-2.568v-6.688H178.236z"/>
		<path d="M187.464,362.784c0.205,1.117,0.692,1.939,1.793,1.939c0.865,0,1.541-0.525,1.541-1.537c0-1.119-0.849-1.398-1.65-1.766
			c-1.195-0.559-2.328-0.908-2.328-2.619c0-1.537,1.117-2.393,2.406-2.393c1.368,0,2.17,0.873,2.5,2.289l-1.006,0.33
			c-0.189-0.891-0.613-1.52-1.51-1.52c-0.676,0-1.337,0.385-1.337,1.205c0,0.857,0.472,1.102,1.101,1.416l1.746,0.855
			c0.739,0.455,1.133,1.188,1.133,2.131c0,1.729-1.086,2.707-2.596,2.707c-1.525,0-2.484-1.084-2.736-2.707L187.464,362.784z"/>
		<path d="M198.108,357.614h-2.266v-1.047h5.536v1.047h-2.218v8.051h-1.053V357.614z"/>
		<path d="M205.669,356.567h2.783c1.369,0,2.453,0.715,2.453,2.479c0,1.119-0.676,2.219-1.666,2.551l2.012,3.686l-0.911,0.611
			l-2.092-4.123h-1.525v3.895h-1.054V356.567z M208.106,360.723c1.022,0,1.699-0.646,1.699-1.678c0-0.82-0.441-1.432-1.385-1.432
			h-1.698v3.109H208.106z"/>
		<path d="M216.03,363.186l-0.771,2.707l-1.037-0.42l2.578-8.906h1.354l2.578,8.906l-1.037,0.42l-0.756-2.707H216.03z
			 M217.477,357.928l-1.164,4.209h2.327L217.477,357.928z"/>
		<path d="M226.405,357.614h-2.264v-1.047h5.535v1.047h-2.217v8.051h-1.055V357.614z"/>
		<path d="M234.659,364.618h1.148v-7.004h-1.148v-1.047h3.365v1.047h-1.164v7.004h1.164v1.047h-3.365V364.618z"/>
		<path d="M248.684,361.125c0,0.732-0.048,4.697-2.909,4.697c-1.32,0-2.909-1.049-2.909-4.697c0-3.633,1.557-4.717,2.909-4.717
			C247.079,356.409,248.684,357.458,248.684,361.125z M243.966,361.125c0,1.326,0.221,3.598,1.809,3.598s1.809-2.271,1.809-3.598
			c0-1.346-0.221-3.617-1.809-3.617S243.966,359.78,243.966,361.125z"/>
		<path d="M252.472,356.567h1.305l3.176,7.666l0.032-0.035l-0.095-2.357v-5.273h1.054v9.098h-1.306l-3.176-7.666l-0.032,0.035
			l0.095,2.375v5.256h-1.053V356.567z"/>
	</g>
</g>
</svg>
