<?xml version="1.0" encoding="utf-8"?>
<!-- Generator: Adobe Illustrator 16.0.0, SVG Export Plug-In . SVG Version: 6.00 Build 0)  -->
<!DOCTYPE svg PUBLIC "-//W3C//DTD SVG 1.1//EN" "http://www.w3.org/Graphics/SVG/1.1/DTD/svg11.dtd">
<svg version="1.1" xmlns="http://www.w3.org/2000/svg" xmlns:xlink="http://www.w3.org/1999/xlink" x="0px" y="0px" width="260px"
	 height="260px" viewBox="0 0 260 260" enable-background="new 0 0 260 260" xml:space="preserve">
<g id="Layer_1">
</g>
<g id="Layer_3">
	<path stroke="#000000" stroke-miterlimit="10" d="M130.167,4c-69.587,0-126,56.412-126,126c0,69.588,56.412,126,126,126
		c69.588,0,126-56.412,126-126C256.167,60.413,199.755,4,130.167,4z M37.5,191.5h-8v-8h8V191.5z M37.5,93.5h-8v-8h8V93.5z
		 M47.5,191.5h-8v-8h8V191.5z M47.5,93.5h-8v-8h8V93.5z M56.5,191.5h-7v-8h7V191.5z M56.5,181.5h-7v-8h7V181.5z M56.5,171.5h-7v-8h7
		V171.5z M56.5,161.5h-7v-8h7V161.5z M56.5,151.5h-7v-7h7V151.5z M56.5,142.5h-7v-8h7V142.5z M56.5,132.5h-7v-8h7V132.5z
		 M56.5,122.5h-7v-8h7V122.5z M56.5,112.5h-7v-8h7V112.5z M56.5,102.5h-7v-7h7V102.5z M56.5,93.5h-7v-8h7V93.5z M66.5,181.5h-8v-8h8
		V181.5z M66.5,171.5h-8v-8h8V171.5z M66.5,161.5h-8v-8h8V161.5z M66.5,151.5h-8v-7h8V151.5z M66.5,142.5h-8v-8h8V142.5z
		 M66.5,132.5h-8v-8h8V132.5z M66.5,122.5h-8v-8h8V122.5z M66.5,112.5h-8v-8h8V112.5z M66.5,102.5h-8v-7h8V102.5z M66.5,93.5h-8v-8
		h8V93.5z M86.5,161.5h-8v-8h8V161.5z M86.5,151.5h-8v-7h8V151.5z M86.5,142.5h-8v-8h8V142.5z M86.5,132.5h-8v-8h8V132.5z
		 M86.5,122.5h-8v-8h8V122.5z M86.5,112.5h-8v-8h8V112.5z M96.5,161.5h-8v-8h8V161.5z M96.5,151.5h-8v-7h8V151.5z M96.5,142.5h-8v-8
		h8V142.5z M96.5,132.5h-8v-8h8V132.5z M96.5,122.5h-8v-8h8V122.5z M96.5,112.5h-8v-8h8V112.5z M105.5,161.5h-7v-8h7V161.5z
		 M105.5,112.5h-7v-8h7V112.5z M115.5,161.5h-8v-8h8V161.5z M115.5,151.5h-8v-7h8V151.5z M115.5,142.5h-8v-8h8V142.5z M115.5,132.5
		h-8v-8h8V132.5z M115.5,122.5h-8v-8h8V122.5z M115.5,112.5h-8v-8h8V112.5z M125.5,161.5h-8v-8h8V161.5z M125.5,151.5h-8v-7h8V151.5
		z M125.5,142.5h-8v-8h8V142.5z M125.5,132.5h-8v-8h8V132.5z M125.5,122.5h-8v-8h8V122.5z M125.5,112.5h-8v-8h8V112.5z M145.5,161.5
		h-8v-8h8V161.5z M145.5,151.5h-8v-7h8V151.5z M145.5,142.5h-8v-8h8V142.5z M145.5,132.5h-8v-8h8V132.5z M145.5,122.5h-8v-8h8V122.5
		z M145.5,112.5h-8v-8h8V112.5z M145.5,102.5h-8v-7h8V102.5z M145.5,93.5h-8v-8h8V93.5z M154.5,161.5h-7v-8h7V161.5z M154.5,151.5
		h-7v-7h7V151.5z M154.5,142.5h-7v-8h7V142.5z M154.5,132.5h-7v-8h7V132.5z M154.5,122.5h-7v-8h7V122.5z M154.5,112.5h-7v-8h7V112.5
		z M154.5,102.5h-7v-7h7V102.5z M154.5,93.5h-7v-8h7V93.5z M164.5,112.5h-8v-8h8V112.5z M174.5,161.5h-8v-8h8V161.5z M174.5,151.5
		h-8v-7h8V151.5z M174.5,142.5h-8v-8h8V142.5z M174.5,132.5h-8v-8h8V132.5z M174.5,122.5h-8v-8h8V122.5z M174.5,112.5h-8v-8h8V112.5
		z M184.5,161.5h-8v-8h8V161.5z M184.5,151.5h-8v-7h8V151.5z M184.5,142.5h-8v-8h8V142.5z M184.5,132.5h-8v-8h8V132.5z M184.5,122.5
		h-8v-8h8V122.5z M184.5,112.5h-8v-8h8V112.5z M203.5,161.5h-8v-8h8V161.5z M203.5,151.5h-8v-7h8V151.5z M203.5,142.5h-8v-8h8V142.5
		z M203.5,132.5h-8v-8h8V132.5z M203.5,122.5h-8v-8h8V122.5z M203.5,112.5h-8v-8h8V112.5z M213.5,161.5h-8v-8h8V161.5z M213.5,151.5
		h-8v-7h8V151.5z M213.5,142.5h-8v-8h8V142.5z M213.5,132.5h-8v-8h8V132.5z M213.5,122.5h-8v-8h8V122.5z M213.5,112.5h-8v-8h8V112.5
		z M223.5,112.5h-8v-8h8V112.5z M233.5,161.5h-8v-8h8V161.5z M233.5,151.5h-8v-7h8V151.5z M233.5,142.5h-8v-8h8V142.5z M233.5,132.5
		h-8v-8h8V132.5z M233.5,122.5h-8v-8h8V122.5z M233.5,112.5h-8v-8h8V112.5z M242.5,161.5h-8v-8h8V161.5z M242.5,151.5h-8v-7h8V151.5
		z M242.5,142.5h-8v-8h8V142.5z M242.5,132.5h-8v-8h8V132.5z M242.5,122.5h-8v-8h8V122.5z M234.5,112.5v-8h8v8H234.5z"/>
</g>
<g id="Layer_2" display="none">
	<path display="inline" fill="#0092FF" stroke="#0092FF" stroke-miterlimit="10" d="M-0.5,0.5v258h260V0.5H-0.5z M57.5,196.5h-13
		v-13h13V196.5z M57.5,35.5h-13v-12h13V35.5z M73.5,196.5h-13v-13h13V196.5z M73.5,35.5h-13v-12h13V35.5z M89.5,196.5h-12v-13h12
		V196.5z M89.5,179.5h-12v-12h12V179.5z M89.5,163.5h-12v-12h12V163.5z M89.5,147.5h-12v-12h12V147.5z M89.5,131.5h-12v-12h12V131.5
		z M89.5,115.5h-12v-12h12V115.5z M89.5,99.5h-12v-12h12V99.5z M89.5,83.5h-12v-12h12V83.5z M89.5,67.5h-12v-12h12V67.5z M89.5,51.5
		h-12v-12h12V51.5z M89.5,35.5h-12v-12h12V35.5z M105.5,179.5h-13v-12h13V179.5z M105.5,163.5h-13v-12h13V163.5z M105.5,147.5h-13
		v-12h13V147.5z M105.5,131.5h-13v-12h13V131.5z M105.5,115.5h-13v-12h13V115.5z M105.5,99.5h-13v-12h13V99.5z M105.5,83.5h-13v-12
		h13V83.5z M105.5,67.5h-13v-12h13V67.5z M105.5,51.5h-13v-12h13V51.5z M105.5,35.5h-13v-12h13V35.5z M137.5,147.5h-12v-12h12V147.5
		z M137.5,131.5h-12v-12h12V131.5z M137.5,115.5h-12v-12h12V115.5z M137.5,99.5h-12v-12h12V99.5z M137.5,83.5h-12v-12h12V83.5z
		 M137.5,67.5h-12v-12h12V67.5z M137.5,51.5h-12v-12h12V51.5z M137.5,35.5h-12v-12h12V35.5z M153.5,147.5h-12v-12h12V147.5z
		 M153.5,131.5h-12v-12h12V131.5z M153.5,115.5h-12v-12h12V115.5z M153.5,99.5h-12v-12h12V99.5z M153.5,83.5h-12v-12h12V83.5z
		 M153.5,67.5h-12v-12h12V67.5z M153.5,51.5h-12v-12h12V51.5z M153.5,35.5h-12v-12h12V35.5z M169.5,67.5h-13v-12h13V67.5z
		 M169.5,51.5h-13v-12h13V51.5z M185.5,83.5h-12v-12h12V83.5z M185.5,67.5h-12v-12h12V67.5z M201.5,67.5h-13v-12h13V67.5z
		 M201.5,51.5h-13v-12h13V51.5z M217.5,147.5h-12v-12h12V147.5z M217.5,131.5h-12v-12h12V131.5z M217.5,115.5h-12v-12h12V115.5z
		 M217.5,99.5h-12v-12h12V99.5z M217.5,83.5h-12v-12h12V83.5z M217.5,67.5h-12v-12h12V67.5z M217.5,51.5h-12v-12h12V51.5z
		 M217.5,35.5h-12v-12h12V35.5z M233.5,147.5h-12v-12h12V147.5z M233.5,131.5h-12v-12h12V131.5z M233.5,115.5h-12v-12h12V115.5z
		 M233.5,99.5h-12v-12h12V99.5z M233.5,83.5h-12v-12h12V83.5z M233.5,67.5h-12v-12h12V67.5z M233.5,51.5h-12v-12h12V51.5z
		 M233.5,35.5h-12v-12h12V35.5z"/>
</g>
</svg>
