<?xml version="1.0" encoding="iso-8859-1"?>
<!-- Generator: Adobe Illustrator 16.0.0, SVG Export Plug-In . SVG Version: 6.00 Build 0)  -->
<!DOCTYPE svg PUBLIC "-//W3C//DTD SVG 1.1//EN" "http://www.w3.org/Graphics/SVG/1.1/DTD/svg11.dtd">
<svg version="1.1" xmlns="http://www.w3.org/2000/svg" xmlns:xlink="http://www.w3.org/1999/xlink" x="0px" y="0px" width="612px"
	 height="1008px" viewBox="0 0 612 1008" style="enable-background:new 0 0 612 1008;" xml:space="preserve">
<g id="Layer_2" style="display:none;">
	<rect x="-506" y="54" style="display:inline;fill:#75ADDE;stroke:#75ADDE;stroke-miterlimit:10;" width="207" height="108"/>
</g>
<g id="Layer_3" style="display:none;">
</g>
<g id="Layer_4" style="display:none;">
	<rect x="70" y="196.334" style="display:inline;fill:#488ECC;" width="211.837" height="109.666"/>
</g>
<g id="Layer_4_copy">
	<rect x="88" y="198" style="fill:#488ECC;" width="216" height="108"/>
	<polygon style="fill:#FFFFFF;" points="88,306 196,297 304,306 	"/>
	<polygon style="fill:#FFFFFF;" points="88,198 196,207 304,198 	"/>
	<polygon style="fill:#FFFFFF;" points="88,306 97,261 88,198 	"/>
	<polygon style="fill:#FFFFFF;" points="304,306 295,261 304,198 	"/>
	<polygon style="fill:#488ECC;" points="304,342 196,351 88,342 97,405 88,450 196,441 304,450 295,405 	"/>
	<rect x="88" y="342" style="fill:#488ECC;" width="0" height="0"/>
	<rect x="196" y="351" style="fill:#488ECC;" width="0" height="0"/>
	<polygon style="opacity:0.3;fill:#EAEA92;" points="196,414 97,405 88,342 196,351 	"/>
	<polygon style="opacity:0.5;fill:#EAEA92;" points="196,414 295,405 304,342 196,351 	"/>
	<polygon style="opacity:0.4;fill:#EAEA92;" points="196,441 304,450 295,405 196,414 	"/>
	<polygon style="opacity:0.5;fill:#EAEA92;" points="196,441 88,450 97,405 196,414 	"/>
</g>
<g id="Layer_5" style="display:none;">
	<path style="display:inline;fill:#F8A378;" d="M430.561,321.544c-2.617-4.55-6.586-6.827-11.915-6.827
		c-5.328,0-9.297,2.277-11.915,6.827c-2.614,4.548-3.923,9.929-3.923,16.138c0,6.312,1.309,11.712,3.923,16.197
		c1.257,2.148,2.828,3.768,4.703,4.887c-0.127,0.348-0.21,0.715-0.21,1.122c0,0.794,0.268,1.464,0.741,2.035
		c-0.474,0.569-0.741,1.238-0.741,2.031c0,0.795,0.268,1.464,0.741,2.036c-0.474,0.569-0.741,1.237-0.741,2.031
		c0,1.307,0.641,2.312,1.924,3.016c0.628,0.346,1.395,0.605,2.286,0.781c0.068,0.157,0.126,0.332,0.206,0.477
		c0.703,1.291,1.709,1.934,3.015,1.934s2.308-0.644,3.009-1.934c0.077-0.146,0.136-0.325,0.207-0.484
		c0.88-0.176,1.638-0.431,2.264-0.774c1.289-0.704,1.933-1.708,1.933-3.016c0-0.794-0.268-1.462-0.743-2.031
		c0.476-0.572,0.743-1.241,0.743-2.036c0-0.793-0.268-1.462-0.743-2.031c0.476-0.57,0.743-1.241,0.743-2.035
		c0-0.407-0.085-0.773-0.21-1.122c1.878-1.118,3.448-2.739,4.704-4.887c2.614-4.485,3.924-9.885,3.924-16.197
		C434.484,331.473,433.175,326.092,430.561,321.544z"/>
	<circle style="display:inline;fill:#FBF178;" cx="313.583" cy="248.845" r="38.716"/>
	<ellipse style="display:inline;fill:#FBF178;" cx="313.583" cy="273.946" rx="18.378" ry="22.711"/>
	<circle style="display:inline;fill:#2BB673;" cx="334.594" cy="242.364" r="21.011"/>
	<circle style="display:inline;fill:#FFFFFF;" cx="334.594" cy="242.364" r="13.734"/>
	<circle style="display:inline;fill:#2BB673;" cx="292.572" cy="242.364" r="21.011"/>
	<circle style="display:inline;fill:#FFFFFF;" cx="292.572" cy="242.364" r="13.734"/>
</g>
<g id="Layer_6" style="display:none;">
</g>
<g id="Layer_7" style="display:none;">
</g>
<g id="Layer_1" style="display:none;">
	<path style="display:inline;fill:#FBF178;" d="M-483.368,99.09v0.689c0.037,2.312,0.208,3.936,0.514,4.876
		c0.307,0.939,0.962,1.408,1.968,1.408c0.995,0,1.654-0.513,1.974-1.541c0.192-0.608,0.288-1.634,0.288-3.082v-20.9h4.496v20.799
		c0,2.541-0.31,4.555-0.928,6.042c-1.047,2.513-2.935,3.77-5.666,3.77c-2.73,0-4.562-1.017-5.494-3.051
		c-0.933-2.035-1.399-4.808-1.399-8.322V99.09H-483.368z"/>
	<path style="display:inline;fill:#FBF178;" d="M-454.197,107.72c-1.343,2.302-3.38,3.453-6.116,3.453
		c-2.734,0-4.772-1.151-6.115-3.453c-1.342-2.302-2.014-5.074-2.014-8.315c0-3.187,0.671-5.949,2.014-8.284
		c1.343-2.335,3.381-3.504,6.115-3.504c2.736,0,4.773,1.169,6.116,3.504c1.343,2.335,2.014,5.097,2.014,8.284
		C-452.183,102.646-452.854,105.417-454.197,107.72z M-457.525,104.526c0.651-1.2,0.979-2.907,0.979-5.121
		c0-2.213-0.327-3.917-0.979-5.111c-0.651-1.195-1.585-1.792-2.802-1.792c-1.218,0-2.152,0.597-2.809,1.792
		c-0.658,1.194-0.986,2.898-0.986,5.111c0,2.214,0.328,3.921,0.986,5.121c0.657,1.202,1.591,1.802,2.809,1.802
		C-459.11,106.328-458.176,105.728-457.525,104.526z"/>
	<path style="display:inline;fill:#333225;" d="M-255.868,173.908c-2.37,4.061-5.964,6.092-10.791,6.092
		c-4.824,0-8.418-2.031-10.788-6.092c-2.367-4.062-3.553-8.952-3.553-14.668c0-5.622,1.186-10.495,3.553-14.614
		c2.37-4.12,5.964-6.182,10.788-6.182c4.827,0,8.421,2.062,10.791,6.182c2.367,4.119,3.553,8.992,3.553,14.614
		C-252.315,164.957-253.501,169.847-255.868,173.908z"/>
	<path style="display:inline;fill:#333225;" d="M-261.689,176.625c-1.166-0.632-2.826-0.951-4.979-0.951
		c-2.151,0-3.808,0.319-4.969,0.951c-1.162,0.634-1.742,1.542-1.742,2.725c0,1.183,0.58,2.093,1.742,2.731
		c1.161,0.64,2.817,0.958,4.969,0.958c2.152,0,3.812-0.319,4.979-0.958c1.169-0.638,1.752-1.548,1.752-2.731
		C-259.938,178.167-260.521,177.259-261.689,176.625z"/>
	<path style="display:inline;fill:#333225;" d="M-261.689,180.308c-1.166-0.632-2.826-0.951-4.979-0.951
		c-2.151,0-3.808,0.319-4.969,0.951c-1.162,0.634-1.742,1.542-1.742,2.725c0,1.183,0.58,2.093,1.742,2.731
		c1.161,0.64,2.817,0.958,4.969,0.958c2.152,0,3.812-0.319,4.979-0.958c1.169-0.638,1.752-1.548,1.752-2.731
		C-259.938,181.85-260.521,180.942-261.689,180.308z"/>
	<path style="display:inline;fill:#333225;" d="M-261.689,183.99c-1.166-0.632-2.826-0.951-4.979-0.951
		c-2.151,0-3.808,0.319-4.969,0.951c-1.162,0.634-1.742,1.542-1.742,2.725c0,1.183,0.58,2.093,1.742,2.731
		c1.161,0.64,2.817,0.958,4.969,0.958c2.152,0,3.812-0.319,4.979-0.958c1.169-0.638,1.752-1.548,1.752-2.731
		C-259.938,185.532-260.521,184.625-261.689,183.99z"/>
	<path style="display:inline;fill:#333225;" d="M-263.926,190.584c0.633-1.166,0.951-2.826,0.951-4.979
		c0-2.151-0.318-3.808-0.951-4.969c-0.634-1.162-1.542-1.742-2.725-1.742s-2.093,0.58-2.73,1.742
		c-0.64,1.161-0.959,2.817-0.959,4.969c0,2.152,0.319,3.812,0.959,4.979c0.638,1.169,1.548,1.752,2.73,1.752
		S-264.56,191.753-263.926,190.584z"/>
	<path style="display:inline;fill:#FFF488;" d="M-203.868,142.694c-2.37-4.12-5.964-6.182-10.791-6.182
		c-4.824,0-8.418,2.062-10.788,6.182c-2.367,4.119-3.553,8.992-3.553,14.614c0,5.717,1.186,10.607,3.553,14.668
		c1.136,1.945,2.56,3.412,4.258,4.425c-0.113,0.315-0.189,0.647-0.189,1.016c0,0.719,0.241,1.325,0.671,1.843
		c-0.43,0.516-0.671,1.121-0.671,1.84s0.241,1.325,0.671,1.843c-0.43,0.516-0.671,1.121-0.671,1.84c0,1.183,0.58,2.093,1.742,2.731
		c0.569,0.314,1.262,0.548,2.069,0.708c0.062,0.142,0.115,0.301,0.187,0.431c0.638,1.169,1.548,1.752,2.73,1.752
		s2.091-0.583,2.725-1.752c0.071-0.132,0.124-0.293,0.188-0.438c0.797-0.16,1.483-0.391,2.049-0.701
		c1.169-0.638,1.752-1.548,1.752-2.731c0-0.719-0.242-1.324-0.674-1.84c0.432-0.518,0.674-1.124,0.674-1.843
		s-0.242-1.324-0.674-1.84c0.432-0.518,0.674-1.124,0.674-1.843c0-0.368-0.077-0.7-0.19-1.015c1.699-1.014,3.124-2.48,4.26-4.426
		c2.367-4.062,3.553-8.952,3.553-14.668C-200.315,151.687-201.501,146.813-203.868,142.694z"/>
	<path style="display:inline;fill:#FBF178;" d="M-435.529,88.448c0.799,0.474,1.457,1.197,1.97,2.171
		c0.435,0.825,0.702,1.675,0.799,2.546c0.098,0.872,0.146,2.297,0.146,4.271v12.986h-4.249V96.967c0-1.191-0.144-2.152-0.435-2.881
		c-0.375-1.029-1.09-1.543-2.144-1.543c-1.092,0-1.92,0.511-2.486,1.533c-0.564,1.022-0.847,2.479-0.847,4.374v11.975h-4.159V80.643
		h4.159v10.541c0.6-1.284,1.296-2.179,2.085-2.686c0.789-0.506,1.621-0.759,2.492-0.759
		C-437.218,87.738-436.327,87.976-435.529,88.448z"/>
	<path style="display:inline;fill:#FBF178;" d="M-413.631,89.593c1.042,1.196,1.562,3.179,1.562,5.95v14.88h-4.261V96.982
		c0-1.163-0.112-2.055-0.334-2.676c-0.405-1.135-1.179-1.702-2.317-1.702c-1.402,0-2.363,0.831-2.885,2.494
		c-0.27,0.877-0.405,2-0.405,3.365v11.961h-4.159V88.367h4.028v3.224c0.533-1.136,1.037-1.954,1.512-2.453
		c0.852-0.892,1.934-1.338,3.242-1.338C-416.012,87.799-414.673,88.397-413.631,89.593z"/>
	<path style="display:inline;fill:#FBF178;" d="M-380.805,80.542h6.469v29.882h-4.189V90.211c0-0.582,0.005-1.396,0.015-2.442
		c0.009-1.048,0.016-1.856,0.016-2.423l-4.078,25.078h-4.369l-4.048-25.078c0,0.567,0.004,1.375,0.015,2.423
		c0.01,1.046,0.014,1.861,0.014,2.442v20.212h-4.189V80.542h6.542l3.917,23.496L-380.805,80.542z"/>
	<path style="display:inline;fill:#FBF178;" d="M-357.902,88.773c1.11,0.69,2.027,1.78,2.75,3.269
		c0.651,1.313,1.074,2.835,1.267,4.568c0.112,1.015,0.157,2.477,0.137,4.385h-11.588c0.065,2.217,0.62,3.771,1.664,4.664
		c0.636,0.554,1.401,0.832,2.294,0.832c0.949,0,1.718-0.338,2.31-1.014c0.323-0.365,0.609-0.873,0.856-1.521h4.246
		c-0.111,1.31-0.625,2.643-1.542,3.994c-1.424,2.149-3.419,3.223-5.986,3.223c-2.116,0-3.984-0.906-5.603-2.719
		c-1.62-1.812-2.428-4.762-2.428-8.846c0-3.827,0.73-6.763,2.19-8.806c1.461-2.042,3.358-3.063,5.69-3.063
		C-360.26,87.738-359.012,88.083-357.902,88.773z M-364.125,93.765c-0.588,0.842-0.956,1.981-1.108,3.42h7.168
		c-0.076-1.533-0.446-2.697-1.109-3.491c-0.664-0.794-1.486-1.191-2.468-1.191C-362.709,92.502-363.537,92.923-364.125,93.765z"/>
	<path style="display:inline;fill:#FBF178;" d="M-343.1,96.982c0.774-0.136,1.328-0.304,1.66-0.507
		c0.6-0.352,0.897-0.899,0.897-1.642c0-0.906-0.229-1.53-0.688-1.875c-0.458-0.345-1.132-0.518-2.019-0.518
		c-0.998,0-1.702,0.338-2.117,1.014c-0.296,0.5-0.494,1.177-0.592,2.027h-4.014c0.088-1.933,0.479-3.521,1.173-4.764
		c1.105-1.946,3-2.919,5.688-2.919c1.749,0,3.303,0.48,4.661,1.439c1.358,0.959,2.036,2.77,2.036,5.434v10.136
		c0,0.703,0.01,1.555,0.03,2.554c0.03,0.757,0.112,1.271,0.249,1.541c0.136,0.271,0.341,0.493,0.612,0.669v0.852h-4.524
		c-0.125-0.447-0.213-0.866-0.263-1.257c-0.049-0.393-0.087-0.838-0.117-1.338c-0.577,0.865-1.242,1.602-1.996,2.21
		c-0.9,0.716-1.919,1.074-3.054,1.074c-1.447,0-2.645-0.57-3.589-1.713c-0.944-1.142-1.417-2.76-1.417-4.855
		c0-2.717,0.76-4.683,2.281-5.899c0.832-0.662,2.058-1.136,3.675-1.419L-343.1,96.982z M-340.558,99.679
		c-0.266,0.229-0.535,0.416-0.807,0.557c-0.271,0.142-0.643,0.274-1.116,0.396l-0.947,0.243c-0.887,0.216-1.525,0.479-1.913,0.79
		c-0.654,0.528-0.982,1.345-0.982,2.454c0,0.986,0.2,1.7,0.599,2.139c0.401,0.439,0.888,0.658,1.462,0.658
		c0.908,0,1.747-0.365,2.511-1.094c0.767-0.73,1.164-2.062,1.193-3.995V99.679z"/>
	<path style="display:inline;fill:#FBF178;" d="M-327.31,103.368c0.087,1.027,0.278,1.757,0.57,2.189
		c0.52,0.77,1.478,1.156,2.876,1.156c0.82,0,1.475-0.17,1.958-0.507c0.483-0.338,0.726-0.845,0.726-1.52
		c0-0.649-0.195-1.143-0.584-1.48c-0.391-0.338-1.84-0.919-4.353-1.744c-1.807-0.622-3.082-1.398-3.821-2.332
		c-0.74-0.919-1.109-2.243-1.109-3.974c0-2.041,0.579-3.794,1.733-5.26c1.156-1.466,2.782-2.2,4.878-2.2
		c1.989,0,3.611,0.551,4.863,1.653c1.254,1.101,1.973,3.003,2.159,5.707h-4.159c-0.061-0.744-0.212-1.332-0.455-1.764
		c-0.459-0.784-1.238-1.176-2.342-1.176c-0.907,0-1.555,0.196-1.939,0.588c-0.385,0.392-0.578,0.851-0.578,1.379
		c0,0.662,0.205,1.142,0.614,1.438c0.41,0.311,1.859,0.845,4.345,1.603c1.656,0.54,2.898,1.358,3.725,2.452
		c0.818,1.108,1.229,2.494,1.229,4.156c0,2.189-0.588,3.977-1.765,5.362c-1.174,1.385-2.989,2.078-5.446,2.078
		c-2.507,0-4.357-0.733-5.551-2.199s-1.792-3.335-1.792-5.605H-327.31z"/>
	<g style="display:inline;">
		<path style="fill:#FBF178;" d="M-487.708,121.236h3.986v0.729h-3.173v2.673h2.662v0.729h-2.662v3.975h-0.813V121.236z"/>
		<path style="fill:#FBF178;" d="M-480.739,123.011h2.152c1.057,0,1.896,0.499,1.896,1.726c0,0.778-0.523,1.543-1.289,1.774
			l1.556,2.565l-0.706,0.425l-1.616-2.868h-1.179v2.71h-0.814V123.011z M-478.855,125.904c0.791,0,1.313-0.45,1.313-1.167
			c0-0.571-0.34-0.997-1.07-0.997h-1.312v2.164H-478.855z"/>
		<path style="fill:#FBF178;" d="M-469.358,126.183c0,0.51-0.036,3.27-2.249,3.27c-1.02,0-2.249-0.729-2.249-3.27
			c0-2.528,1.204-3.282,2.249-3.282C-470.598,122.901-469.358,123.631-469.358,126.183z M-473.005,126.183
			c0,0.923,0.17,2.504,1.397,2.504c1.229,0,1.398-1.581,1.398-2.504c0-0.936-0.17-2.516-1.398-2.516
			C-472.834,123.667-473.005,125.247-473.005,126.183z"/>
		<path style="fill:#FBF178;" d="M-466.425,123.011h1.01l2.455,5.336l0.024-0.024l-0.073-1.641v-3.671h0.814v6.333h-1.008
			l-2.456-5.336l-0.024,0.024l0.072,1.653v3.658h-0.814V123.011z"/>
		<path style="fill:#FBF178;" d="M-457.402,123.74h-1.75v-0.729h4.278v0.729h-1.714v5.603h-0.814V123.74z"/>
		<path style="fill:#FBF178;" d="M-451.454,123.011h3.951v0.729h-3.136v1.896h2.589v0.729h-2.589v2.249h3.136v0.729h-3.951V123.011z
			"/>
		<path style="fill:#FBF178;" d="M-444.534,123.011h1.009l2.456,5.336l0.024-0.024l-0.073-1.641v-3.671h0.814v6.333h-1.008
			l-2.456-5.336l-0.024,0.024l0.072,1.653v3.658h-0.814V123.011z"/>
		<path style="fill:#FBF178;" d="M-437.322,123.011h2.115c1.799,0,2.614,0.741,2.614,3.087c0,1.981-0.34,3.245-2.614,3.245h-2.115
			v-0.729h0.657v-4.874h-0.657V123.011z M-435.852,128.614h0.863c1.07,0,1.544-0.607,1.544-2.431c0-1.944-0.559-2.443-1.567-2.443
			h-0.839V128.614z"/>
		<path style="fill:#FBF178;" d="M-418,121.236l-0.814,8.265h-0.353l-1.349-4.898h-0.025l-1.349,4.898h-0.352l-0.814-8.265
			l0.814-0.158l0.389,6.089h0.024l1.18-4.266h0.243l1.179,4.266h0.024l0.389-6.089L-418,121.236z"/>
		<path style="fill:#FBF178;" d="M-414.969,123.011h3.951v0.729h-3.137v1.896h2.589v0.729h-2.589v2.249h3.137v0.729h-3.951V123.011z
			"/>
		<path style="fill:#FBF178;" d="M-408.098,129.343v-0.729h0.656v-4.874h-0.656v-0.729h1.993c1.605,0,2.298,0.608,2.298,1.689
			c0,0.547-0.232,1.033-0.718,1.3c0.693,0.219,1.082,0.815,1.082,1.532c0,1.143-0.753,1.811-2.078,1.811H-408.098z
			 M-405.715,125.721c0.706,0,1.058-0.449,1.058-1.021c0-0.753-0.534-0.96-1.106-0.96h-0.863v1.981H-405.715z M-405.679,128.614
			c0.717,0,1.385-0.158,1.385-1.021c0-0.632-0.413-1.143-1.19-1.143h-1.143v2.163H-405.679z"/>
		<path style="fill:#FBF178;" d="M-393.54,121.966v-0.729h2.14c1.629,0,2.589,0.717,2.589,4.06c0,1.787-0.097,4.047-2.564,4.047
			h-2.164v-0.729h0.657v-6.648H-393.54z M-392.07,128.614h0.669c0.984,0,1.738-0.255,1.738-3.318c0-3.087-0.827-3.33-1.544-3.33
			h-0.863V128.614z"/>
		<path style="fill:#FBF178;" d="M-385.781,123.011h3.951v0.729h-3.137v1.896h2.589v0.729h-2.589v2.249h3.137v0.729h-3.951V123.011z
			"/>
		<path style="fill:#FBF178;" d="M-375.02,122.853l0.778,0.292l-2.431,6.356h-0.146l-2.432-6.356l0.778-0.292l1.726,4.643
			L-375.02,122.853z"/>
		<path style="fill:#FBF178;" d="M-371.187,123.011h3.951v0.729h-3.136v1.896h2.589v0.729h-2.589v2.249h3.136v0.729h-3.951V123.011z
			"/>
		<path style="fill:#FBF178;" d="M-363.732,123.011h0.815v5.603h3.317v0.729h-4.132V123.011z"/>
		<path style="fill:#FBF178;" d="M-352.606,126.183c0,0.51-0.036,3.27-2.249,3.27c-1.021,0-2.249-0.729-2.249-3.27
			c0-2.528,1.203-3.282,2.249-3.282C-353.846,122.901-352.606,123.631-352.606,126.183z M-356.252,126.183
			c0,0.923,0.17,2.504,1.397,2.504c1.228,0,1.398-1.581,1.398-2.504c0-0.936-0.17-2.516-1.398-2.516
			C-356.083,123.667-356.252,125.247-356.252,126.183z"/>
		<path style="fill:#FBF178;" d="M-348.421,129.343h-0.813v-6.333h1.969c1.471,0,2.042,0.802,2.042,1.726
			c0,1.337-0.948,1.884-1.835,1.884h-1.362V129.343z M-347.303,125.891c0.803,0,1.228-0.364,1.228-1.093
			c0-0.863-0.559-1.058-1.228-1.058h-1.119v2.151H-347.303z"/>
		<path style="fill:#FBF178;" d="M-341.684,124.214h-0.023l-0.158,5.129h-0.863l0.255-6.333h1.07l1.142,2.747l1.143-2.747h1.07
			l0.254,6.333h-0.862l-0.159-5.129h-0.024l-1.422,3.342L-341.684,124.214z"/>
		<path style="fill:#FBF178;" d="M-334.702,123.011h3.951v0.729h-3.137v1.896h2.589v0.729h-2.589v2.249h3.137v0.729h-3.951V123.011z
			"/>
		<path style="fill:#FBF178;" d="M-327.782,123.011h1.01l2.455,5.336l0.023-0.024l-0.073-1.641v-3.671h0.815v6.333h-1.009
			l-2.456-5.336l-0.024,0.024l0.072,1.653v3.658h-0.814V123.011z"/>
		<path style="fill:#FBF178;" d="M-318.759,123.74h-1.75v-0.729h4.28v0.729h-1.715v5.603h-0.815V123.74z"/>
		<path style="fill:#FBF178;" d="M-470.16,136.559v-0.729h2.14c1.629,0,2.589,0.717,2.589,4.06c0,1.786-0.097,4.047-2.564,4.047
			h-2.165v-0.729h0.657v-6.648H-470.16z M-468.689,143.208h0.669c0.985,0,1.738-0.255,1.738-3.318c0-3.087-0.826-3.331-1.544-3.331
			h-0.863V143.208z"/>
		<path style="fill:#FBF178;" d="M-462.401,137.604h3.951v0.729h-3.136v1.896h2.589v0.729h-2.589v2.249h3.136v0.729h-3.951V137.604z
			"/>
		<path style="fill:#FBF178;" d="M-454.69,141.931c0.157,0.778,0.535,1.35,1.386,1.35c0.668,0,1.19-0.365,1.19-1.07
			c0-0.778-0.656-0.973-1.276-1.228c-0.924-0.389-1.799-0.632-1.799-1.823c0-1.07,0.863-1.665,1.86-1.665
			c1.058,0,1.678,0.607,1.933,1.592l-0.778,0.23c-0.146-0.62-0.474-1.057-1.167-1.057c-0.523,0-1.033,0.268-1.033,0.838
			c0,0.596,0.364,0.766,0.851,0.985l1.349,0.595c0.571,0.316,0.875,0.827,0.875,1.483c0,1.204-0.838,1.884-2.005,1.884
			c-1.179,0-1.921-0.754-2.115-1.884L-454.69,141.931z"/>
		<path style="fill:#FBF178;" d="M-447.37,143.208h0.888v-4.874h-0.888v-0.729h2.601v0.729h-0.899v4.874h0.899v0.729h-2.601V143.208
			z"/>
		<path style="fill:#FBF178;" d="M-436.632,143.354c-0.523,0.413-1.301,0.693-1.945,0.693c-1.86,0-2.395-1.726-2.395-3.282
			c0-1.532,0.559-3.27,2.37-3.27c0.851,0,1.592,0.498,2.03,1.215l-0.692,0.45c-0.304-0.511-0.765-0.899-1.386-0.899
			c-1.252,0-1.471,1.568-1.471,2.528c0,0.985,0.219,2.492,1.496,2.492c0.413,0,0.826-0.109,1.179-0.329v-1.665h-1.52v-0.729h2.334
			V143.354z"/>
		<path style="fill:#FBF178;" d="M-433.59,137.604h1.01l2.456,5.336l0.023-0.024l-0.073-1.641v-3.67h0.814v6.333h-1.008
			l-2.456-5.336l-0.023,0.024l0.072,1.653v3.659h-0.814V137.604z"/>
		<path style="fill:#FBF178;" d="M-417.294,136.559h-1.094v-0.729h3.014v0.729h-1.105v6.648h1.105v0.729h-3.014v-0.729h1.094
			V136.559z"/>
		<path style="fill:#FBF178;" d="M-411.164,137.604h0.814v5.603h3.317v0.729h-4.132V137.604z"/>
		<path style="fill:#FBF178;" d="M-403.867,137.604h0.814v5.603h3.317v0.729h-4.132V137.604z"/>
		<path style="fill:#FBF178;" d="M-396.157,137.604v4.315c0,0.923,0.269,1.361,1.106,1.361c1.021,0,1.24-0.45,1.24-1.361v-4.315
			h0.814v4.704c0,0.838-0.596,1.738-1.994,1.738c-1.373,0-1.98-0.863-1.98-1.787v-4.655H-396.157z"/>
		<path style="fill:#FBF178;" d="M-389.018,141.931c0.158,0.778,0.535,1.35,1.386,1.35c0.668,0,1.19-0.365,1.19-1.07
			c0-0.778-0.656-0.973-1.275-1.228c-0.924-0.389-1.799-0.632-1.799-1.823c0-1.07,0.863-1.665,1.859-1.665
			c1.058,0,1.678,0.607,1.933,1.592l-0.778,0.23c-0.146-0.62-0.474-1.057-1.167-1.057c-0.522,0-1.033,0.268-1.033,0.838
			c0,0.596,0.364,0.766,0.851,0.985l1.349,0.595c0.571,0.316,0.875,0.827,0.875,1.483c0,1.204-0.838,1.884-2.005,1.884
			c-1.18,0-1.921-0.754-2.115-1.884L-389.018,141.931z"/>
		<path style="fill:#FBF178;" d="M-380.785,138.334h-1.75v-0.729h4.278v0.729h-1.714v5.603h-0.814V138.334z"/>
		<path style="fill:#FBF178;" d="M-374.934,137.604h2.152c1.057,0,1.896,0.498,1.896,1.726c0,0.778-0.523,1.543-1.289,1.774
			l1.556,2.564l-0.706,0.425l-1.616-2.868h-1.179v2.71h-0.814V137.604z M-373.05,140.497c0.79,0,1.312-0.45,1.312-1.167
			c0-0.572-0.34-0.997-1.07-0.997h-1.312v2.163H-373.05z"/>
		<path style="fill:#FBF178;" d="M-366.919,142.211l-0.596,1.884l-0.803-0.292l1.993-6.199h1.045l1.995,6.199l-0.803,0.292
			l-0.583-1.884H-366.919z M-365.802,138.552l-0.898,2.929h1.798L-365.802,138.552z"/>
		<path style="fill:#FBF178;" d="M-358.894,138.334h-1.75v-0.729h4.279v0.729h-1.714v5.603h-0.814V138.334z"/>
		<path style="fill:#FBF178;" d="M-352.509,143.208h0.888v-4.874h-0.888v-0.729h2.601v0.729h-0.898v4.874h0.898v0.729h-2.601
			V143.208z"/>
		<path style="fill:#FBF178;" d="M-341.663,140.777c0,0.51-0.036,3.27-2.249,3.27c-1.021,0-2.249-0.729-2.249-3.27
			c0-2.528,1.204-3.282,2.249-3.282C-342.902,137.495-341.663,138.225-341.663,140.777z M-345.309,140.777
			c0,0.924,0.17,2.504,1.397,2.504c1.228,0,1.398-1.58,1.398-2.504c0-0.937-0.17-2.516-1.398-2.516
			C-345.138,138.261-345.309,139.84-345.309,140.777z"/>
		<path style="fill:#FBF178;" d="M-338.729,137.604h1.009l2.456,5.336l0.024-0.024l-0.073-1.641v-3.67h0.814v6.333h-1.009
			l-2.455-5.336l-0.024,0.024l0.072,1.653v3.659h-0.814V137.604z"/>
	</g>
	<g style="display:inline;">
		<path style="fill:#FBF178;" d="M110.458,237.601v0.727c0.04,2.435,0.218,4.146,0.54,5.136c0.325,0.988,1.017,1.482,2.076,1.482
			c1.046,0,1.739-0.54,2.08-1.623c0.202-0.64,0.301-1.721,0.301-3.246v-22.016h4.736v21.91c0,2.676-0.327,4.799-0.977,6.364
			c-1.106,2.647-3.093,3.971-5.969,3.971s-4.806-1.071-5.787-3.213c-0.983-2.144-1.475-5.064-1.475-8.766v-0.727H110.458z"/>
		<path style="fill:#FBF178;" d="M141.188,246.691c-1.415,2.424-3.562,3.637-6.445,3.637c-2.878,0-5.024-1.213-6.439-3.637
			c-1.414-2.425-2.123-5.346-2.123-8.759c0-3.357,0.709-6.266,2.123-8.726c1.415-2.46,3.562-3.691,6.439-3.691
			c2.884,0,5.03,1.231,6.445,3.691c1.414,2.46,2.121,5.369,2.121,8.726C143.309,241.346,142.602,244.267,141.188,246.691z
			 M137.682,243.327c0.686-1.264,1.031-3.063,1.031-5.395s-0.346-4.126-1.031-5.384c-0.688-1.258-1.67-1.887-2.952-1.887
			c-1.281,0-2.269,0.629-2.959,1.887c-0.694,1.258-1.039,3.052-1.039,5.384s0.345,4.13,1.039,5.395
			c0.69,1.266,1.678,1.897,2.959,1.897C136.012,245.225,136.994,244.593,137.682,243.327z"/>
		<path style="fill:#FBF178;" d="M160.853,226.392c0.842,0.5,1.534,1.261,2.073,2.286c0.459,0.87,0.74,1.765,0.84,2.682
			c0.104,0.919,0.154,2.42,0.154,4.5v13.68h-4.473v-14.174c0-1.255-0.151-2.268-0.461-3.035c-0.394-1.085-1.146-1.625-2.255-1.625
			c-1.151,0-2.022,0.538-2.62,1.614c-0.594,1.077-0.891,2.613-0.891,4.607v12.614h-4.382v-31.371h4.382v11.104
			c0.633-1.352,1.365-2.295,2.195-2.829c0.831-0.534,1.707-0.8,2.626-0.8C159.073,225.644,160.01,225.894,160.853,226.392z"/>
		<path style="fill:#FBF178;" d="M183.918,227.597c1.098,1.26,1.645,3.349,1.645,6.269v15.674h-4.488V235.38
			c0-1.225-0.118-2.165-0.351-2.819c-0.428-1.194-1.241-1.792-2.442-1.792c-1.475,0-2.487,0.875-3.036,2.627
			c-0.285,0.925-0.428,2.106-0.428,3.544v12.599h-4.383v-23.234h4.244v3.396c0.562-1.197,1.093-2.058,1.59-2.584
			c0.901-0.938,2.038-1.41,3.417-1.41C181.409,225.707,182.82,226.337,183.918,227.597z"/>
		<path style="fill:#FBF178;" d="M218.496,218.062h6.816v31.477h-4.414v-21.291c0-0.612,0.006-1.47,0.015-2.573
			c0.011-1.103,0.018-1.955,0.018-2.553l-4.297,26.417h-4.604l-4.263-26.417c0,0.598,0.005,1.45,0.016,2.553
			c0.011,1.103,0.015,1.96,0.015,2.573v21.291h-4.411v-31.477h6.891l4.124,24.75L218.496,218.062z"/>
		<path style="fill:#FBF178;" d="M242.621,226.734c1.17,0.728,2.136,1.875,2.898,3.443c0.686,1.383,1.131,2.987,1.333,4.812
			c0.118,1.069,0.165,2.609,0.146,4.619H234.79c0.07,2.336,0.654,3.973,1.752,4.913c0.672,0.583,1.476,0.875,2.42,0.875
			c0.999,0,1.807-0.357,2.432-1.068c0.34-0.385,0.642-0.919,0.901-1.602h4.474c-0.118,1.38-0.657,2.784-1.625,4.207
			c-1.5,2.264-3.601,3.396-6.307,3.396c-2.227,0-4.194-0.954-5.9-2.864c-1.707-1.908-2.558-5.017-2.558-9.319
			c0-4.031,0.771-7.124,2.309-9.276c1.54-2.152,3.536-3.227,5.992-3.227C240.14,225.644,241.452,226.007,242.621,226.734z
			 M236.068,231.992c-0.62,0.887-1.01,2.087-1.169,3.602h7.551c-0.083-1.615-0.47-2.841-1.169-3.678s-1.565-1.254-2.601-1.254
			C237.558,230.662,236.687,231.105,236.068,231.992z"/>
		<path style="fill:#FBF178;" d="M258.214,235.38c0.815-0.143,1.397-0.32,1.748-0.533c0.633-0.37,0.946-0.947,0.946-1.729
			c0-0.955-0.243-1.612-0.726-1.976c-0.481-0.363-1.191-0.546-2.124-0.546c-1.053,0-1.795,0.356-2.232,1.068
			c-0.311,0.527-0.52,1.24-0.624,2.136h-4.226c0.092-2.036,0.506-3.708,1.236-5.019c1.162-2.05,3.161-3.075,5.99-3.075
			c1.843,0,3.479,0.506,4.909,1.518c1.433,1.01,2.146,2.917,2.146,5.723v10.677c0,0.74,0.008,1.637,0.031,2.689
			c0.03,0.798,0.118,1.339,0.261,1.624c0.142,0.284,0.358,0.52,0.647,0.704v0.897h-4.769c-0.13-0.471-0.223-0.912-0.276-1.324
			c-0.052-0.415-0.091-0.884-0.123-1.41c-0.606,0.912-1.307,1.687-2.104,2.328c-0.947,0.755-2.021,1.131-3.215,1.131
			c-1.526,0-2.787-0.6-3.781-1.803c-0.995-1.204-1.493-2.909-1.493-5.115c0-2.862,0.799-4.934,2.402-6.215
			c0.877-0.697,2.167-1.196,3.871-1.495L258.214,235.38z M260.894,238.222c-0.281,0.24-0.565,0.437-0.85,0.587
			c-0.286,0.149-0.678,0.288-1.177,0.417l-0.996,0.256c-0.938,0.227-1.607,0.505-2.018,0.832c-0.689,0.556-1.034,1.418-1.034,2.584
			c0,1.04,0.214,1.791,0.631,2.254c0.421,0.463,0.935,0.693,1.542,0.693c0.956,0,1.838-0.384,2.644-1.153
			c0.808-0.769,1.226-2.17,1.258-4.207V238.222z"/>
		<path style="fill:#FBF178;" d="M274.85,242.106c0.091,1.083,0.29,1.852,0.599,2.308c0.547,0.81,1.557,1.217,3.031,1.217
			c0.864,0,1.552-0.179,2.061-0.535c0.51-0.356,0.765-0.89,0.765-1.601c0-0.685-0.205-1.205-0.614-1.559
			c-0.411-0.357-1.939-0.969-4.585-1.837c-1.906-0.655-3.247-1.474-4.026-2.456c-0.778-0.969-1.17-2.364-1.17-4.186
			c0-2.15,0.61-3.997,1.826-5.541c1.221-1.545,2.932-2.317,5.142-2.317c2.094,0,3.801,0.58,5.121,1.741
			c1.321,1.159,2.078,3.163,2.273,6.011h-4.381c-0.063-0.783-0.222-1.404-0.479-1.859c-0.484-0.825-1.305-1.238-2.469-1.238
			c-0.955,0-1.637,0.206-2.041,0.619c-0.407,0.413-0.611,0.897-0.611,1.452c0,0.698,0.217,1.203,0.65,1.516
			c0.432,0.327,1.955,0.89,4.574,1.688c1.746,0.568,3.053,1.429,3.924,2.583c0.865,1.167,1.294,2.626,1.294,4.378
			c0,2.306-0.617,4.189-1.858,5.648c-1.235,1.458-3.148,2.188-5.737,2.188c-2.641,0-4.588-0.771-5.847-2.317
			c-1.258-1.544-1.886-3.513-1.886-5.905H274.85z"/>
	</g>
	<g style="display:inline;">
		<path style="fill:#FBF178;" d="M106.458,261.305h4.166v0.762h-3.315v2.795h2.781v0.762h-2.781v4.154h-0.851V261.305z"/>
		<path style="fill:#FBF178;" d="M113.74,263.16h2.25c1.104,0,1.982,0.521,1.982,1.805c0,0.812-0.548,1.613-1.347,1.854l1.625,2.681
			l-0.737,0.444l-1.688-2.998h-1.232v2.833h-0.853V263.16z M115.711,266.183c0.825,0,1.372-0.469,1.372-1.219
			c0-0.597-0.356-1.042-1.117-1.042h-1.373v2.261H115.711z"/>
		<path style="fill:#FBF178;" d="M125.636,266.476c0,0.533-0.036,3.417-2.351,3.417c-1.067,0-2.351-0.764-2.351-3.417
			c0-2.642,1.258-3.43,2.351-3.43C124.341,263.046,125.636,263.809,125.636,266.476z M121.825,266.476
			c0,0.964,0.179,2.617,1.46,2.617c1.285,0,1.462-1.652,1.462-2.617c0-0.979-0.177-2.63-1.462-2.63
			C122.004,263.846,121.825,265.497,121.825,266.476z"/>
		<path style="fill:#FBF178;" d="M128.702,263.16h1.055l2.566,5.578l0.025-0.026l-0.077-1.715v-3.836h0.852v6.619h-1.055
			l-2.566-5.576l-0.023,0.025l0.075,1.728v3.823h-0.852V263.16z"/>
		<path style="fill:#FBF178;" d="M138.131,263.922h-1.826v-0.763h4.469v0.763h-1.791v5.856h-0.852V263.922z"/>
		<path style="fill:#FBF178;" d="M144.349,263.16h4.13v0.763H145.2v1.981h2.705v0.762H145.2v2.351h3.278v0.762h-4.13V263.16z"/>
		<path style="fill:#FBF178;" d="M151.582,263.16h1.054l2.566,5.578l0.024-0.026l-0.076-1.715v-3.836h0.853v6.619h-1.056
			l-2.565-5.576l-0.025,0.025l0.076,1.728v3.823h-0.851V263.16z"/>
		<path style="fill:#FBF178;" d="M159.118,263.16h2.21c1.881,0,2.731,0.775,2.731,3.227c0,2.071-0.354,3.392-2.731,3.392h-2.21
			v-0.762h0.688v-5.094h-0.688V263.16z M160.655,269.016h0.9c1.119,0,1.616-0.635,1.616-2.54c0-2.033-0.586-2.554-1.639-2.554
			h-0.878V269.016z"/>
		<path style="fill:#FBF178;" d="M179.314,261.305l-0.851,8.639h-0.371l-1.407-5.119h-0.026l-1.412,5.119h-0.366l-0.851-8.639
			l0.851-0.164l0.406,6.364h0.023l1.234-4.458h0.253l1.233,4.458h0.025l0.407-6.364L179.314,261.305z"/>
		<path style="fill:#FBF178;" d="M182.48,263.16h4.131v0.763h-3.279v1.981h2.705v0.762h-2.705v2.351h3.279v0.762h-4.131V263.16z"/>
		<path style="fill:#FBF178;" d="M189.662,269.778v-0.762h0.687v-5.094h-0.687v-0.763h2.083c1.678,0,2.403,0.637,2.403,1.767
			c0,0.571-0.243,1.08-0.751,1.359c0.725,0.228,1.129,0.851,1.129,1.6c0,1.194-0.785,1.893-2.169,1.893H189.662z M192.151,265.993
			c0.737,0,1.106-0.469,1.106-1.066c0-0.788-0.561-1.004-1.157-1.004h-0.901v2.07H192.151z M192.19,269.016
			c0.75,0,1.447-0.166,1.447-1.067c0-0.661-0.43-1.194-1.242-1.194h-1.196v2.261H192.19z"/>
		<path style="fill:#FBF178;" d="M204.876,262.067v-0.762h2.237c1.702,0,2.706,0.75,2.706,4.244c0,1.867-0.103,4.23-2.681,4.23
			h-2.263v-0.762h0.687v-6.949H204.876z M206.414,269.016h0.699c1.028,0,1.816-0.267,1.816-3.468c0-3.227-0.863-3.481-1.614-3.481
			h-0.901V269.016z"/>
		<path style="fill:#FBF178;" d="M212.986,263.16h4.129v0.763h-3.278v1.981h2.706v0.762h-2.706v2.351h3.278v0.762h-4.129V263.16z"/>
		<path style="fill:#FBF178;" d="M224.232,262.996l0.813,0.304l-2.541,6.644h-0.151l-2.54-6.644l0.813-0.304l1.802,4.852
			L224.232,262.996z"/>
		<path style="fill:#FBF178;" d="M228.24,263.16h4.128v0.763h-3.277v1.981h2.706v0.762h-2.706v2.351h3.277v0.762h-4.128V263.16z"/>
		<path style="fill:#FBF178;" d="M236.031,263.16h0.851v5.856h3.468v0.762h-4.318V263.16z"/>
		<path style="fill:#FBF178;" d="M247.659,266.476c0,0.533-0.037,3.417-2.351,3.417c-1.066,0-2.35-0.764-2.35-3.417
			c0-2.642,1.257-3.43,2.35-3.43C246.365,263.046,247.659,263.809,247.659,266.476z M243.847,266.476
			c0,0.964,0.179,2.617,1.462,2.617s1.463-1.652,1.463-2.617c0-0.979-0.18-2.63-1.463-2.63S243.847,265.497,243.847,266.476z"/>
		<path style="fill:#FBF178;" d="M252.032,269.778h-0.851v-6.619h2.059c1.537,0,2.135,0.839,2.135,1.805
			c0,1.397-0.993,1.968-1.919,1.968h-1.424V269.778z M253.202,266.17c0.838,0,1.282-0.381,1.282-1.143
			c0-0.902-0.584-1.105-1.282-1.105h-1.17v2.248H253.202z"/>
		<path style="fill:#FBF178;" d="M259.074,264.418h-0.023l-0.166,5.36h-0.901l0.265-6.619h1.119l1.194,2.871l1.192-2.871h1.12
			l0.267,6.619h-0.901l-0.165-5.36h-0.026l-1.486,3.493L259.074,264.418z"/>
		<path style="fill:#FBF178;" d="M266.37,263.16h4.131v0.763h-3.278v1.981h2.707v0.762h-2.707v2.351h3.278v0.762h-4.131V263.16z"/>
		<path style="fill:#FBF178;" d="M273.603,263.16h1.057l2.566,5.578l0.023-0.026l-0.077-1.715v-3.836h0.854v6.619h-1.054
			l-2.568-5.576l-0.024,0.025l0.076,1.728v3.823h-0.853V263.16z"/>
		<path style="fill:#FBF178;" d="M283.034,263.922h-1.829v-0.763h4.474v0.763h-1.793v5.856h-0.852V263.922z"/>
		<path style="fill:#FBF178;" d="M124.797,277.32v-0.762h2.237c1.703,0,2.706,0.75,2.706,4.243c0,1.867-0.101,4.23-2.679,4.23
			h-2.265v-0.762h0.688v-6.949H124.797z M126.335,284.269h0.699c1.029,0,1.818-0.268,1.818-3.468c0-3.227-0.864-3.481-1.615-3.481
			h-0.902V284.269z"/>
		<path style="fill:#FBF178;" d="M132.907,278.413h4.13v0.763h-3.279v1.981h2.708v0.762h-2.708v2.351h3.279v0.762h-4.13V278.413z"/>
		<path style="fill:#FBF178;" d="M140.967,282.934c0.164,0.813,0.559,1.411,1.447,1.411c0.698,0,1.244-0.381,1.244-1.118
			c0-0.813-0.687-1.017-1.332-1.284c-0.967-0.407-1.882-0.66-1.882-1.905c0-1.119,0.902-1.741,1.944-1.741
			c1.104,0,1.754,0.636,2.02,1.665l-0.812,0.241c-0.153-0.648-0.494-1.105-1.219-1.105c-0.548,0-1.081,0.28-1.081,0.875
			c0,0.623,0.381,0.801,0.891,1.029l1.409,0.623c0.596,0.331,0.914,0.863,0.914,1.549c0,1.258-0.876,1.969-2.096,1.969
			c-1.23,0-2.007-0.787-2.21-1.969L140.967,282.934z"/>
		<path style="fill:#FBF178;" d="M148.616,284.269h0.93v-5.094h-0.93v-0.763h2.721v0.763h-0.94v5.094h0.94v0.762h-2.721V284.269z"/>
		<path style="fill:#FBF178;" d="M159.84,284.42c-0.547,0.432-1.359,0.724-2.033,0.724c-1.943,0-2.502-1.804-2.502-3.429
			c0-1.601,0.584-3.418,2.476-3.418c0.891,0,1.665,0.521,2.123,1.271l-0.725,0.47c-0.318-0.534-0.799-0.94-1.449-0.94
			c-1.308,0-1.537,1.639-1.537,2.641c0,1.03,0.229,2.605,1.563,2.605c0.433,0,0.863-0.114,1.232-0.343v-1.74H157.4V281.5h2.439
			V284.42z"/>
		<path style="fill:#FBF178;" d="M163.019,278.413h1.055l2.567,5.577l0.024-0.025l-0.077-1.715v-3.836h0.853v6.619h-1.054
			l-2.567-5.577l-0.025,0.024l0.075,1.729v3.824h-0.851V278.413z"/>
		<path style="fill:#FBF178;" d="M180.05,277.32h-1.142v-0.762h3.15v0.762h-1.156v6.949h1.156v0.762h-3.15v-0.762h1.142V277.32z"/>
		<path style="fill:#FBF178;" d="M186.46,278.413h0.851v5.856h3.466v0.762h-4.316V278.413z"/>
		<path style="fill:#FBF178;" d="M194.085,278.413h0.852v5.856h3.467v0.762h-4.318V278.413z"/>
		<path style="fill:#FBF178;" d="M202.143,278.413v4.51c0,0.965,0.28,1.422,1.155,1.422c1.068,0,1.296-0.469,1.296-1.422v-4.51
			h0.854v4.916c0,0.876-0.623,1.816-2.087,1.816c-1.433,0-2.069-0.901-2.069-1.867v-4.865H202.143z"/>
		<path style="fill:#FBF178;" d="M209.604,282.934c0.164,0.813,0.558,1.411,1.447,1.411c0.699,0,1.246-0.381,1.246-1.118
			c0-0.813-0.686-1.017-1.334-1.284c-0.965-0.407-1.881-0.66-1.881-1.905c0-1.119,0.903-1.741,1.942-1.741
			c1.108,0,1.755,0.636,2.022,1.665l-0.812,0.241c-0.153-0.648-0.497-1.105-1.223-1.105c-0.544,0-1.077,0.28-1.077,0.875
			c0,0.623,0.38,0.801,0.89,1.029l1.41,0.623c0.597,0.331,0.913,0.863,0.913,1.549c0,1.258-0.875,1.969-2.097,1.969
			c-1.231,0-2.007-0.787-2.209-1.969L209.604,282.934z"/>
		<path style="fill:#FBF178;" d="M218.207,279.175h-1.827v-0.763h4.469v0.763h-1.791v5.856h-0.851V279.175z"/>
		<path style="fill:#FBF178;" d="M224.323,278.413h2.249c1.104,0,1.98,0.521,1.98,1.803c0,0.814-0.546,1.614-1.346,1.855l1.626,2.68
			l-0.738,0.444l-1.688-2.998h-1.232v2.833h-0.851V278.413z M226.292,281.436c0.825,0,1.371-0.471,1.371-1.22
			c0-0.597-0.354-1.041-1.118-1.041h-1.371v2.261H226.292z"/>
		<path style="fill:#FBF178;" d="M232.7,283.227l-0.622,1.969l-0.839-0.305l2.082-6.479h1.092l2.085,6.479l-0.839,0.305
			l-0.608-1.969H232.7z M233.867,279.403l-0.939,3.062h1.881L233.867,279.403z"/>
		<path style="fill:#FBF178;" d="M241.088,279.175h-1.829v-0.763h4.472v0.763h-1.791v5.856h-0.852V279.175z"/>
		<path style="fill:#FBF178;" d="M247.761,284.269h0.928v-5.094h-0.928v-0.763h2.719v0.763h-0.938v5.094h0.938v0.762h-2.719V284.269
			z"/>
		<path style="fill:#FBF178;" d="M259.096,281.728c0,0.534-0.035,3.417-2.349,3.417c-1.068,0-2.35-0.762-2.35-3.417
			c0-2.642,1.258-3.43,2.35-3.43C257.802,278.298,259.096,279.06,259.096,281.728z M255.285,281.728c0,0.966,0.18,2.617,1.462,2.617
			s1.46-1.651,1.46-2.617c0-0.978-0.178-2.629-1.46-2.629S255.285,280.75,255.285,281.728z"/>
		<path style="fill:#FBF178;" d="M262.161,278.413h1.057l2.565,5.577l0.025-0.025l-0.077-1.715v-3.836h0.852v6.619h-1.053
			l-2.567-5.577l-0.025,0.024l0.076,1.729v3.824h-0.853V278.413z"/>
	</g>
	<g style="display:inline;">
		<g>
			<path style="fill:#FBF178;" d="M110.474,384.405v0.727c0.04,2.435,0.218,4.146,0.54,5.136c0.325,0.988,1.017,1.482,2.076,1.482
				c1.046,0,1.739-0.54,2.08-1.623c0.202-0.64,0.301-1.721,0.301-3.246v-22.016h4.736v21.91c0,2.676-0.327,4.799-0.977,6.364
				c-1.106,2.647-3.093,3.971-5.969,3.971s-4.806-1.071-5.787-3.213c-0.983-2.144-1.475-5.064-1.475-8.766v-0.727H110.474z"/>
			<path style="fill:#FBF178;" d="M141.203,393.496c-1.415,2.424-3.562,3.637-6.445,3.637c-2.878,0-5.024-1.213-6.439-3.637
				c-1.414-2.425-2.123-5.346-2.123-8.759c0-3.357,0.709-6.266,2.123-8.726c1.415-2.46,3.562-3.691,6.439-3.691
				c2.884,0,5.03,1.231,6.445,3.691c1.414,2.46,2.121,5.369,2.121,8.726C143.324,388.15,142.617,391.071,141.203,393.496z
				 M137.697,390.131c0.686-1.264,1.031-3.063,1.031-5.395s-0.346-4.126-1.031-5.384c-0.688-1.258-1.67-1.887-2.952-1.887
				c-1.281,0-2.269,0.629-2.959,1.887c-0.694,1.258-1.039,3.052-1.039,5.384s0.345,4.13,1.039,5.395
				c0.69,1.266,1.678,1.897,2.959,1.897C136.027,392.029,137.01,391.397,137.697,390.131z"/>
			<path style="fill:#FBF178;" d="M160.868,373.196c0.842,0.5,1.534,1.261,2.073,2.286c0.459,0.87,0.74,1.765,0.84,2.682
				c0.104,0.919,0.154,2.42,0.154,4.5v13.68h-4.473v-14.174c0-1.255-0.151-2.268-0.461-3.035c-0.394-1.085-1.146-1.625-2.255-1.625
				c-1.151,0-2.022,0.538-2.62,1.614c-0.594,1.077-0.891,2.613-0.891,4.607v12.614h-4.382v-31.371h4.382v11.104
				c0.633-1.352,1.365-2.295,2.195-2.829c0.831-0.534,1.707-0.8,2.626-0.8C159.089,372.448,160.025,372.698,160.868,373.196z"/>
			<path style="fill:#FBF178;" d="M183.934,374.401c1.098,1.26,1.645,3.349,1.645,6.269v15.674h-4.488v-14.159
				c0-1.225-0.118-2.165-0.351-2.819c-0.428-1.194-1.241-1.792-2.442-1.792c-1.475,0-2.487,0.875-3.036,2.627
				c-0.285,0.925-0.428,2.106-0.428,3.544v12.599h-4.383v-23.234h4.244v3.396c0.562-1.197,1.093-2.058,1.59-2.584
				c0.901-0.938,2.038-1.41,3.417-1.41C181.425,372.511,182.836,373.141,183.934,374.401z"/>
			<path style="fill:#FBF178;" d="M218.512,364.866h6.816v31.477h-4.414v-21.291c0-0.612,0.006-1.47,0.015-2.573
				c0.011-1.103,0.018-1.955,0.018-2.553l-4.297,26.417h-4.604l-4.263-26.417c0,0.598,0.005,1.45,0.016,2.553
				c0.011,1.103,0.015,1.96,0.015,2.573v21.291h-4.411v-31.477h6.891l4.124,24.75L218.512,364.866z"/>
			<path style="fill:#FBF178;" d="M242.637,373.538c1.17,0.728,2.136,1.875,2.898,3.443c0.686,1.383,1.131,2.987,1.333,4.812
				c0.118,1.069,0.165,2.609,0.146,4.619h-12.209c0.07,2.336,0.654,3.973,1.752,4.913c0.672,0.583,1.476,0.875,2.42,0.875
				c0.999,0,1.807-0.357,2.432-1.068c0.34-0.385,0.642-0.919,0.901-1.602h4.474c-0.118,1.38-0.657,2.784-1.625,4.207
				c-1.5,2.264-3.601,3.396-6.307,3.396c-2.227,0-4.194-0.954-5.9-2.864c-1.707-1.908-2.558-5.017-2.558-9.319
				c0-4.031,0.771-7.124,2.309-9.276c1.54-2.152,3.536-3.227,5.992-3.227C240.155,372.448,241.468,372.811,242.637,373.538z
				 M236.084,378.796c-0.62,0.887-1.01,2.087-1.169,3.602h7.551c-0.083-1.615-0.47-2.841-1.169-3.678s-1.565-1.254-2.601-1.254
				C237.573,377.466,236.702,377.91,236.084,378.796z"/>
			<path style="fill:#FBF178;" d="M258.229,382.185c0.815-0.143,1.397-0.32,1.748-0.533c0.633-0.37,0.946-0.947,0.946-1.729
				c0-0.955-0.243-1.612-0.726-1.976c-0.481-0.363-1.191-0.546-2.124-0.546c-1.053,0-1.795,0.356-2.232,1.068
				c-0.311,0.527-0.52,1.24-0.624,2.136h-4.226c0.092-2.036,0.506-3.708,1.236-5.019c1.162-2.05,3.161-3.075,5.99-3.075
				c1.843,0,3.479,0.506,4.909,1.518c1.433,1.01,2.146,2.917,2.146,5.723v10.677c0,0.74,0.008,1.637,0.031,2.689
				c0.03,0.798,0.118,1.339,0.261,1.624c0.142,0.284,0.358,0.52,0.647,0.704v0.897h-4.769c-0.13-0.471-0.223-0.912-0.276-1.324
				c-0.052-0.415-0.091-0.884-0.123-1.41c-0.606,0.912-1.307,1.687-2.104,2.328c-0.947,0.755-2.021,1.131-3.215,1.131
				c-1.526,0-2.787-0.6-3.781-1.803c-0.995-1.204-1.493-2.909-1.493-5.115c0-2.862,0.799-4.934,2.402-6.215
				c0.877-0.697,2.167-1.196,3.871-1.495L258.229,382.185z M260.909,385.026c-0.281,0.24-0.565,0.437-0.85,0.587
				c-0.286,0.149-0.678,0.288-1.177,0.417l-0.996,0.256c-0.938,0.227-1.607,0.505-2.018,0.832c-0.689,0.556-1.034,1.418-1.034,2.584
				c0,1.04,0.214,1.791,0.631,2.254c0.421,0.463,0.935,0.693,1.542,0.693c0.956,0,1.838-0.384,2.644-1.153
				c0.808-0.769,1.226-2.17,1.258-4.207V385.026z"/>
			<path style="fill:#FBF178;" d="M274.865,388.911c0.091,1.083,0.29,1.852,0.599,2.308c0.547,0.81,1.557,1.217,3.031,1.217
				c0.864,0,1.552-0.179,2.061-0.535c0.51-0.356,0.765-0.89,0.765-1.601c0-0.685-0.205-1.205-0.614-1.559
				c-0.411-0.357-1.939-0.969-4.585-1.837c-1.906-0.655-3.247-1.474-4.026-2.456c-0.778-0.969-1.17-2.364-1.17-4.186
				c0-2.15,0.61-3.997,1.826-5.541c1.221-1.545,2.932-2.317,5.142-2.317c2.094,0,3.801,0.58,5.121,1.741
				c1.321,1.159,2.078,3.163,2.273,6.011h-4.381c-0.063-0.783-0.222-1.404-0.479-1.859c-0.484-0.825-1.305-1.238-2.469-1.238
				c-0.955,0-1.637,0.206-2.041,0.619c-0.407,0.413-0.611,0.897-0.611,1.452c0,0.698,0.217,1.203,0.65,1.516
				c0.432,0.327,1.955,0.89,4.574,1.688c1.746,0.568,3.053,1.429,3.924,2.583c0.865,1.167,1.294,2.626,1.294,4.378
				c0,2.306-0.617,4.189-1.858,5.648c-1.235,1.458-3.148,2.188-5.737,2.188c-2.641,0-4.588-0.771-5.847-2.317
				c-1.258-1.544-1.886-3.513-1.886-5.905H274.865z"/>
		</g>
		<g>
			<path style="fill:#FBF178;" d="M106.474,408.109h4.166v0.762h-3.315v2.795h2.781v0.762h-2.781v4.154h-0.851V408.109z"/>
			<path style="fill:#FBF178;" d="M113.756,409.964h2.25c1.104,0,1.982,0.521,1.982,1.805c0,0.812-0.548,1.613-1.347,1.854
				l1.625,2.681l-0.737,0.444l-1.688-2.998h-1.232v2.833h-0.853V409.964z M115.727,412.987c0.825,0,1.372-0.469,1.372-1.219
				c0-0.597-0.356-1.042-1.117-1.042h-1.373v2.261H115.727z"/>
			<path style="fill:#FBF178;" d="M125.651,413.28c0,0.533-0.036,3.417-2.351,3.417c-1.067,0-2.351-0.764-2.351-3.417
				c0-2.642,1.258-3.43,2.351-3.43C124.356,409.851,125.651,410.613,125.651,413.28z M121.841,413.28
				c0,0.964,0.179,2.617,1.46,2.617c1.285,0,1.462-1.652,1.462-2.617c0-0.979-0.177-2.63-1.462-2.63
				C122.02,410.65,121.841,412.301,121.841,413.28z"/>
			<path style="fill:#FBF178;" d="M128.718,409.964h1.055l2.566,5.578l0.025-0.026l-0.077-1.715v-3.836h0.852v6.619h-1.055
				l-2.566-5.576l-0.023,0.025l0.075,1.728v3.823h-0.852V409.964z"/>
			<path style="fill:#FBF178;" d="M138.146,410.727h-1.826v-0.763h4.469v0.763h-1.791v5.856h-0.852V410.727z"/>
			<path style="fill:#FBF178;" d="M144.364,409.964h4.13v0.763h-3.278v1.981h2.705v0.762h-2.705v2.351h3.278v0.762h-4.13V409.964z"
				/>
			<path style="fill:#FBF178;" d="M151.598,409.964h1.054l2.566,5.578l0.024-0.026l-0.076-1.715v-3.836h0.853v6.619h-1.056
				l-2.565-5.576l-0.025,0.025l0.076,1.728v3.823h-0.851V409.964z"/>
			<path style="fill:#FBF178;" d="M159.134,409.964h2.21c1.881,0,2.731,0.775,2.731,3.227c0,2.071-0.354,3.392-2.731,3.392h-2.21
				v-0.762h0.688v-5.094h-0.688V409.964z M160.671,415.82h0.9c1.119,0,1.616-0.635,1.616-2.54c0-2.033-0.586-2.554-1.639-2.554
				h-0.878V415.82z"/>
			<path style="fill:#FBF178;" d="M179.33,408.109l-0.851,8.639h-0.371l-1.407-5.119h-0.026l-1.412,5.119h-0.366l-0.851-8.639
				l0.851-0.164l0.406,6.364h0.023l1.234-4.458h0.253l1.233,4.458h0.025l0.407-6.364L179.33,408.109z"/>
			<path style="fill:#FBF178;" d="M182.496,409.964h4.131v0.763h-3.279v1.981h2.705v0.762h-2.705v2.351h3.279v0.762h-4.131V409.964z
				"/>
			<path style="fill:#FBF178;" d="M189.678,416.583v-0.762h0.687v-5.094h-0.687v-0.763h2.083c1.678,0,2.403,0.637,2.403,1.767
				c0,0.571-0.243,1.08-0.751,1.359c0.725,0.228,1.129,0.851,1.129,1.6c0,1.194-0.785,1.893-2.169,1.893H189.678z M192.167,412.797
				c0.737,0,1.106-0.469,1.106-1.066c0-0.788-0.561-1.004-1.157-1.004h-0.901v2.07H192.167z M192.206,415.82
				c0.75,0,1.447-0.166,1.447-1.067c0-0.661-0.43-1.194-1.242-1.194h-1.196v2.261H192.206z"/>
			<path style="fill:#FBF178;" d="M204.892,408.871v-0.762h2.237c1.702,0,2.706,0.75,2.706,4.244c0,1.867-0.103,4.23-2.681,4.23
				h-2.263v-0.762h0.687v-6.949H204.892z M206.43,415.82h0.699c1.028,0,1.816-0.267,1.816-3.468c0-3.227-0.863-3.481-1.614-3.481
				h-0.901V415.82z"/>
			<path style="fill:#FBF178;" d="M213.002,409.964h4.129v0.763h-3.278v1.981h2.706v0.762h-2.706v2.351h3.278v0.762h-4.129V409.964z
				"/>
			<path style="fill:#FBF178;" d="M224.248,409.8l0.813,0.304l-2.541,6.644h-0.151l-2.54-6.644l0.813-0.304l1.802,4.852
				L224.248,409.8z"/>
			<path style="fill:#FBF178;" d="M228.256,409.964h4.128v0.763h-3.277v1.981h2.706v0.762h-2.706v2.351h3.277v0.762h-4.128V409.964z
				"/>
			<path style="fill:#FBF178;" d="M236.047,409.964h0.851v5.856h3.468v0.762h-4.318V409.964z"/>
			<path style="fill:#FBF178;" d="M247.675,413.28c0,0.533-0.037,3.417-2.351,3.417c-1.066,0-2.35-0.764-2.35-3.417
				c0-2.642,1.257-3.43,2.35-3.43C246.381,409.851,247.675,410.613,247.675,413.28z M243.862,413.28
				c0,0.964,0.179,2.617,1.462,2.617s1.463-1.652,1.463-2.617c0-0.979-0.18-2.63-1.463-2.63S243.862,412.301,243.862,413.28z"/>
			<path style="fill:#FBF178;" d="M252.048,416.583h-0.851v-6.619h2.059c1.537,0,2.135,0.839,2.135,1.805
				c0,1.397-0.993,1.968-1.919,1.968h-1.424V416.583z M253.218,412.975c0.838,0,1.282-0.381,1.282-1.143
				c0-0.902-0.584-1.105-1.282-1.105h-1.17v2.248H253.218z"/>
			<path style="fill:#FBF178;" d="M259.09,411.223h-0.023l-0.166,5.36h-0.901l0.265-6.619h1.119l1.194,2.871l1.192-2.871h1.12
				l0.267,6.619h-0.901l-0.165-5.36h-0.026l-1.486,3.493L259.09,411.223z"/>
			<path style="fill:#FBF178;" d="M266.386,409.964h4.131v0.763h-3.278v1.981h2.707v0.762h-2.707v2.351h3.278v0.762h-4.131V409.964z
				"/>
			<path style="fill:#FBF178;" d="M273.618,409.964h1.057l2.566,5.578l0.023-0.026l-0.077-1.715v-3.836h0.854v6.619h-1.054
				l-2.568-5.576l-0.024,0.025l0.076,1.728v3.823h-0.853V409.964z"/>
			<path style="fill:#FBF178;" d="M283.05,410.727h-1.829v-0.763h4.474v0.763h-1.793v5.856h-0.852V410.727z"/>
			<path style="fill:#FBF178;" d="M124.812,424.124v-0.762h2.237c1.703,0,2.706,0.75,2.706,4.243c0,1.867-0.101,4.23-2.679,4.23
				h-2.265v-0.762h0.688v-6.949H124.812z M126.351,431.073h0.699c1.029,0,1.818-0.268,1.818-3.468c0-3.227-0.864-3.481-1.615-3.481
				h-0.902V431.073z"/>
			<path style="fill:#FBF178;" d="M132.923,425.217h4.13v0.763h-3.279v1.981h2.708v0.762h-2.708v2.351h3.279v0.762h-4.13V425.217z"
				/>
			<path style="fill:#FBF178;" d="M140.982,429.738c0.164,0.813,0.559,1.411,1.447,1.411c0.698,0,1.244-0.381,1.244-1.118
				c0-0.813-0.687-1.017-1.332-1.284c-0.967-0.407-1.882-0.66-1.882-1.905c0-1.119,0.902-1.741,1.944-1.741
				c1.104,0,1.754,0.636,2.02,1.665l-0.812,0.241c-0.153-0.648-0.494-1.105-1.219-1.105c-0.548,0-1.081,0.28-1.081,0.875
				c0,0.623,0.381,0.801,0.891,1.029l1.409,0.623c0.596,0.331,0.914,0.863,0.914,1.549c0,1.258-0.876,1.969-2.096,1.969
				c-1.23,0-2.007-0.787-2.21-1.969L140.982,429.738z"/>
			<path style="fill:#FBF178;" d="M148.632,431.073h0.93v-5.094h-0.93v-0.763h2.721v0.763h-0.94v5.094h0.94v0.762h-2.721V431.073z"
				/>
			<path style="fill:#FBF178;" d="M159.855,431.225c-0.547,0.432-1.359,0.724-2.033,0.724c-1.943,0-2.502-1.804-2.502-3.429
				c0-1.601,0.584-3.418,2.476-3.418c0.891,0,1.665,0.521,2.123,1.271l-0.725,0.47c-0.318-0.534-0.799-0.94-1.449-0.94
				c-1.308,0-1.537,1.639-1.537,2.641c0,1.03,0.229,2.605,1.563,2.605c0.433,0,0.863-0.114,1.232-0.343v-1.74h-1.588v-0.762h2.439
				V431.225z"/>
			<path style="fill:#FBF178;" d="M163.034,425.217h1.055l2.567,5.577l0.024-0.025l-0.077-1.715v-3.836h0.853v6.619h-1.054
				l-2.567-5.577l-0.025,0.024l0.075,1.729v3.824h-0.851V425.217z"/>
			<path style="fill:#FBF178;" d="M180.065,424.124h-1.142v-0.762h3.15v0.762h-1.156v6.949h1.156v0.762h-3.15v-0.762h1.142V424.124z
				"/>
			<path style="fill:#FBF178;" d="M186.476,425.217h0.851v5.856h3.466v0.762h-4.316V425.217z"/>
			<path style="fill:#FBF178;" d="M194.101,425.217h0.852v5.856h3.467v0.762h-4.318V425.217z"/>
			<path style="fill:#FBF178;" d="M202.158,425.217v4.51c0,0.965,0.28,1.422,1.155,1.422c1.068,0,1.296-0.469,1.296-1.422v-4.51
				h0.854v4.916c0,0.876-0.623,1.816-2.087,1.816c-1.433,0-2.069-0.901-2.069-1.867v-4.865H202.158z"/>
			<path style="fill:#FBF178;" d="M209.619,429.738c0.164,0.813,0.558,1.411,1.447,1.411c0.699,0,1.246-0.381,1.246-1.118
				c0-0.813-0.686-1.017-1.334-1.284c-0.965-0.407-1.881-0.66-1.881-1.905c0-1.119,0.903-1.741,1.942-1.741
				c1.108,0,1.755,0.636,2.022,1.665l-0.812,0.241c-0.153-0.648-0.497-1.105-1.223-1.105c-0.544,0-1.077,0.28-1.077,0.875
				c0,0.623,0.38,0.801,0.89,1.029l1.41,0.623c0.597,0.331,0.913,0.863,0.913,1.549c0,1.258-0.875,1.969-2.097,1.969
				c-1.231,0-2.007-0.787-2.209-1.969L209.619,429.738z"/>
			<path style="fill:#FBF178;" d="M218.223,425.979h-1.827v-0.763h4.469v0.763h-1.791v5.856h-0.851V425.979z"/>
			<path style="fill:#FBF178;" d="M224.339,425.217h2.249c1.104,0,1.98,0.521,1.98,1.803c0,0.814-0.546,1.614-1.346,1.855
				l1.626,2.68L228.11,432l-1.688-2.998h-1.232v2.833h-0.851V425.217z M226.308,428.24c0.825,0,1.371-0.471,1.371-1.22
				c0-0.597-0.354-1.041-1.118-1.041h-1.371v2.261H226.308z"/>
			<path style="fill:#FBF178;" d="M232.716,430.031L232.094,432l-0.839-0.305l2.082-6.479h1.092l2.085,6.479L235.675,432
				l-0.608-1.969H232.716z M233.883,426.207l-0.939,3.062h1.881L233.883,426.207z"/>
			<path style="fill:#FBF178;" d="M241.104,425.979h-1.829v-0.763h4.472v0.763h-1.791v5.856h-0.852V425.979z"/>
			<path style="fill:#FBF178;" d="M247.776,431.073h0.928v-5.094h-0.928v-0.763h2.719v0.763h-0.938v5.094h0.938v0.762h-2.719
				V431.073z"/>
			<path style="fill:#FBF178;" d="M259.111,428.532c0,0.534-0.035,3.417-2.349,3.417c-1.068,0-2.35-0.762-2.35-3.417
				c0-2.642,1.258-3.43,2.35-3.43C257.817,425.102,259.111,425.864,259.111,428.532z M255.301,428.532
				c0,0.966,0.18,2.617,1.462,2.617s1.46-1.651,1.46-2.617c0-0.978-0.178-2.629-1.46-2.629S255.301,427.554,255.301,428.532z"/>
			<path style="fill:#FBF178;" d="M262.177,425.217h1.057l2.565,5.577l0.025-0.025l-0.077-1.715v-3.836h0.852v6.619h-1.053
				l-2.567-5.577l-0.025,0.024l0.076,1.729v3.824h-0.853V425.217z"/>
		</g>
	</g>
	<g style="display:inline;">
		<g>
			<path style="fill:#FBF178;" d="M110.474,384.405v0.727c0.04,2.435,0.218,4.146,0.54,5.136c0.325,0.988,1.017,1.482,2.076,1.482
				c1.046,0,1.739-0.54,2.08-1.623c0.202-0.64,0.301-1.721,0.301-3.246v-22.016h4.736v21.91c0,2.676-0.327,4.799-0.977,6.364
				c-1.106,2.647-3.093,3.971-5.969,3.971s-4.806-1.071-5.787-3.213c-0.983-2.144-1.475-5.064-1.475-8.766v-0.727H110.474z"/>
			<path style="fill:#FBF178;" d="M141.203,393.496c-1.415,2.424-3.562,3.637-6.445,3.637c-2.878,0-5.024-1.213-6.439-3.637
				c-1.414-2.425-2.123-5.346-2.123-8.759c0-3.357,0.709-6.266,2.123-8.726c1.415-2.46,3.562-3.691,6.439-3.691
				c2.884,0,5.03,1.231,6.445,3.691c1.414,2.46,2.121,5.369,2.121,8.726C143.324,388.15,142.617,391.071,141.203,393.496z
				 M137.697,390.131c0.686-1.264,1.031-3.063,1.031-5.395s-0.346-4.126-1.031-5.384c-0.688-1.258-1.67-1.887-2.952-1.887
				c-1.281,0-2.269,0.629-2.959,1.887c-0.694,1.258-1.039,3.052-1.039,5.384s0.345,4.13,1.039,5.395
				c0.69,1.266,1.678,1.897,2.959,1.897C136.027,392.029,137.01,391.397,137.697,390.131z"/>
			<path style="fill:#FBF178;" d="M160.868,373.196c0.842,0.5,1.534,1.261,2.073,2.286c0.459,0.87,0.74,1.765,0.84,2.682
				c0.104,0.919,0.154,2.42,0.154,4.5v13.68h-4.473v-14.174c0-1.255-0.151-2.268-0.461-3.035c-0.394-1.085-1.146-1.625-2.255-1.625
				c-1.151,0-2.022,0.538-2.62,1.614c-0.594,1.077-0.891,2.613-0.891,4.607v12.614h-4.382v-31.371h4.382v11.104
				c0.633-1.352,1.365-2.295,2.195-2.829c0.831-0.534,1.707-0.8,2.626-0.8C159.089,372.448,160.025,372.698,160.868,373.196z"/>
			<path style="fill:#FBF178;" d="M183.934,374.401c1.098,1.26,1.645,3.349,1.645,6.269v15.674h-4.488v-14.159
				c0-1.225-0.118-2.165-0.351-2.819c-0.428-1.194-1.241-1.792-2.442-1.792c-1.475,0-2.487,0.875-3.036,2.627
				c-0.285,0.925-0.428,2.106-0.428,3.544v12.599h-4.383v-23.234h4.244v3.396c0.562-1.197,1.093-2.058,1.59-2.584
				c0.901-0.938,2.038-1.41,3.417-1.41C181.425,372.511,182.836,373.141,183.934,374.401z"/>
			<path style="fill:#FBF178;" d="M218.512,364.866h6.816v31.477h-4.414v-21.291c0-0.612,0.006-1.47,0.015-2.573
				c0.011-1.103,0.018-1.955,0.018-2.553l-4.297,26.417h-4.604l-4.263-26.417c0,0.598,0.005,1.45,0.016,2.553
				c0.011,1.103,0.015,1.96,0.015,2.573v21.291h-4.411v-31.477h6.891l4.124,24.75L218.512,364.866z"/>
			<path style="fill:#FBF178;" d="M242.637,373.538c1.17,0.728,2.136,1.875,2.898,3.443c0.686,1.383,1.131,2.987,1.333,4.812
				c0.118,1.069,0.165,2.609,0.146,4.619h-12.209c0.07,2.336,0.654,3.973,1.752,4.913c0.672,0.583,1.476,0.875,2.42,0.875
				c0.999,0,1.807-0.357,2.432-1.068c0.34-0.385,0.642-0.919,0.901-1.602h4.474c-0.118,1.38-0.657,2.784-1.625,4.207
				c-1.5,2.264-3.601,3.396-6.307,3.396c-2.227,0-4.194-0.954-5.9-2.864c-1.707-1.908-2.558-5.017-2.558-9.319
				c0-4.031,0.771-7.124,2.309-9.276c1.54-2.152,3.536-3.227,5.992-3.227C240.155,372.448,241.468,372.811,242.637,373.538z
				 M236.084,378.796c-0.62,0.887-1.01,2.087-1.169,3.602h7.551c-0.083-1.615-0.47-2.841-1.169-3.678s-1.565-1.254-2.601-1.254
				C237.573,377.466,236.702,377.91,236.084,378.796z"/>
			<path style="fill:#FBF178;" d="M258.229,382.185c0.815-0.143,1.397-0.32,1.748-0.533c0.633-0.37,0.946-0.947,0.946-1.729
				c0-0.955-0.243-1.612-0.726-1.976c-0.481-0.363-1.191-0.546-2.124-0.546c-1.053,0-1.795,0.356-2.232,1.068
				c-0.311,0.527-0.52,1.24-0.624,2.136h-4.226c0.092-2.036,0.506-3.708,1.236-5.019c1.162-2.05,3.161-3.075,5.99-3.075
				c1.843,0,3.479,0.506,4.909,1.518c1.433,1.01,2.146,2.917,2.146,5.723v10.677c0,0.74,0.008,1.637,0.031,2.689
				c0.03,0.798,0.118,1.339,0.261,1.624c0.142,0.284,0.358,0.52,0.647,0.704v0.897h-4.769c-0.13-0.471-0.223-0.912-0.276-1.324
				c-0.052-0.415-0.091-0.884-0.123-1.41c-0.606,0.912-1.307,1.687-2.104,2.328c-0.947,0.755-2.021,1.131-3.215,1.131
				c-1.526,0-2.787-0.6-3.781-1.803c-0.995-1.204-1.493-2.909-1.493-5.115c0-2.862,0.799-4.934,2.402-6.215
				c0.877-0.697,2.167-1.196,3.871-1.495L258.229,382.185z M260.909,385.026c-0.281,0.24-0.565,0.437-0.85,0.587
				c-0.286,0.149-0.678,0.288-1.177,0.417l-0.996,0.256c-0.938,0.227-1.607,0.505-2.018,0.832c-0.689,0.556-1.034,1.418-1.034,2.584
				c0,1.04,0.214,1.791,0.631,2.254c0.421,0.463,0.935,0.693,1.542,0.693c0.956,0,1.838-0.384,2.644-1.153
				c0.808-0.769,1.226-2.17,1.258-4.207V385.026z"/>
			<path style="fill:#FBF178;" d="M274.865,388.911c0.091,1.083,0.29,1.852,0.599,2.308c0.547,0.81,1.557,1.217,3.031,1.217
				c0.864,0,1.552-0.179,2.061-0.535c0.51-0.356,0.765-0.89,0.765-1.601c0-0.685-0.205-1.205-0.614-1.559
				c-0.411-0.357-1.939-0.969-4.585-1.837c-1.906-0.655-3.247-1.474-4.026-2.456c-0.778-0.969-1.17-2.364-1.17-4.186
				c0-2.15,0.61-3.997,1.826-5.541c1.221-1.545,2.932-2.317,5.142-2.317c2.094,0,3.801,0.58,5.121,1.741
				c1.321,1.159,2.078,3.163,2.273,6.011h-4.381c-0.063-0.783-0.222-1.404-0.479-1.859c-0.484-0.825-1.305-1.238-2.469-1.238
				c-0.955,0-1.637,0.206-2.041,0.619c-0.407,0.413-0.611,0.897-0.611,1.452c0,0.698,0.217,1.203,0.65,1.516
				c0.432,0.327,1.955,0.89,4.574,1.688c1.746,0.568,3.053,1.429,3.924,2.583c0.865,1.167,1.294,2.626,1.294,4.378
				c0,2.306-0.617,4.189-1.858,5.648c-1.235,1.458-3.148,2.188-5.737,2.188c-2.641,0-4.588-0.771-5.847-2.317
				c-1.258-1.544-1.886-3.513-1.886-5.905H274.865z"/>
		</g>
		<g>
			<path style="fill:#FBF178;" d="M106.474,408.109h4.166v0.762h-3.315v2.795h2.781v0.762h-2.781v4.154h-0.851V408.109z"/>
			<path style="fill:#FBF178;" d="M113.756,409.964h2.25c1.104,0,1.982,0.521,1.982,1.805c0,0.812-0.548,1.613-1.347,1.854
				l1.625,2.681l-0.737,0.444l-1.688-2.998h-1.232v2.833h-0.853V409.964z M115.727,412.987c0.825,0,1.372-0.469,1.372-1.219
				c0-0.597-0.356-1.042-1.117-1.042h-1.373v2.261H115.727z"/>
			<path style="fill:#FBF178;" d="M125.651,413.28c0,0.533-0.036,3.417-2.351,3.417c-1.067,0-2.351-0.764-2.351-3.417
				c0-2.642,1.258-3.43,2.351-3.43C124.356,409.851,125.651,410.613,125.651,413.28z M121.841,413.28
				c0,0.964,0.179,2.617,1.46,2.617c1.285,0,1.462-1.652,1.462-2.617c0-0.979-0.177-2.63-1.462-2.63
				C122.02,410.65,121.841,412.301,121.841,413.28z"/>
			<path style="fill:#FBF178;" d="M128.718,409.964h1.055l2.566,5.578l0.025-0.026l-0.077-1.715v-3.836h0.852v6.619h-1.055
				l-2.566-5.576l-0.023,0.025l0.075,1.728v3.823h-0.852V409.964z"/>
			<path style="fill:#FBF178;" d="M138.146,410.727h-1.826v-0.763h4.469v0.763h-1.791v5.856h-0.852V410.727z"/>
			<path style="fill:#FBF178;" d="M144.364,409.964h4.13v0.763h-3.278v1.981h2.705v0.762h-2.705v2.351h3.278v0.762h-4.13V409.964z"
				/>
			<path style="fill:#FBF178;" d="M151.598,409.964h1.054l2.566,5.578l0.024-0.026l-0.076-1.715v-3.836h0.853v6.619h-1.056
				l-2.565-5.576l-0.025,0.025l0.076,1.728v3.823h-0.851V409.964z"/>
			<path style="fill:#FBF178;" d="M159.134,409.964h2.21c1.881,0,2.731,0.775,2.731,3.227c0,2.071-0.354,3.392-2.731,3.392h-2.21
				v-0.762h0.688v-5.094h-0.688V409.964z M160.671,415.82h0.9c1.119,0,1.616-0.635,1.616-2.54c0-2.033-0.586-2.554-1.639-2.554
				h-0.878V415.82z"/>
			<path style="fill:#FBF178;" d="M179.33,408.109l-0.851,8.639h-0.371l-1.407-5.119h-0.026l-1.412,5.119h-0.366l-0.851-8.639
				l0.851-0.164l0.406,6.364h0.023l1.234-4.458h0.253l1.233,4.458h0.025l0.407-6.364L179.33,408.109z"/>
			<path style="fill:#FBF178;" d="M182.496,409.964h4.131v0.763h-3.279v1.981h2.705v0.762h-2.705v2.351h3.279v0.762h-4.131V409.964z
				"/>
			<path style="fill:#FBF178;" d="M189.678,416.583v-0.762h0.687v-5.094h-0.687v-0.763h2.083c1.678,0,2.403,0.637,2.403,1.767
				c0,0.571-0.243,1.08-0.751,1.359c0.725,0.228,1.129,0.851,1.129,1.6c0,1.194-0.785,1.893-2.169,1.893H189.678z M192.167,412.797
				c0.737,0,1.106-0.469,1.106-1.066c0-0.788-0.561-1.004-1.157-1.004h-0.901v2.07H192.167z M192.206,415.82
				c0.75,0,1.447-0.166,1.447-1.067c0-0.661-0.43-1.194-1.242-1.194h-1.196v2.261H192.206z"/>
			<path style="fill:#FBF178;" d="M204.892,408.871v-0.762h2.237c1.702,0,2.706,0.75,2.706,4.244c0,1.867-0.103,4.23-2.681,4.23
				h-2.263v-0.762h0.687v-6.949H204.892z M206.43,415.82h0.699c1.028,0,1.816-0.267,1.816-3.468c0-3.227-0.863-3.481-1.614-3.481
				h-0.901V415.82z"/>
			<path style="fill:#FBF178;" d="M213.002,409.964h4.129v0.763h-3.278v1.981h2.706v0.762h-2.706v2.351h3.278v0.762h-4.129V409.964z
				"/>
			<path style="fill:#FBF178;" d="M224.248,409.8l0.813,0.304l-2.541,6.644h-0.151l-2.54-6.644l0.813-0.304l1.802,4.852
				L224.248,409.8z"/>
			<path style="fill:#FBF178;" d="M228.256,409.964h4.128v0.763h-3.277v1.981h2.706v0.762h-2.706v2.351h3.277v0.762h-4.128V409.964z
				"/>
			<path style="fill:#FBF178;" d="M236.047,409.964h0.851v5.856h3.468v0.762h-4.318V409.964z"/>
			<path style="fill:#FBF178;" d="M247.675,413.28c0,0.533-0.037,3.417-2.351,3.417c-1.066,0-2.35-0.764-2.35-3.417
				c0-2.642,1.257-3.43,2.35-3.43C246.381,409.851,247.675,410.613,247.675,413.28z M243.862,413.28
				c0,0.964,0.179,2.617,1.462,2.617s1.463-1.652,1.463-2.617c0-0.979-0.18-2.63-1.463-2.63S243.862,412.301,243.862,413.28z"/>
			<path style="fill:#FBF178;" d="M252.048,416.583h-0.851v-6.619h2.059c1.537,0,2.135,0.839,2.135,1.805
				c0,1.397-0.993,1.968-1.919,1.968h-1.424V416.583z M253.218,412.975c0.838,0,1.282-0.381,1.282-1.143
				c0-0.902-0.584-1.105-1.282-1.105h-1.17v2.248H253.218z"/>
			<path style="fill:#FBF178;" d="M259.09,411.223h-0.023l-0.166,5.36h-0.901l0.265-6.619h1.119l1.194,2.871l1.192-2.871h1.12
				l0.267,6.619h-0.901l-0.165-5.36h-0.026l-1.486,3.493L259.09,411.223z"/>
			<path style="fill:#FBF178;" d="M266.386,409.964h4.131v0.763h-3.278v1.981h2.707v0.762h-2.707v2.351h3.278v0.762h-4.131V409.964z
				"/>
			<path style="fill:#FBF178;" d="M273.618,409.964h1.057l2.566,5.578l0.023-0.026l-0.077-1.715v-3.836h0.854v6.619h-1.054
				l-2.568-5.576l-0.024,0.025l0.076,1.728v3.823h-0.853V409.964z"/>
			<path style="fill:#FBF178;" d="M283.05,410.727h-1.829v-0.763h4.474v0.763h-1.793v5.856h-0.852V410.727z"/>
			<path style="fill:#FBF178;" d="M124.812,424.124v-0.762h2.237c1.703,0,2.706,0.75,2.706,4.243c0,1.867-0.101,4.23-2.679,4.23
				h-2.265v-0.762h0.688v-6.949H124.812z M126.351,431.073h0.699c1.029,0,1.818-0.268,1.818-3.468c0-3.227-0.864-3.481-1.615-3.481
				h-0.902V431.073z"/>
			<path style="fill:#FBF178;" d="M132.923,425.217h4.13v0.763h-3.279v1.981h2.708v0.762h-2.708v2.351h3.279v0.762h-4.13V425.217z"
				/>
			<path style="fill:#FBF178;" d="M140.982,429.738c0.164,0.813,0.559,1.411,1.447,1.411c0.698,0,1.244-0.381,1.244-1.118
				c0-0.813-0.687-1.017-1.332-1.284c-0.967-0.407-1.882-0.66-1.882-1.905c0-1.119,0.902-1.741,1.944-1.741
				c1.104,0,1.754,0.636,2.02,1.665l-0.812,0.241c-0.153-0.648-0.494-1.105-1.219-1.105c-0.548,0-1.081,0.28-1.081,0.875
				c0,0.623,0.381,0.801,0.891,1.029l1.409,0.623c0.596,0.331,0.914,0.863,0.914,1.549c0,1.258-0.876,1.969-2.096,1.969
				c-1.23,0-2.007-0.787-2.21-1.969L140.982,429.738z"/>
			<path style="fill:#FBF178;" d="M148.632,431.073h0.93v-5.094h-0.93v-0.763h2.721v0.763h-0.94v5.094h0.94v0.762h-2.721V431.073z"
				/>
			<path style="fill:#FBF178;" d="M159.855,431.225c-0.547,0.432-1.359,0.724-2.033,0.724c-1.943,0-2.502-1.804-2.502-3.429
				c0-1.601,0.584-3.418,2.476-3.418c0.891,0,1.665,0.521,2.123,1.271l-0.725,0.47c-0.318-0.534-0.799-0.94-1.449-0.94
				c-1.308,0-1.537,1.639-1.537,2.641c0,1.03,0.229,2.605,1.563,2.605c0.433,0,0.863-0.114,1.232-0.343v-1.74h-1.588v-0.762h2.439
				V431.225z"/>
			<path style="fill:#FBF178;" d="M163.034,425.217h1.055l2.567,5.577l0.024-0.025l-0.077-1.715v-3.836h0.853v6.619h-1.054
				l-2.567-5.577l-0.025,0.024l0.075,1.729v3.824h-0.851V425.217z"/>
			<path style="fill:#FBF178;" d="M180.065,424.124h-1.142v-0.762h3.15v0.762h-1.156v6.949h1.156v0.762h-3.15v-0.762h1.142V424.124z
				"/>
			<path style="fill:#FBF178;" d="M186.476,425.217h0.851v5.856h3.466v0.762h-4.316V425.217z"/>
			<path style="fill:#FBF178;" d="M194.101,425.217h0.852v5.856h3.467v0.762h-4.318V425.217z"/>
			<path style="fill:#FBF178;" d="M202.158,425.217v4.51c0,0.965,0.28,1.422,1.155,1.422c1.068,0,1.296-0.469,1.296-1.422v-4.51
				h0.854v4.916c0,0.876-0.623,1.816-2.087,1.816c-1.433,0-2.069-0.901-2.069-1.867v-4.865H202.158z"/>
			<path style="fill:#FBF178;" d="M209.619,429.738c0.164,0.813,0.558,1.411,1.447,1.411c0.699,0,1.246-0.381,1.246-1.118
				c0-0.813-0.686-1.017-1.334-1.284c-0.965-0.407-1.881-0.66-1.881-1.905c0-1.119,0.903-1.741,1.942-1.741
				c1.108,0,1.755,0.636,2.022,1.665l-0.812,0.241c-0.153-0.648-0.497-1.105-1.223-1.105c-0.544,0-1.077,0.28-1.077,0.875
				c0,0.623,0.38,0.801,0.89,1.029l1.41,0.623c0.597,0.331,0.913,0.863,0.913,1.549c0,1.258-0.875,1.969-2.097,1.969
				c-1.231,0-2.007-0.787-2.209-1.969L209.619,429.738z"/>
			<path style="fill:#FBF178;" d="M218.223,425.979h-1.827v-0.763h4.469v0.763h-1.791v5.856h-0.851V425.979z"/>
			<path style="fill:#FBF178;" d="M224.339,425.217h2.249c1.104,0,1.98,0.521,1.98,1.803c0,0.814-0.546,1.614-1.346,1.855
				l1.626,2.68L228.11,432l-1.688-2.998h-1.232v2.833h-0.851V425.217z M226.308,428.24c0.825,0,1.371-0.471,1.371-1.22
				c0-0.597-0.354-1.041-1.118-1.041h-1.371v2.261H226.308z"/>
			<path style="fill:#FBF178;" d="M232.716,430.031L232.094,432l-0.839-0.305l2.082-6.479h1.092l2.085,6.479L235.675,432
				l-0.608-1.969H232.716z M233.883,426.207l-0.939,3.062h1.881L233.883,426.207z"/>
			<path style="fill:#FBF178;" d="M241.104,425.979h-1.829v-0.763h4.472v0.763h-1.791v5.856h-0.852V425.979z"/>
			<path style="fill:#FBF178;" d="M247.776,431.073h0.928v-5.094h-0.928v-0.763h2.719v0.763h-0.938v5.094h0.938v0.762h-2.719
				V431.073z"/>
			<path style="fill:#FBF178;" d="M259.111,428.532c0,0.534-0.035,3.417-2.349,3.417c-1.068,0-2.35-0.762-2.35-3.417
				c0-2.642,1.258-3.43,2.35-3.43C257.817,425.102,259.111,425.864,259.111,428.532z M255.301,428.532
				c0,0.966,0.18,2.617,1.462,2.617s1.46-1.651,1.46-2.617c0-0.978-0.178-2.629-1.46-2.629S255.301,427.554,255.301,428.532z"/>
			<path style="fill:#FBF178;" d="M262.177,425.217h1.057l2.565,5.577l0.025-0.025l-0.077-1.715v-3.836h0.852v6.619h-1.053
				l-2.567-5.577l-0.025,0.024l0.076,1.729v3.824h-0.853V425.217z"/>
		</g>
	</g>
</g>
<g id="Layer_9">
	<g>
		<g>
			<path style="fill:#FBF178;" d="M110.474,384.405v0.727c0.04,2.435,0.218,4.146,0.54,5.136c0.325,0.988,1.017,1.482,2.076,1.482
				c1.046,0,1.739-0.54,2.08-1.623c0.202-0.64,0.301-1.721,0.301-3.246v-22.016h4.736v21.91c0,2.676-0.327,4.799-0.977,6.364
				c-1.106,2.647-3.093,3.971-5.969,3.971s-4.806-1.071-5.787-3.213c-0.983-2.144-1.475-5.064-1.475-8.766v-0.727H110.474z"/>
			<path style="fill:#FBF178;" d="M141.203,393.496c-1.415,2.424-3.562,3.637-6.445,3.637c-2.878,0-5.024-1.213-6.439-3.637
				c-1.414-2.425-2.123-5.346-2.123-8.759c0-3.357,0.709-6.266,2.123-8.726c1.415-2.46,3.562-3.691,6.439-3.691
				c2.884,0,5.03,1.231,6.445,3.691c1.414,2.46,2.121,5.369,2.121,8.726C143.324,388.15,142.617,391.071,141.203,393.496z
				 M137.697,390.131c0.686-1.264,1.031-3.063,1.031-5.395s-0.346-4.126-1.031-5.384c-0.688-1.258-1.67-1.887-2.952-1.887
				c-1.281,0-2.269,0.629-2.959,1.887c-0.694,1.258-1.039,3.052-1.039,5.384s0.345,4.13,1.039,5.395
				c0.69,1.266,1.678,1.897,2.959,1.897C136.027,392.029,137.01,391.397,137.697,390.131z"/>
			<path style="fill:#FBF178;" d="M160.868,373.196c0.842,0.5,1.534,1.261,2.073,2.286c0.459,0.87,0.74,1.765,0.84,2.682
				c0.104,0.919,0.154,2.42,0.154,4.5v13.68h-4.473v-14.174c0-1.255-0.151-2.268-0.461-3.035c-0.394-1.085-1.146-1.625-2.255-1.625
				c-1.151,0-2.022,0.538-2.62,1.614c-0.594,1.077-0.891,2.613-0.891,4.607v12.614h-4.382v-31.371h4.382v11.104
				c0.633-1.352,1.365-2.295,2.195-2.829c0.831-0.534,1.707-0.8,2.626-0.8C159.089,372.448,160.025,372.698,160.868,373.196z"/>
			<path style="fill:#FBF178;" d="M183.934,374.401c1.098,1.26,1.645,3.349,1.645,6.269v15.674h-4.488v-14.159
				c0-1.225-0.118-2.165-0.351-2.819c-0.428-1.194-1.241-1.792-2.442-1.792c-1.475,0-2.487,0.875-3.036,2.627
				c-0.285,0.925-0.428,2.106-0.428,3.544v12.599h-4.383v-23.234h4.244v3.396c0.562-1.197,1.093-2.058,1.59-2.584
				c0.901-0.938,2.038-1.41,3.417-1.41C181.425,372.511,182.836,373.141,183.934,374.401z"/>
			<path style="fill:#FBF178;" d="M218.512,364.866h6.816v31.477h-4.414v-21.291c0-0.612,0.006-1.47,0.015-2.573
				c0.011-1.103,0.018-1.955,0.018-2.553l-4.297,26.417h-4.604l-4.263-26.417c0,0.598,0.005,1.45,0.016,2.553
				c0.011,1.103,0.015,1.96,0.015,2.573v21.291h-4.411v-31.477h6.891l4.124,24.75L218.512,364.866z"/>
			<path style="fill:#FBF178;" d="M242.637,373.538c1.17,0.728,2.136,1.875,2.898,3.443c0.686,1.383,1.131,2.987,1.333,4.812
				c0.118,1.069,0.165,2.609,0.146,4.619h-12.209c0.07,2.336,0.654,3.973,1.752,4.913c0.672,0.583,1.476,0.875,2.42,0.875
				c0.999,0,1.807-0.357,2.432-1.068c0.34-0.385,0.642-0.919,0.901-1.602h4.474c-0.118,1.38-0.657,2.784-1.625,4.207
				c-1.5,2.264-3.601,3.396-6.307,3.396c-2.227,0-4.194-0.954-5.9-2.864c-1.707-1.908-2.558-5.017-2.558-9.319
				c0-4.031,0.771-7.124,2.309-9.276c1.54-2.152,3.536-3.227,5.992-3.227C240.155,372.448,241.468,372.811,242.637,373.538z
				 M236.084,378.796c-0.62,0.887-1.01,2.087-1.169,3.602h7.551c-0.083-1.615-0.47-2.841-1.169-3.678s-1.565-1.254-2.601-1.254
				C237.573,377.466,236.702,377.91,236.084,378.796z"/>
			<path style="fill:#FBF178;" d="M258.229,382.185c0.815-0.143,1.397-0.32,1.748-0.533c0.633-0.37,0.946-0.947,0.946-1.729
				c0-0.955-0.243-1.612-0.726-1.976c-0.481-0.363-1.191-0.546-2.124-0.546c-1.053,0-1.795,0.356-2.232,1.068
				c-0.311,0.527-0.52,1.24-0.624,2.136h-4.226c0.092-2.036,0.506-3.708,1.236-5.019c1.162-2.05,3.161-3.075,5.99-3.075
				c1.843,0,3.479,0.506,4.909,1.518c1.433,1.01,2.146,2.917,2.146,5.723v10.677c0,0.74,0.008,1.637,0.031,2.689
				c0.03,0.798,0.118,1.339,0.261,1.624c0.142,0.284,0.358,0.52,0.647,0.704v0.897h-4.769c-0.13-0.471-0.223-0.912-0.276-1.324
				c-0.052-0.415-0.091-0.884-0.123-1.41c-0.606,0.912-1.307,1.687-2.104,2.328c-0.947,0.755-2.021,1.131-3.215,1.131
				c-1.526,0-2.787-0.6-3.781-1.803c-0.995-1.204-1.493-2.909-1.493-5.115c0-2.862,0.799-4.934,2.402-6.215
				c0.877-0.697,2.167-1.196,3.871-1.495L258.229,382.185z M260.909,385.026c-0.281,0.24-0.565,0.437-0.85,0.587
				c-0.286,0.149-0.678,0.288-1.177,0.417l-0.996,0.256c-0.938,0.227-1.607,0.505-2.018,0.832c-0.689,0.556-1.034,1.418-1.034,2.584
				c0,1.04,0.214,1.791,0.631,2.254c0.421,0.463,0.935,0.693,1.542,0.693c0.956,0,1.838-0.384,2.644-1.153
				c0.808-0.769,1.226-2.17,1.258-4.207V385.026z"/>
			<path style="fill:#FBF178;" d="M274.865,388.911c0.091,1.083,0.29,1.852,0.599,2.308c0.547,0.81,1.557,1.217,3.031,1.217
				c0.864,0,1.552-0.179,2.061-0.535c0.51-0.356,0.765-0.89,0.765-1.601c0-0.685-0.205-1.205-0.614-1.559
				c-0.411-0.357-1.939-0.969-4.585-1.837c-1.906-0.655-3.247-1.474-4.026-2.456c-0.778-0.969-1.17-2.364-1.17-4.186
				c0-2.15,0.61-3.997,1.826-5.541c1.221-1.545,2.932-2.317,5.142-2.317c2.094,0,3.801,0.58,5.121,1.741
				c1.321,1.159,2.078,3.163,2.273,6.011h-4.381c-0.063-0.783-0.222-1.404-0.479-1.859c-0.484-0.825-1.305-1.238-2.469-1.238
				c-0.955,0-1.637,0.206-2.041,0.619c-0.407,0.413-0.611,0.897-0.611,1.452c0,0.698,0.217,1.203,0.65,1.516
				c0.432,0.327,1.955,0.89,4.574,1.688c1.746,0.568,3.053,1.429,3.924,2.583c0.865,1.167,1.294,2.626,1.294,4.378
				c0,2.306-0.617,4.189-1.858,5.648c-1.235,1.458-3.148,2.188-5.737,2.188c-2.641,0-4.588-0.771-5.847-2.317
				c-1.258-1.544-1.886-3.513-1.886-5.905H274.865z"/>
		</g>
		<g>
			<path style="fill:#FBF178;" d="M106.474,408.109h4.166v0.762h-3.315v2.795h2.781v0.762h-2.781v4.154h-0.851V408.109z"/>
			<path style="fill:#FBF178;" d="M113.756,409.964h2.25c1.104,0,1.982,0.521,1.982,1.805c0,0.812-0.548,1.613-1.347,1.854
				l1.625,2.681l-0.737,0.444l-1.688-2.998h-1.232v2.833h-0.853V409.964z M115.727,412.987c0.825,0,1.372-0.469,1.372-1.219
				c0-0.597-0.356-1.042-1.117-1.042h-1.373v2.261H115.727z"/>
			<path style="fill:#FBF178;" d="M125.651,413.28c0,0.533-0.036,3.417-2.351,3.417c-1.067,0-2.351-0.764-2.351-3.417
				c0-2.642,1.258-3.43,2.351-3.43C124.356,409.851,125.651,410.613,125.651,413.28z M121.841,413.28
				c0,0.964,0.179,2.617,1.46,2.617c1.285,0,1.462-1.652,1.462-2.617c0-0.979-0.177-2.63-1.462-2.63
				C122.02,410.65,121.841,412.301,121.841,413.28z"/>
			<path style="fill:#FBF178;" d="M128.718,409.964h1.055l2.566,5.578l0.025-0.026l-0.077-1.715v-3.836h0.852v6.619h-1.055
				l-2.566-5.576l-0.023,0.025l0.075,1.728v3.823h-0.852V409.964z"/>
			<path style="fill:#FBF178;" d="M138.146,410.727h-1.826v-0.763h4.469v0.763h-1.791v5.856h-0.852V410.727z"/>
			<path style="fill:#FBF178;" d="M144.364,409.964h4.13v0.763h-3.278v1.981h2.705v0.762h-2.705v2.351h3.278v0.762h-4.13V409.964z"
				/>
			<path style="fill:#FBF178;" d="M151.598,409.964h1.054l2.566,5.578l0.024-0.026l-0.076-1.715v-3.836h0.853v6.619h-1.056
				l-2.565-5.576l-0.025,0.025l0.076,1.728v3.823h-0.851V409.964z"/>
			<path style="fill:#FBF178;" d="M159.134,409.964h2.21c1.881,0,2.731,0.775,2.731,3.227c0,2.071-0.354,3.392-2.731,3.392h-2.21
				v-0.762h0.688v-5.094h-0.688V409.964z M160.671,415.82h0.9c1.119,0,1.616-0.635,1.616-2.54c0-2.033-0.586-2.554-1.639-2.554
				h-0.878V415.82z"/>
			<path style="fill:#FBF178;" d="M179.33,408.109l-0.851,8.639h-0.371l-1.407-5.119h-0.026l-1.412,5.119h-0.366l-0.851-8.639
				l0.851-0.164l0.406,6.364h0.023l1.234-4.458h0.253l1.233,4.458h0.025l0.407-6.364L179.33,408.109z"/>
			<path style="fill:#FBF178;" d="M182.496,409.964h4.131v0.763h-3.279v1.981h2.705v0.762h-2.705v2.351h3.279v0.762h-4.131V409.964z
				"/>
			<path style="fill:#FBF178;" d="M189.678,416.583v-0.762h0.687v-5.094h-0.687v-0.763h2.083c1.678,0,2.403,0.637,2.403,1.767
				c0,0.571-0.243,1.08-0.751,1.359c0.725,0.228,1.129,0.851,1.129,1.6c0,1.194-0.785,1.893-2.169,1.893H189.678z M192.167,412.797
				c0.737,0,1.106-0.469,1.106-1.066c0-0.788-0.561-1.004-1.157-1.004h-0.901v2.07H192.167z M192.206,415.82
				c0.75,0,1.447-0.166,1.447-1.067c0-0.661-0.43-1.194-1.242-1.194h-1.196v2.261H192.206z"/>
			<path style="fill:#FBF178;" d="M204.892,408.871v-0.762h2.237c1.702,0,2.706,0.75,2.706,4.244c0,1.867-0.103,4.23-2.681,4.23
				h-2.263v-0.762h0.687v-6.949H204.892z M206.43,415.82h0.699c1.028,0,1.816-0.267,1.816-3.468c0-3.227-0.863-3.481-1.614-3.481
				h-0.901V415.82z"/>
			<path style="fill:#FBF178;" d="M213.002,409.964h4.129v0.763h-3.278v1.981h2.706v0.762h-2.706v2.351h3.278v0.762h-4.129V409.964z
				"/>
			<path style="fill:#FBF178;" d="M224.248,409.8l0.813,0.304l-2.541,6.644h-0.151l-2.54-6.644l0.813-0.304l1.802,4.852
				L224.248,409.8z"/>
			<path style="fill:#FBF178;" d="M228.256,409.964h4.128v0.763h-3.277v1.981h2.706v0.762h-2.706v2.351h3.277v0.762h-4.128V409.964z
				"/>
			<path style="fill:#FBF178;" d="M236.047,409.964h0.851v5.856h3.468v0.762h-4.318V409.964z"/>
			<path style="fill:#FBF178;" d="M247.675,413.28c0,0.533-0.037,3.417-2.351,3.417c-1.066,0-2.35-0.764-2.35-3.417
				c0-2.642,1.257-3.43,2.35-3.43C246.381,409.851,247.675,410.613,247.675,413.28z M243.862,413.28
				c0,0.964,0.179,2.617,1.462,2.617s1.463-1.652,1.463-2.617c0-0.979-0.18-2.63-1.463-2.63S243.862,412.301,243.862,413.28z"/>
			<path style="fill:#FBF178;" d="M252.048,416.583h-0.851v-6.619h2.059c1.537,0,2.135,0.839,2.135,1.805
				c0,1.397-0.993,1.968-1.919,1.968h-1.424V416.583z M253.218,412.975c0.838,0,1.282-0.381,1.282-1.143
				c0-0.902-0.584-1.105-1.282-1.105h-1.17v2.248H253.218z"/>
			<path style="fill:#FBF178;" d="M259.09,411.223h-0.023l-0.166,5.36h-0.901l0.265-6.619h1.119l1.194,2.871l1.192-2.871h1.12
				l0.267,6.619h-0.901l-0.165-5.36h-0.026l-1.486,3.493L259.09,411.223z"/>
			<path style="fill:#FBF178;" d="M266.386,409.964h4.131v0.763h-3.278v1.981h2.707v0.762h-2.707v2.351h3.278v0.762h-4.131V409.964z
				"/>
			<path style="fill:#FBF178;" d="M273.618,409.964h1.057l2.566,5.578l0.023-0.026l-0.077-1.715v-3.836h0.854v6.619h-1.054
				l-2.568-5.576l-0.024,0.025l0.076,1.728v3.823h-0.853V409.964z"/>
			<path style="fill:#FBF178;" d="M283.05,410.727h-1.829v-0.763h4.474v0.763h-1.793v5.856h-0.852V410.727z"/>
			<path style="fill:#FBF178;" d="M124.812,424.124v-0.762h2.237c1.703,0,2.706,0.75,2.706,4.243c0,1.867-0.101,4.23-2.679,4.23
				h-2.265v-0.762h0.688v-6.949H124.812z M126.351,431.073h0.699c1.029,0,1.818-0.268,1.818-3.468c0-3.227-0.864-3.481-1.615-3.481
				h-0.902V431.073z"/>
			<path style="fill:#FBF178;" d="M132.923,425.217h4.13v0.763h-3.279v1.981h2.708v0.762h-2.708v2.351h3.279v0.762h-4.13V425.217z"
				/>
			<path style="fill:#FBF178;" d="M140.982,429.738c0.164,0.813,0.559,1.411,1.447,1.411c0.698,0,1.244-0.381,1.244-1.118
				c0-0.813-0.687-1.017-1.332-1.284c-0.967-0.407-1.882-0.66-1.882-1.905c0-1.119,0.902-1.741,1.944-1.741
				c1.104,0,1.754,0.636,2.02,1.665l-0.812,0.241c-0.153-0.648-0.494-1.105-1.219-1.105c-0.548,0-1.081,0.28-1.081,0.875
				c0,0.623,0.381,0.801,0.891,1.029l1.409,0.623c0.596,0.331,0.914,0.863,0.914,1.549c0,1.258-0.876,1.969-2.096,1.969
				c-1.23,0-2.007-0.787-2.21-1.969L140.982,429.738z"/>
			<path style="fill:#FBF178;" d="M148.632,431.073h0.93v-5.094h-0.93v-0.763h2.721v0.763h-0.94v5.094h0.94v0.762h-2.721V431.073z"
				/>
			<path style="fill:#FBF178;" d="M159.855,431.225c-0.547,0.432-1.359,0.724-2.033,0.724c-1.943,0-2.502-1.804-2.502-3.429
				c0-1.601,0.584-3.418,2.476-3.418c0.891,0,1.665,0.521,2.123,1.271l-0.725,0.47c-0.318-0.534-0.799-0.94-1.449-0.94
				c-1.308,0-1.537,1.639-1.537,2.641c0,1.03,0.229,2.605,1.563,2.605c0.433,0,0.863-0.114,1.232-0.343v-1.74h-1.588v-0.762h2.439
				V431.225z"/>
			<path style="fill:#FBF178;" d="M163.034,425.217h1.055l2.567,5.577l0.024-0.025l-0.077-1.715v-3.836h0.853v6.619h-1.054
				l-2.567-5.577l-0.025,0.024l0.075,1.729v3.824h-0.851V425.217z"/>
			<path style="fill:#FBF178;" d="M180.065,424.124h-1.142v-0.762h3.15v0.762h-1.156v6.949h1.156v0.762h-3.15v-0.762h1.142V424.124z
				"/>
			<path style="fill:#FBF178;" d="M186.476,425.217h0.851v5.856h3.466v0.762h-4.316V425.217z"/>
			<path style="fill:#FBF178;" d="M194.101,425.217h0.852v5.856h3.467v0.762h-4.318V425.217z"/>
			<path style="fill:#FBF178;" d="M202.158,425.217v4.51c0,0.965,0.28,1.422,1.155,1.422c1.068,0,1.296-0.469,1.296-1.422v-4.51
				h0.854v4.916c0,0.876-0.623,1.816-2.087,1.816c-1.433,0-2.069-0.901-2.069-1.867v-4.865H202.158z"/>
			<path style="fill:#FBF178;" d="M209.619,429.738c0.164,0.813,0.558,1.411,1.447,1.411c0.699,0,1.246-0.381,1.246-1.118
				c0-0.813-0.686-1.017-1.334-1.284c-0.965-0.407-1.881-0.66-1.881-1.905c0-1.119,0.903-1.741,1.942-1.741
				c1.108,0,1.755,0.636,2.022,1.665l-0.812,0.241c-0.153-0.648-0.497-1.105-1.223-1.105c-0.544,0-1.077,0.28-1.077,0.875
				c0,0.623,0.38,0.801,0.89,1.029l1.41,0.623c0.597,0.331,0.913,0.863,0.913,1.549c0,1.258-0.875,1.969-2.097,1.969
				c-1.231,0-2.007-0.787-2.209-1.969L209.619,429.738z"/>
			<path style="fill:#FBF178;" d="M218.223,425.979h-1.827v-0.763h4.469v0.763h-1.791v5.856h-0.851V425.979z"/>
			<path style="fill:#FBF178;" d="M224.339,425.217h2.249c1.104,0,1.98,0.521,1.98,1.803c0,0.814-0.546,1.614-1.346,1.855
				l1.626,2.68L228.11,432l-1.688-2.998h-1.232v2.833h-0.851V425.217z M226.308,428.24c0.825,0,1.371-0.471,1.371-1.22
				c0-0.597-0.354-1.041-1.118-1.041h-1.371v2.261H226.308z"/>
			<path style="fill:#FBF178;" d="M232.716,430.031L232.094,432l-0.839-0.305l2.082-6.479h1.092l2.085,6.479L235.675,432
				l-0.608-1.969H232.716z M233.883,426.207l-0.939,3.062h1.881L233.883,426.207z"/>
			<path style="fill:#FBF178;" d="M241.104,425.979h-1.829v-0.763h4.472v0.763h-1.791v5.856h-0.852V425.979z"/>
			<path style="fill:#FBF178;" d="M247.776,431.073h0.928v-5.094h-0.928v-0.763h2.719v0.763h-0.938v5.094h0.938v0.762h-2.719
				V431.073z"/>
			<path style="fill:#FBF178;" d="M259.111,428.532c0,0.534-0.035,3.417-2.349,3.417c-1.068,0-2.35-0.762-2.35-3.417
				c0-2.642,1.258-3.43,2.35-3.43C257.817,425.102,259.111,425.864,259.111,428.532z M255.301,428.532
				c0,0.966,0.18,2.617,1.462,2.617s1.46-1.651,1.46-2.617c0-0.978-0.178-2.629-1.46-2.629S255.301,427.554,255.301,428.532z"/>
			<path style="fill:#FBF178;" d="M262.177,425.217h1.057l2.565,5.577l0.025-0.025l-0.077-1.715v-3.836h0.852v6.619h-1.053
				l-2.567-5.577l-0.025,0.024l0.076,1.729v3.824h-0.853V425.217z"/>
		</g>
	</g>
</g>
</svg>
