<?xml version="1.0" encoding="iso-8859-1"?>
<!-- Generator: Adobe Illustrator 16.0.0, SVG Export Plug-In . SVG Version: 6.00 Build 0)  -->
<!DOCTYPE svg PUBLIC "-//W3C//DTD SVG 1.1//EN" "http://www.w3.org/Graphics/SVG/1.1/DTD/svg11.dtd">
<svg version="1.1" id="Layer_1" xmlns="http://www.w3.org/2000/svg" xmlns:xlink="http://www.w3.org/1999/xlink" x="0px" y="0px"
	 width="612px" height="1008px" viewBox="0 0 612 1008" style="enable-background:new 0 0 612 1008;" xml:space="preserve">
<g>
	<path d="M381.736,522.988h-2.67v5.713h2.67c1.918,0,2.938-0.969,2.938-2.904C384.675,523.504,383.336,522.988,381.736,522.988z"/>
	<path d="M84.785,522.795c-2.936,0-3.343,4.195-3.343,6.682c0,2.453,0.407,6.648,3.343,6.648c2.935,0,3.341-4.195,3.341-6.648
		C88.126,526.99,87.72,522.795,84.785,522.795z"/>
	<path d="M244.724,525.538c0-2.001-1.279-2.55-2.645-2.55h-2.062v5.262h2.18C243.881,528.25,244.724,527.055,244.724,525.538z"/>
	<path d="M70.607,525.635c0-1.517-0.812-2.646-2.557-2.646h-3.139v5.746h2.558C69.357,528.734,70.607,527.539,70.607,525.635z"/>
	<path d="M279.792,564.373c0-1.517-0.814-2.646-2.558-2.646h-3.14v5.746h2.559C278.541,567.473,279.792,566.277,279.792,564.373z"/>
	<path d="M242.747,530.186h-2.731v5.745h2.267c1.715,0,3.313-0.419,3.313-2.71C245.596,531.541,244.607,530.186,242.747,530.186z"/>
	<path d="M276.856,518.275h-2.063v17.655h1.597c2.354,0,4.156-0.678,4.156-8.812C280.546,518.922,278.57,518.275,276.856,518.275z"
		/>
	<path d="M363.695,522.795c-2.935,0-3.34,4.195-3.34,6.682c0,2.453,0.405,6.648,3.34,6.648c2.937,0,3.343-4.195,3.343-6.648
		C367.038,526.99,366.632,522.795,363.695,522.795z"/>
	<path d="M479.348,480.746c-0.636,0.773-0.957,1.907-0.972,3.403v1.075c0,2.63,1.289,3.942,3.865,3.942
		c1.331,0,2.335-0.307,3.011-0.924c0.672-0.615,1.007-1.621,1.007-3.018v-7.654l-3.469,1.167
		C481.13,479.303,479.981,479.971,479.348,480.746z"/>
	<path d="M125.978,459.67c-1.232,0-2.129,0.297-2.695,0.886c-0.566,0.592-0.851,1.554-0.851,2.886v22.913
		c0,2.516,1.182,3.772,3.545,3.772c1.247,0,2.149-0.295,2.707-0.886c0.561-0.591,0.838-1.551,0.838-2.886v-22.913
		C129.523,460.927,128.342,459.67,125.978,459.67z"/>
	<polygon points="291.816,570.086 296.118,570.086 293.969,562.308 	"/>
	<path d="M0,402.538v202.523h612V402.538H0z M289.812,521.051h9.444v1.938h-7.498v5.035h6.19v1.937h-6.19v5.971h7.498v1.937h-9.444
		V521.051z M49.833,576.605h-5.172v-1.936h1.569v-17.656h-1.569v-1.936h5.114c3.895,0,6.19,1.904,6.19,10.779
		C55.965,570.604,55.733,576.605,49.833,576.605z M54.628,525.377v1.937h-6.364v10.554h-1.947V516.34h9.532v1.936h-7.585v7.102
		H54.628z M72.642,561.727h-7.498v5.035h6.19v1.937h-6.19v5.972h7.498v1.936h-9.446v-16.816h9.446V561.727z M71.596,538.287
		l-3.865-7.617h-2.82v7.197h-1.947v-16.816h5.144c2.529,0,4.534,1.324,4.534,4.584c0,2.065-1.249,4.099-3.08,4.712l3.72,6.811
		L71.596,538.287z M84.929,576.896c-2.818,0-4.591-2.001-5.057-5.002l1.744-0.614c0.378,2.066,1.279,3.584,3.312,3.584
		c1.6,0,2.849-0.969,2.849-2.841c0-2.065-1.57-2.581-3.052-3.261c-2.209-1.031-4.302-1.678-4.302-4.84
		c0-2.842,2.063-4.423,4.447-4.423c2.528,0,4.009,1.614,4.621,4.229l-1.861,0.611c-0.349-1.646-1.133-2.807-2.79-2.807
		c-1.25,0-2.47,0.709-2.47,2.227c0,1.582,0.872,2.034,2.034,2.615l3.226,1.58c1.366,0.841,2.094,2.195,2.094,3.938
		C89.726,575.089,87.72,576.896,84.929,576.896z M84.785,538.157c-2.443,0-5.377-1.937-5.377-8.681c0-6.714,2.878-8.716,5.377-8.716
		c2.411,0,5.376,1.938,5.376,8.716C90.162,530.832,90.074,538.157,84.785,538.157z M92.844,484.941c0,5.607-1.182,9.522-3.545,11.74
		c-2.364,2.22-6.619,3.328-12.767,3.328H51.168c-2.866,0-5.296-0.27-7.29-0.81c-1.992-0.541-3.608-1.417-4.846-2.631
		c-1.239-1.212-2.137-2.771-2.697-4.677c-0.559-1.905-0.839-4.22-0.839-6.949v-11.824h25.027l0.017,8.108
		c-0.013,1.599,0.243,2.744,0.764,3.443c0.523,0.697,1.341,1.046,2.462,1.046c1.193,0,2.051-0.35,2.575-1.046
		c0.521-0.7,0.788-1.845,0.8-3.443l-0.02-44.412h25.724V484.941z M105.327,561.727h-2.151v12.943h2.151v1.936h-6.22v-1.936h2.121
		v-12.943h-2.121v-1.938h6.22V561.727z M107.274,537.867h-2.413l-5.871-14.169l-0.058,0.065l0.174,4.389v9.715H97.16v-16.816h2.412
		l5.871,14.169l0.059-0.063l-0.174-4.357v-9.748h1.947V537.867z M119.997,574.863c0.989,0,1.977-0.291,2.82-0.872v-4.421h-3.634
		v-1.938h5.581v7.424c-1.25,1.098-3.11,1.839-4.65,1.839c-4.447,0-5.725-4.582-5.725-8.714c0-4.066,1.337-8.683,5.666-8.683
		c2.035,0,3.809,1.324,4.854,3.228l-1.657,1.195c-0.725-1.356-1.831-2.389-3.312-2.389c-2.993,0-3.517,4.164-3.517,6.713
		C116.423,570.859,116.946,574.863,119.997,574.863z M114.534,522.988v-1.938h10.23v1.938h-4.098v14.879h-1.948v-14.879H114.534z
		 M142.138,576.605h-2.412l-5.871-14.169l-0.059,0.065l0.176,4.389v9.715h-1.948v-16.816h2.413l5.87,14.17l0.059-0.064l-0.174-4.356
		v-9.749h1.947V576.605z M142.37,522.988h-7.498v5.035h6.19v1.937h-6.19v5.971h7.498v1.937h-9.444v-16.816h9.444V522.988z
		 M138.482,499.613h-24.987c-3.132,0-5.777-0.192-7.941-0.575c-2.162-0.385-3.897-1.014-5.205-1.886
		c-1.308-0.874-2.258-2.031-2.847-3.47c-0.594-1.44-0.888-3.215-0.888-5.327v-26.988c0-2.112,0.294-3.888,0.888-5.327
		c0.589-1.44,1.539-2.598,2.847-3.47c1.308-0.874,3.043-1.503,5.205-1.886c2.164-0.384,4.809-0.575,7.941-0.575h24.987
		c3.131,0,5.775,0.191,7.93,0.575c2.157,0.383,3.905,1.028,5.243,1.933c1.34,0.906,2.305,2.079,2.896,3.517
		c0.591,1.44,0.887,3.184,0.887,5.233v26.988c0,2.112-0.295,3.874-0.887,5.29c-0.591,1.413-1.555,2.57-2.896,3.47
		c-1.337,0.898-3.085,1.539-5.243,1.924C144.257,499.421,141.614,499.613,138.482,499.613z M159.569,537.867h-2.412l-5.871-14.169
		l-0.058,0.065l0.175,4.389v9.715h-1.948v-16.816h2.413l5.871,14.169l0.058-0.063l-0.174-4.357v-9.748h1.947V537.867z
		 M175.548,557.014h-2.646v17.656h2.646v1.936h-7.207v-1.936h2.614v-17.656h-2.614v-1.936h7.207V557.014z M171.742,537.867h-5.057
		v-1.937h1.567v-12.942h-1.567v-1.938h5.057c4.301,0,6.248,1.97,6.248,8.199C177.989,534.51,177.175,537.867,171.742,537.867z
		 M195.479,576.605h-9.882v-16.816h1.948v14.881h7.934V576.605z M200.763,516.34l1.947-0.42l0.931,16.17h0.059l2.818-11.329h0.582
		l2.818,11.329h0.059l0.929-16.17l1.948,0.42l-1.948,21.947h-0.843l-3.225-13.008h-0.058l-3.226,13.008h-0.844L200.763,516.34z
		 M212.912,576.605h-9.881v-16.816h1.947v14.881h7.935V576.605z M217.446,499.538h-25.556v-34.38c0-2.513-1.187-3.772-3.563-3.772
		c-1.232,0-2.13,0.296-2.698,0.888c-0.564,0.591-0.847,1.553-0.847,2.884v34.38h-25.573v-62.724h25.573v13.202l14.898,0.094
		c5.871,0,10.3,1.223,13.285,3.667c2.987,2.444,4.48,6.006,4.48,10.684V499.538z M229.006,572.281c0,2.228-1.423,4.614-4.765,4.614
		c-3.284,0-4.738-2.292-4.738-4.744v-12.362h1.949v11.459c0,2.453,0.638,3.615,2.644,3.615c2.441,0,2.964-1.195,2.964-3.615v-11.459
		h1.947V572.281z M229.529,522.988h-7.497v5.035h6.189v1.937h-6.189v5.971h7.497v1.937h-9.444v-16.816h9.444V522.988z
		 M241.817,576.896c-2.819,0-4.591-2.001-5.057-5.002l1.744-0.614c0.379,2.066,1.28,3.584,3.313,3.584
		c1.599,0,2.849-0.969,2.849-2.841c0-2.065-1.569-2.581-3.052-3.261c-2.208-1.031-4.301-1.678-4.301-4.84
		c0-2.842,2.062-4.423,4.446-4.423c2.528,0,4.011,1.614,4.621,4.229l-1.859,0.611c-0.351-1.646-1.134-2.807-2.79-2.807
		c-1.25,0-2.471,0.709-2.471,2.227c0,1.582,0.872,2.034,2.034,2.615l3.227,1.58c1.366,0.841,2.092,2.195,2.092,3.938
		C246.613,575.089,244.607,576.896,241.817,576.896z M242.66,537.867h-6.161v-1.937h1.569v-12.942h-1.569v-1.938h4.767
		c3.836,0,5.492,1.613,5.492,4.487c0,1.452-0.551,2.743-1.714,3.454c1.657,0.58,2.587,2.162,2.587,4.066
		C247.63,536.093,245.828,537.867,242.66,537.867z M250.317,461.179c-1.234,0-2.131,0.296-2.697,0.886
		c-0.565,0.592-0.848,1.554-0.848,2.886v34.587h-25.555v-49.485h40.603c5.758-0.202,10.131,0.921,13.117,3.366
		c2.987,2.446,4.479,6.006,4.479,10.683v35.437h-25.554v-34.587C253.862,462.436,252.679,461.179,250.317,461.179z M264.219,561.727
		h-4.098v14.879h-1.948v-14.879h-4.185v-1.938h10.23V561.727z M280.779,577.025l-3.866-7.617h-2.819v7.197h-1.946v-16.816h5.144
		c2.528,0,4.533,1.324,4.533,4.584c0,2.065-1.249,4.1-3.081,4.712l3.72,6.812L280.779,577.025z M276.449,537.867h-5.172v-1.937
		h1.569v-17.655h-1.569v-1.936h5.114c3.895,0,6.19,1.903,6.19,10.779C282.58,531.864,282.349,537.867,276.449,537.867z
		 M298.066,577.025l-1.395-5.003h-5.377l-1.425,5.003l-1.917-0.774l4.767-16.462h2.499l4.766,16.462L298.066,577.025z
		 M316.516,561.727h-4.099v14.879h-1.947v-14.879h-4.184v-1.938h10.23V561.727z M311.574,538.287h-0.349l-5.812-16.881l1.859-0.774
		l4.126,12.329l4.128-12.329l1.859,0.774L311.574,538.287z M331.941,561.727h-2.15v12.943h2.15v1.936h-6.219v-1.936h2.121v-12.943
		h-2.121v-1.938h6.219V561.727z M334.121,522.988h-7.499v5.035h6.191v1.937h-6.191v5.971h7.499v1.937h-9.445v-16.816h9.445V522.988z
		 M323.508,465.006v34.531h-25.479v-62.724h36.19l7.921,26.025l7.881-26.025h36.303v62.724h-25.532v-34.531l-10.58,34.531h-16.068
		L323.508,465.006z M346.264,576.896c-2.44,0-5.376-1.937-5.376-8.681c0-6.714,2.876-8.716,5.376-8.716
		c2.411,0,5.376,1.938,5.376,8.716C351.64,569.57,351.552,576.896,346.264,576.896z M352.367,537.867h-9.883v-16.816h1.948v14.88
		h7.935V537.867z M368.753,576.605h-2.413l-5.87-14.169l-0.058,0.065l0.174,4.389v9.715h-1.945v-16.816h2.411l5.868,14.17
		l0.061-0.064l-0.175-4.356v-9.749h1.947V576.605z M363.695,538.157c-2.441,0-5.376-1.937-5.376-8.681
		c0-6.714,2.876-8.716,5.376-8.716c2.413,0,5.376,1.938,5.376,8.716C369.071,530.832,368.985,538.157,363.695,538.157z
		 M382.317,530.638h-3.251v7.229h-1.95v-16.816h4.707c3.52,0,4.884,2.131,4.884,4.584
		C386.707,529.186,384.444,530.638,382.317,530.638z M402.397,537.867l-0.379-13.621h-0.059l-3.404,8.876l-3.396-8.876h-0.062
		l-0.379,13.621h-2.061l0.61-16.816h2.559l2.728,7.295l2.736-7.295h2.557l0.609,16.816H402.397z M421.282,522.988h-7.501v5.035
		h6.193v1.937h-6.193v5.971h7.501v1.937h-9.446v-16.816h9.446V522.988z M438.481,537.867h-2.412l-5.869-14.169l-0.061,0.065
		l0.177,4.389v9.715h-1.949v-16.816h2.41l5.874,14.169l0.058-0.063l-0.174-4.357v-9.748h1.946V537.867z M439.997,499.114
		c-2.162,0.382-4.814,0.575-7.959,0.575h-25.025c-3.144,0-5.796-0.192-7.958-0.575c-2.162-0.384-3.897-1.013-5.215-1.886
		c-1.312-0.875-2.268-2.03-2.855-3.471c-0.593-1.44-0.889-3.215-0.889-5.326v-26.988c0-2.113,0.296-3.889,0.889-5.327
		c0.588-1.44,1.544-2.598,2.855-3.47c1.317-0.875,3.053-1.503,5.215-1.886c2.162-0.385,4.814-0.575,7.958-0.575h25.025
		c3.145,0,5.797,0.19,7.959,0.575c2.161,0.382,3.916,1.023,5.252,1.923c1.339,0.898,2.306,2.067,2.895,3.508
		c0.593,1.438,0.887,3.19,0.887,5.252v14.878h-33.058v10.108c0,2.517,1.188,3.772,3.562,3.772c1.23,0,2.133-0.294,2.695-0.885
		c0.567-0.591,0.849-1.552,0.849-2.887v-6.336h25.951v8.338c0,2.111-0.294,3.874-0.887,5.289c-0.589,1.415-1.556,2.571-2.895,3.471
		C443.913,498.088,442.158,498.73,439.997,499.114z M455.973,522.988h-4.097v14.879h-1.95v-14.879h-4.186v-1.938h10.232V522.988z
		 M511.436,499.538h-40.564c-5.76,0.101-10.117-1.047-13.08-3.441c-2.96-2.396-4.623-6.869-4.989-13.419
		c0.856-9.769,6.806-14.797,17.843-15.086h15.426l0.021-4.338c0.009-1.497-0.295-2.527-0.914-3.093
		c-0.624-0.566-1.604-0.848-2.936-0.848c-1.346,0-2.31,0.308-2.894,0.923c-0.585,0.617-0.882,1.622-0.896,3.018v1.621h-24.8
		l0.022-3.545c0-2.124,0.292-3.907,0.883-5.347c0.593-1.439,1.554-2.598,2.888-3.479c1.332-0.88,3.079-1.512,5.241-1.895
		c2.161-0.385,4.815-0.575,7.959-0.575h23.8c3.145,0,5.799,0.19,7.96,0.575c2.162,0.383,3.912,1.027,5.259,1.933
		c1.346,0.906,2.314,2.082,2.895,3.527c0.589,1.446,0.885,3.199,0.898,5.261L511.436,499.538z M544.928,459.746
		c-1.029,0-1.881,0.258-2.545,0.774c-0.668,0.515-1,1.181-1,1.996c0.014,0.518,0.094,0.98,0.246,1.386
		c0.15,0.41,0.468,0.796,0.952,1.16c0.483,0.365,1.188,0.713,2.112,1.048c0.923,0.332,2.156,0.675,3.705,1.026l11.128,2.792
		c5.769,1.483,9.636,3.101,11.598,4.848c2.012,1.695,3.018,4.268,3.018,7.712v5.942c-0.015,2.111-0.317,3.874-0.906,5.289
		c-0.591,1.415-1.555,2.571-2.895,3.471c-1.339,0.897-3.089,1.54-5.252,1.924c-2.165,0.382-4.813,0.575-7.958,0.575h-25.024
		c-3.145,0-5.797-0.192-7.959-0.575c-2.162-0.384-3.901-1.013-5.217-1.886c-1.313-0.875-2.265-2.03-2.858-3.471
		c-0.588-1.44-0.876-3.215-0.865-5.326l-0.019-6.092h25.876v4.091c0,2.517,1.188,3.772,3.564,3.772c1.229,0,2.132-0.294,2.705-0.885
		c0.57-0.591,0.853-1.552,0.839-2.887v-1.318c0-2.212-1.976-3.829-5.921-4.847l-14.863-3.64c-4.623-1.181-7.739-2.492-9.334-3.932
		c-1.599-1.439-2.389-3.648-2.378-6.629l-0.02-4.619c0-2.113,0.301-3.889,0.899-5.327c0.596-1.44,1.561-2.598,2.891-3.47
		c1.336-0.875,3.084-1.503,5.245-1.886c2.162-0.385,4.814-0.575,7.959-0.575h24.479c3.145,0,5.793,0.19,7.958,0.575
		c2.163,0.382,3.913,1.023,5.252,1.923c1.34,0.898,2.304,2.067,2.895,3.508c0.589,1.438,0.889,3.19,0.889,5.252l0.018,3.319h-25.647
		v-1.245C548.479,461.003,547.292,459.746,544.928,459.746z"/>
	<path d="M172.205,522.988h-2.004v12.942h2.063c2.558,0,3.69-1.614,3.69-6.454C175.955,524.311,174.619,522.988,172.205,522.988z"/>
	<path d="M423.382,463.518c0-2.779-1.28-4.168-3.847-4.168c-1.347,0-2.314,0.324-2.902,0.972c-0.592,0.648-0.888,1.712-0.888,3.197
		l0.018,3.943h7.638L423.382,463.518z"/>
	<path d="M50.241,557.014h-2.063v17.656h1.598c2.354,0,4.157-0.679,4.157-8.812C53.932,557.66,51.955,557.014,50.241,557.014z"/>
	<path d="M346.264,561.533c-2.935,0-3.342,4.195-3.342,6.682c0,2.453,0.407,6.648,3.342,6.648s3.343-4.195,3.343-6.648
		C349.606,565.729,349.198,561.533,346.264,561.533z"/>
</g>
</svg>
